<?xml version="1.0" encoding="utf-8" ?>
<svg baseProfile="full" height="200mm" version="1.1" viewBox="0,0,200,200" width="200mm" xmlns="http://www.w3.org/2000/svg" xmlns:ev="http://www.w3.org/2001/xml-events" xmlns:xlink="http://www.w3.org/1999/xlink"><defs /><rect fill="#1a1a1a" height="200" width="200" x="0" y="0" /><text alignment-baseline="middle" fill="#e1ed5e" style="dominant-baseline: central; font-size:9.0px; font-family:Arial;" text-anchor="middle" x="100.0" y="100.0">2024</text><line stroke="#e1ed5e" stroke-width="0.3" x1="100.0" x2="100.0" y1="15.0" y2="10.0" /><path d="M 100.0 14.0 a86.0,86.0 0 0,1 42.35913384403234,11.155469271406648" fill="none" id="id85" stroke="none" /><text fill="#e1ed5e" style="font-size:6.75px; font-family:Arial;" text-anchor="middle"><textPath startOffset="22.145653131862478" xlink:href="#id85">January</textPath></text><path d="M 100.0 79.0 l 0.0 -34.6416062304269 a55.6416062304269,55.6416062304269 0 0,0 0.9551621606330883,0.008198918374042442 l -0.5946692357842336 34.636501710247295" fill="#8bff24" stroke="none" /><path d="M 100.36049292484886 79.00309439819443 l 0.24333420973912517 -14.172997802174754 a35.17508653370694,35.17508653370694 0 0,0 0.6036491839598828,0.015547861687737623 l -0.4865967077697493 14.166732223136972" fill="#ff4e07" stroke="none" /><path d="M 100.72087961077811 79.0123766808444 l 0.8477939892621044 -24.682596972983383 a45.69715262897643,45.69715262897643 0 0,0 0.7837589138499563,0.03365798006776445 l -1.271378663712897 24.664406424489787" fill="#ffee16" stroke="none" /><path d="M 101.08105385017728 79.02784411241856 l 0.7182005397842077 -13.932898602997026 a34.95139690126916,34.95139690126916 0 0,0 0.5989265512276982,0.03602993405603215 l -0.9572714431443683 13.918516691116302" fill="#ff4a06" stroke="none" /><path d="M 101.44090949804482 79.04949213459386 l 1.7613557054351174 -25.60972539258583 a46.6702241635075,46.6702241635075 0 0,0 0.7987964564359376,0.06183189767000871 l -2.2007211566462885 25.575715727920766" fill="#fffc17" stroke="none" /><path d="M 101.80034050326958 79.07731436759882 l 2.848993593098457 -33.10962410103506 a54.23197214438767,54.23197214438767 0 0,0 0.9268513562434548,0.0877737870799769 l -3.416944512726925 33.0558385584499" fill="#9dff22" stroke="none" /><path d="M 102.15924093988457 79.11130261209362 l 2.763424457367927 -26.73362484845434 a47.87607136970496,47.87607136970496 0 0,0 0.8167751211506314,0.0915213559547996 l -3.2219354801193556 26.68224773199257" fill="#f2ff19" stroke="none" /><path d="M 102.51750503828377 79.15144685158666 l 4.182960973553544 -34.640917435589955 a55.892553980550524,55.892553980550524 0 0,0 0.9515632209149012,0.1231989099068014 l -4.777002016359236 34.56400692948276" fill="#88ff25" stroke="none" /><path d="M 102.87502721639298 79.19773525538626 l 3.1642122104269044 -22.89466330409957 a44.112287786385366,44.112287786385366 0 0,0 0.7492259803625019,0.11011041809967329 l -3.556763296397088 22.836971812701016" fill="#ffd714" stroke="none" /><path d="M 103.23170211078529 79.25015418208739 l 3.569680516800342 -22.919909633878593 a44.19622548211637,44.19622548211637 0 0,0 0.7486472230537118,0.12318961565980856 l -3.9626052429071246 22.855254019723116" fill="#ffd814" stroke="none" /><path d="M 103.58742460773223 79.30868818359171 l 4.067709037867467 -23.461464778807766 a44.81148013845393,44.81148013845393 0 0,0 0.7568131211084014,0.1379165614374573 l -4.469856892526923 23.388180043438943" fill="#ffe115" stroke="none" /><path d="M 103.94208987418118 79.37332000966035 l 4.386931357634493 -22.954278603886102 a44.369725564529425,44.369725564529425 0 0,0 0.746897805861338,0.14940047926529706 l -4.780325649026788 22.875588727957947" fill="#ffdb14" stroke="none" /><path d="M 104.29559338865022 79.4440306129975 l 6.920157051507111 -33.115456616513804 a54.830785396406796,54.830785396406796 0 0,0 0.9196887306145335,0.20044187829833984 l -7.487608198740779 32.99178328008174" fill="#95ff23" stroke="none" /><path d="M 104.64783097203109 79.52079915486377 l 5.579293224069701 -24.583395393937952 a46.20856683698698,46.20856683698698 0 0,0 0.7720523964219141,0.18220226336588413 l -6.0004777742315 24.483996986925842" fill="#fff517" stroke="none" /><path d="M 104.9986988182912 79.60360301121754 l 4.1273045809918365 -16.840811136588453 a38.33919152793803,38.33919152793803 0 0,0 0.6378814562799691,0.1621469717703374 l -4.4157913304972 16.767478932982847" fill="#ff800b" stroke="none" /><path d="M 105.3480935250658 79.69241777938227 l 3.4054759041883074 -12.93114669751136 a34.372053733311354,34.372053733311354 0 0,0 0.5692971226913247,0.15516446234137685 l -3.626954427814325 12.87078174102584" fill="#ff4106" stroke="none" /><path d="M 105.69591212413111 79.78721728523813 l 6.758321314417885 -23.982898132528867 a45.91694824460194,45.91694824460194 0 0,0 0.7568424712790964,0.22030581304898414 l -7.169023798078586 23.863348625177366" fill="#fff116" stroke="none" /><path d="M 106.04205211174951 79.88797359093562 l 5.423730189072321 -18.0538338267786 a39.85093538816548,39.85093538816548 0 0,0 0.6534782328448677,0.20244922696696896 l -5.732849054788819 17.958068012004983" fill="#ff970e" stroke="none" /><path d="M 106.38641147887787 79.99465700312896 l 7.674062351061387 -24.038891014165 a46.23409428053404,46.23409428053404 0 0,0 0.754006001739689,0.24785674923402795 l -8.085591090448819 23.90361334352895" fill="#fff517" stroke="none" /><path d="M 106.72888874123014 80.10723608172694 l 17.951836684613635 -53.07141532572402 a77.02538322070215,77.02538322070215 0 0,0 1.2488903996509324,0.43442891050785504 l -18.860232856309587 52.755427982647575" fill="#43ffdf" stroke="none" /><path d="M 107.06938296918511 80.22567764915836 l 7.821240454081554 -21.877401549272594 a44.23343497610021,44.23343497610021 0 0,0 0.7128130597863898,0.2617548290432324 l -8.195642665522069 21.73991587122064" fill="#ffd914" stroke="none" /><path d="M 107.40779381753099 80.34994680014964 l 15.63197730726351 -41.465676998143124 a65.31434399208835,65.31434399208835 0 0,0 1.0457378146275922,0.404513851704841 l -16.341487384384628 41.19122325830025" fill="#32ff4a" stroke="none" /><path d="M 107.74402155503746 80.48000691201159 l 14.38186828229607 -36.25170300309434 a60.000309048953355,60.000309048953355 0 0,0 0.9541350254329936,0.38803840847755183 l -15.002057768919503 35.999477338037494" fill="#56ff2a" stroke="none" /><path d="M 108.07796709384702 80.6158196554323 l 24.233901281541076 -58.152541033703095 a84.0,84.0 0 0,0 1.32625969931828,0.5661014013623937 l -25.228596056029787 57.7279649826813" fill="#4dd2ff" stroke="none" /><path d="M 108.4095320186766 80.7573450057729 l 10.172317966385835 -23.27625421771619 a46.40196967199604,46.40196967199604 0 0,0 0.727155538102541,0.32524742314821875 l -10.570386907344007 23.098203043658117" fill="#fff817" stroke="none" /><path d="M 108.73861861582097 80.90454125486305 l 14.575106988762043 -31.84923915846118 a56.02581588923686,56.02581588923686 0 0,0 0.8710981524949045,0.40771791969184074 l -15.119693855128453 31.594345007198807" fill="#86ff25" stroke="none" /><path d="M 109.06512990194946 81.05736502329252 l 24.40203873309504 -50.99087574123923 a77.5290093950882,77.5290093950882 0 0,0 1.1955702417840106,0.5848133160453919 l -25.27376922414112 50.56446867509661" fill="#44ffe5" stroke="none" /><path d="M 109.3889696526874 81.21577127319529 l 28.03826908623431 -56.095320264324506 a83.71227542442722,83.71227542442722 0 0,0 1.279892040342807,0.6535219953908802 l -28.997088348290692 55.60574031726079" fill="#4dd5ff" stroke="none" /><path d="M 109.71004243097381 81.37971332152246 l 10.69112962566426 -20.501650735492 a44.12180649414867,44.12180649414867 0 0,0 0.6685739187685389,0.35597795416851163 l -11.041492360219358 20.315102313600917" fill="#ffd714" stroke="none" /><path d="M 110.02825361518725 81.54914285379988 l 4.515358795663058 -8.307751608559775 a30.455538157244106,30.455538157244106 0 0,0 0.45720406699546934,0.25360338887961204 l -4.657307050814628 8.229015304247017" fill="#ff0000" stroke="none" /><path d="M 110.34350942703115 81.72400993836675 l 11.261161305900366 -19.897393003890407 a43.86307071040053,43.86307071040053 0 0,0 0.6521133837409064,0.3764978376449701 l -11.60106715750167 19.701148268969266" fill="#ffd313" stroke="none" /><line stroke="#e1ed5e" stroke-width="0.3" x1="143.13028292997686" x2="145.6673583964461" y1="26.7553504044142" y2="22.446841604673864" /><path d="M 143.63769802327073 25.89364864446614 a86.0,86.0 0 0,1 29.32050498858742,28.57503671076993" fill="none" id="id86" stroke="none" /><text fill="#e1ed5e" style="font-size:6.75px; font-family:Arial;" text-anchor="middle"><textPath startOffset="20.669276256404974" xlink:href="#id86">February</textPath></text><path d="M 110.65571695917076 81.90426304109057 l 18.11950485806906 -30.770880551130542 a56.70943217405637,56.70943217405637 0 0,0 0.834620375201369,0.5011655547172689 l -18.645057989827862 30.45530099587735" fill="#7eff26" stroke="none" /><line stroke="#e1ed5e" stroke-width="0.3" x1="172.87174338648825" x2="177.1583165268699" y1="56.24261187166439" y2="53.66864786411523" /><path d="M 173.72905801456457 55.72781907015455 a86.0,86.0 0 0,1 12.242430191666344,42.057860355516425" fill="none" id="id87" stroke="none" /><text fill="#e1ed5e" style="font-size:6.75px; font-family:Arial;" text-anchor="middle"><textPath startOffset="22.145653131862474" xlink:href="#id87">March</textPath></text><line stroke="#e1ed5e" stroke-width="0.3" x1="184.99686870605535" x2="189.99668451229388" y1="99.2704041080226" y2="99.22748670261217" /><path d="M 185.99683186730306 99.26182062694052 a86.0,86.0 0 0,1 -10.086455211305974,41.156179273409016" fill="none" id="id88" stroke="none" /><text fill="#e1ed5e" style="font-size:6.75px; font-family:Arial;" text-anchor="middle"><textPath startOffset="21.40746469413373" xlink:href="#id88">April</textPath></text><line stroke="#e1ed5e" stroke-width="0.3" x1="174.33088141563837" x2="178.70328620479359" y1="141.23008692659167" y2="143.65538615756765" /><path d="M 175.20536237346943 141.71514677278685 a86.0,86.0 0 0,1 -30.301960400862466,31.631185727798858" fill="none" id="id89" stroke="none" /><text fill="#e1ed5e" style="font-size:6.75px; font-family:Arial;" text-anchor="middle"><textPath startOffset="22.145653131862474" xlink:href="#id89">May</textPath></text><line stroke="#e1ed5e" stroke-width="0.3" x1="143.1302829299769" x2="145.66735839644613" y1="173.24464959558577" y2="177.55315839532614" /><path d="M 143.63769802327073 174.10635135553383 a86.0,86.0 0 0,1 -40.68552437913181,11.842963189579606" fill="none" id="id90" stroke="none" /><text fill="#e1ed5e" style="font-size:6.75px; font-family:Arial;" text-anchor="middle"><textPath startOffset="21.407464694133747" xlink:href="#id90">June</textPath></text><line stroke="#e1ed5e" stroke-width="0.3" x1="101.45913802915013" x2="101.54496967792366" y1="184.9874750549273" y2="189.98673829345242" /><path d="M 101.47630435890484 185.9873277026323 a86.0,86.0 0 0,1 -42.54439059252881,-10.42667462771756" fill="none" id="id91" stroke="none" /><text fill="#e1ed5e" style="font-size:6.75px; font-family:Arial;" text-anchor="middle"><textPath startOffset="22.145653131862474" xlink:href="#id91">July</textPath></text><line stroke="#e1ed5e" stroke-width="0.3" x1="58.13341422392154" x2="55.67067388415222" y1="173.97424548756322" y2="178.32567169271397" /><path d="M 57.64086615596768 174.84453072859336 a86.0,86.0 0 0,1 -31.369924170532247,-30.572349798747897" fill="none" id="id92" stroke="none" /><text fill="#e1ed5e" style="font-size:6.75px; font-family:Arial;" text-anchor="middle"><textPath startOffset="22.145653131862474" xlink:href="#id92">August</textPath></text><line stroke="#e1ed5e" stroke-width="0.3" x1="26.387840678322732" x2="22.057713659400548" y1="142.50000000000003" y2="145.00000000000006" /><path d="M 25.521815274538298 143.00000000000003 a86.0,86.0 0 0,1 -11.493303480769221,-40.785679425670985" fill="none" id="id93" stroke="none" /><text fill="#e1ed5e" style="font-size:6.75px; font-family:Arial;" text-anchor="middle"><textPath startOffset="21.40746469413373" xlink:href="#id93">September</textPath></text><line stroke="#e1ed5e" stroke-width="0.3" x1="15.003131293944662" x2="10.003315487706104" y1="100.72959589197737" y2="100.7725132973878" /><path d="M 14.003168132696942 100.73817937305945 a86.0,86.0 0 0,1 10.791469493833604,-42.45332614584628" fill="none" id="id94" stroke="none" /><text fill="#e1ed5e" style="font-size:6.75px; font-family:Arial;" text-anchor="middle"><textPath startOffset="22.145653131862435" xlink:href="#id94">October</textPath></text><line stroke="#e1ed5e" stroke-width="0.3" x1="26.387840678322718" x2="22.05771365940052" y1="57.49999999999999" y2="54.99999999999999" /><path d="M 25.521815274538284 56.99999999999999 a86.0,86.0 0 0,1 29.574782752854787,-30.34633250058573" fill="none" id="id95" stroke="none" /><text fill="#e1ed5e" style="font-size:6.75px; font-family:Arial;" text-anchor="middle"><textPath startOffset="21.40746469413373" xlink:href="#id95">November</textPath></text><line stroke="#e1ed5e" stroke-width="0.3" x1="56.869717070023135" x2="54.33264160355391" y1="26.7553504044142" y2="22.446841604673864" /><path d="M 56.362301976729285 25.89364864446614 a86.0,86.0 0 0,1 42.16139366436587,-11.88097634709845" fill="none" id="id96" stroke="none" /><text fill="#e1ed5e" style="font-size:6.75px; font-family:Arial;" text-anchor="middle"><textPath startOffset="22.145653131862474" xlink:href="#id96">December</textPath></text></svg>