<?xml version="1.0" encoding="utf-8" ?>
<svg baseProfile="full" height="200mm" version="1.1" viewBox="0,0,200,200" width="200mm" xmlns="http://www.w3.org/2000/svg" xmlns:ev="http://www.w3.org/2001/xml-events" xmlns:xlink="http://www.w3.org/1999/xlink"><defs /><rect fill="#1a1a1a" height="200" width="200" x="0" y="0" /><text alignment-baseline="middle" fill="#e1ed5e" style="dominant-baseline: central; font-size:9.0px; font-family:Arial;" text-anchor="middle" x="100.0" y="100.0">2024</text><line stroke="#e1ed5e" stroke-width="0.3" x1="100.0" x2="100.0" y1="15.0" y2="10.0" /><path d="M 100.0 14.0 a86.0,86.0 0 0,1 42.35913384403234,11.155469271406648" fill="none" id="id85" stroke="none" /><text fill="#e1ed5e" style="font-size:6.75px; font-family:Arial;" text-anchor="middle"><textPath startOffset="22.145653131862478" xlink:href="#id85">January</textPath></text><path d="M 100.0 79.0 l 0.0 -23.84881065516801 a44.84881065516801,44.84881065516801 0 0,0 0.7698894728130475,0.006608575176852623 l -0.4093965479641928 23.845296478185592" fill="#ffff18" stroke="none" /><path d="M 100.36049292484886 79.00309439819443 l 0.1675220096721774 -9.757317219987714 a30.758755194961772,30.758755194961772 0 0,0 0.5278593260962686,0.01359578379430494 l -0.33499464983918736 9.753003718843363" fill="#ff3304" stroke="none" /><path d="M 100.72087961077811 79.0123766808444 l 0.5836588000570986 -16.99258913605086 a38.002609892058274,38.002609892058274 0 0,0 0.6517886244312012,0.027990608006916773 l -0.875273185089136 16.980065959618113" fill="#ffa00e" stroke="none" /><path d="M 101.08105385017728 79.02784411241856 l 0.4944409497590999 -9.592022334364954 a30.604757379327953,30.604757379327953 0 0,0 0.5244426092650888,0.03154916506750574 l -0.659027911156651 9.582121191472757" fill="#ff3104" stroke="none" /><path d="M 101.44090949804482 79.04949213459386 l 1.2125950060140829 -17.630865259422503 a38.67251528347116,38.67251528347116 0 0,0 0.6619095734718183,0.05123598719543254 l -1.5150735742611348 17.607451505232017" fill="#ffa90f" stroke="none" /><path d="M 101.80034050326958 79.07731436759882 l 1.9613729313715653 -22.794126542429723 a43.87835633537113,43.87835633537113 0 0,0 0.7499029165101277,0.0710165858646317 l -2.352375411266706 22.757098201059907" fill="#fff216" stroke="none" /><path d="M 102.15924093988457 79.11130261209362 l 1.9024633616942979 -18.404607248756466 a39.50267372094012,39.50267372094012 0 0,0 0.6739233230947865,0.07551451402230519 l -2.2181225863898812 18.36923697422719" fill="#ffb510" stroke="none" /><path d="M 102.51750503828377 79.15144685158666 l 2.8797349514530968 -23.848336458401924 a45.021574162068625,45.021574162068625 0 0,0 0.7664862503013348,0.0992369906908383 l -3.2886990236452234 23.795387871510687" fill="#fdff18" stroke="none" /><path d="M 102.87502721639298 79.19773525538626 l 2.178383339885679 -15.761696686965816 a36.91151898554631,36.91151898554631 0 0,0 0.6269243874299891,0.09213629562525058 l -2.4486328329233498 15.721979318041683" fill="#ff900d" stroke="none" /><path d="M 103.23170211078529 79.25015418208739 l 2.4575256175575015 -15.779077374646196 a36.96930539992341,36.96930539992341 0 0,0 0.6262292203454456,0.10304577989967678 l -2.7280323409560174 15.734565596250851" fill="#ff910d" stroke="none" /><path d="M 103.58742460773223 79.30868818359171 l 2.800390432219903 -16.15190783824646 a37.39287385994525,37.39287385994525 0 0,0 0.63152159861092,0.11508427235820733 l -3.0772467643818766 16.101455391956886" fill="#ff970d" stroke="none" /><path d="M 103.94208987418118 79.37332000966035 l 3.02015716619832 -15.80273849049256 a37.08875051417711,37.08875051417711 0 0,0 0.6243335073346256,0.12488418694657888 l -3.290987159063903 15.748564906883123" fill="#ff930d" stroke="none" /><path d="M 104.29559338865022 79.4440306129975 l 4.7641415391547515 -22.79814190350653 a44.29060580700983,44.29060580700983 0 0,0 0.7428959979016995,0.16191072505611395 l -5.154799953675585 22.712999720316695" fill="#fff717" stroke="none" /><path d="M 104.64783097203109 79.52079915486377 l 3.841031700592147 -16.924294390720306 a38.3546900043971,38.3546900043971 0 0,0 0.6408298798008177,0.15123410674369392 l -4.13099373413285 16.855864140330382" fill="#ffa50f" stroke="none" /><path d="M 104.9986988182912 79.60360301121754 l 2.841418634388445 -11.593957664791379 a32.937064722486205,32.937064722486205 0 0,0 0.5480017176537749,0.13929989368354267 l -3.040025645267614 11.54347253927257" fill="#ff5507" stroke="none" /><path d="M 105.3480935250658 79.69241777938227 l 2.344479914975443 -8.902372109763146 a30.205911972879818,30.205911972879818 0 0,0 0.5002941898046214,0.13635740614069286 l -2.4969555057147574 8.860814209478312" fill="#ff2b04" stroke="none" /><path d="M 105.69591212413111 79.78721728523813 l 4.652726675034206 -16.51088557269289 a38.15392689465398,38.15392689465398 0 0,0 0.6288857039480331,0.18305946294081976 l -4.935472391363843 16.428582415449554" fill="#ffa20f" stroke="none" /><path d="M 106.04205211174951 79.88797359093562 l 3.733935241440748 -12.429056022134807 a33.977815917504714,33.977815917504714 0 0,0 0.5571704374169607,0.1726128257598589 l -3.946746311729339 12.363126608568301" fill="#ff6509" stroke="none" /><path d="M 106.38641147887787 79.99465700312896 l 5.283163221388568 -16.5494335436875 a38.37226422320251,38.37226422320251 0 0,0 0.6257918095914226,0.20571019761744339 l -5.566477768627733 16.45630242466803" fill="#ffa50f" stroke="none" /><path d="M 106.72888874123014 80.10723608172694 l 12.358836687769074 -36.53670464602404 a59.57034651990752,59.57034651990752 0 0,0 0.96587424510984,0.33598120067857423 l -12.984216704923933 36.31916501277688" fill="#4cff2c" stroke="none" /><path d="M 107.06938296918511 80.22567764915836 l 5.3844871232933205 -15.061368797541807 a36.994922057843155,36.994922057843155 0 0,0 0.5961658551468685,0.21892035976746077 l -5.6422421300943135 14.966717588765624" fill="#ff910d" stroke="none" /><path d="M 107.40779381753099 80.34994680014964 l 10.761743104145214 -28.546802155740696 a51.50795024184055,51.50795024184055 0 0,0 0.8246857892100045,0.31900617953495913 l -11.250201155848744 28.3578560880677" fill="#aaff21" stroke="none" /><path d="M 107.74402155503746 80.48000691201159 l 9.90111287711553 -24.957272335969513 a47.84953404916242,47.84953404916242 0 0,0 0.7609113538016165,0.3094560233628214 l -10.328078692107587 24.7836290560274" fill="#d8ff1c" stroke="none" /><path d="M 108.07796709384702 80.6158196554323 l 16.68368721863346 -40.034775841644986 a64.37198053928313,64.37198053928313 0 0,0 1.0163567089827596,0.43382224275905856 l -17.36847900278665 39.74247894922653" fill="#32ff4b" stroke="none" /><path d="M 108.4095320186766 80.7573450057729 l 7.003072648848994 -16.024400713622118 a38.48783705195671,38.48783705195671 0 0,0 0.6031348250893035,0.26977453569718207 l -7.277120876793929 15.901822427015084" fill="#ffa70f" stroke="none" /><path d="M 108.73861861582097 80.90454125486305 l 10.034146931342171 -21.926421920186545 a45.11331754159515,45.11331754159515 0 0,0 0.7014289205728298,0.32830415205055824 l -10.409064565786505 21.750941536565453" fill="#fcff18" stroke="none" /><path d="M 109.06512990194946 81.05736502329252 l 16.799440461121133 -35.10436937031797 a59.917065006170134,59.917065006170134 0 0,0 0.9239774950736505,0.45196369394325864 l -17.399578205456848 34.81081192627749" fill="#48ff2c" stroke="none" /><path d="M 109.3889696526874 81.21577127319529 l 19.30278192322759 -38.61849426744663 a64.17389824257812,64.17389824257812 0 0,0 0.9811662762959351,0.5009904917632085 l -19.962875421237108 38.28144582401058" fill="#32ff49" stroke="none" /><path d="M 109.71004243097381 81.37971332152246 l 7.3602454931311705 -14.114241217824429 a36.91807208408392,36.91807208408392 0 0,0 0.5594163541311191,0.2978576993233651 l -7.601450663048849 13.98581305077849" fill="#ff900d" stroke="none" /><path d="M 110.02825361518725 81.54914285379988 l 3.1085722827520503 -5.71942287447068 a27.5096097927689,27.5096097927689 0 0,0 0.41297925565372634,0.22907263152539395 l -3.206295726561877 5.66521732751214" fill="#ff0000" stroke="none" /><path d="M 110.34350942703115 81.72400993836675 l 7.752680460464107 -13.698243526146076 a36.73994695110707,36.73994695110707 0 0,0 0.5462137223116693,0.31535663961170984 l -7.986686650636174 13.563139989258193" fill="#ff8d0d" stroke="none" /><line stroke="#e1ed5e" stroke-width="0.3" x1="143.13028292997686" x2="145.6673583964461" y1="26.7553504044142" y2="22.446841604673864" /><path d="M 143.63769802327073 25.89364864446614 a86.0,86.0 0 0,1 29.32050498858742,28.57503671076993" fill="none" id="id86" stroke="none" /><text fill="#e1ed5e" style="font-size:6.75px; font-family:Arial;" text-anchor="middle"><textPath startOffset="20.669276256404974" xlink:href="#id86">February</textPath></text><path d="M 110.65571695917076 81.90426304109057 l 12.474266858501867 -21.18403226095619 a45.58394916384165,45.58394916384165 0 0,0 0.6708812149187899,0.4028448935757771 l -12.83608082997809 20.966773366844492" fill="#f6ff19" stroke="none" /><path d="M 110.96478420261332 82.08984904055464 l 6.554670575156925 -10.706561781901312 a33.55365172125218,33.55365172125218 0 0,0 0.48866239554551055,0.30496147613490987 l -6.737497099492148 10.592464508924856" fill="#ff5e08" stroke="none" /><path d="M 111.27062007382361 82.28071324371311 l 20.865538531871284 -32.80409224593362 a59.87774641494447,59.87774641494447 0 0,0 0.8625656475520082,0.5591046315207073 l -21.4255898116803 32.44107377270902" fill="#49ff2c" stroke="none" /><path d="M 111.5731344415666 82.4767994020092 l 34.719403324699805 -52.56960179397238 a84.0,84.0 0 0,0 1.196414847611996,0.8050013037715247 l -35.6167144604088 51.965850816143735" fill="#4dd2ff" stroke="none" /><path d="M 111.8722381534696 82.67804972795209 l 6.098875891181806 -8.898442192348467 a31.787889533481795,31.787889533481795 0 0,0 0.44745981844397387,0.3123617047546629 l -6.250730800799541 8.792435671788677" fill="#ff4306" stroke="none" /><path d="M 112.16784306229584 82.88440491214696 l 22.34087853159278 -31.425243479554172 a59.5572403228323,59.5572403228323 0 0,0 0.8281831020946794,0.5995406982569124 l -22.877042644061426 31.037102009924187" fill="#4cff2c" stroke="none" /><path d="M 112.45986205192187 83.09580414077388 l 6.034375823049607 -8.186789739399673 a31.17040893036978,31.17040893036978 0 0,0 0.42799496426196587,0.32117540023485003 l -6.174023776222339 8.081995311900808" fill="#ff3a05" stroke="none" /><path d="M 112.7482090630111 83.31218511350987 l 26.24032434132736 -34.34942688852502 a64.22542942653297,64.22542942653297 0 0,0 0.8703770722058763,0.6768104757759458 l -26.82611135816846 33.89391536112828" fill="#32ff49" stroke="none" /><path d="M 113.03279911837588 83.53348406188908 l 6.508358158900718 -8.223097922484376 a31.487042736982453,31.487042736982453 0 0,0 0.4209506186761354,0.3390880208746883 l -6.648559547932113 8.11016160781628" fill="#ff3f05" stroke="none" /><path d="M 113.31354834802062 83.75963576809568 l 13.683678626486465 -16.691862989291213 a42.58382150607793,42.58382150607793 0 0,0 0.5613473686833875,0.4682959399666844 l -13.968200329331745 16.454504865412655" fill="#ffe015" stroke="none" /><path d="M 113.59037401385872 83.9905735841838 l 37.309577578847126 -43.95058857428351 a78.651182252734,78.651182252734 0 0,0 1.021793164736047,0.88260059935445 l -38.05855022334603 43.30364384246434" fill="#46fff5" stroke="none" /><path d="M 113.86319453409587 84.22622945171908 l 7.154093467319271 -8.140045106985099 a31.837037772513867,31.837037772513867 0 0,0 0.40741549961046153,0.3643134520003114 l -7.292773993753108 8.016036125101401" fill="#ff4406" stroke="none" /><path d="M 114.13192950727249 84.46653392183569 l 25.822978663769007 -28.383977071524043 a59.3728599594332,59.3728599594332 0 0,0 0.7480138636767227,0.692350465020613 l -26.306422298759692 27.936508860371056" fill="#4eff2b" stroke="none" /><path d="M 114.39649973595853 84.71141617570332 l 10.24750778357196 -10.882498149738021 a35.94791563240238,35.94791563240238 0 0,0 0.445630072138419,0.42690352854855057 l -10.43281034157569 10.704982490883891" fill="#ff820c" stroke="none" /><path d="M 114.65682725009322 84.96080404539774 l 33.47197649074492 -34.34519659969053 a68.95795804314832,68.95795804314832 0 0,0 0.8406568776373814,0.8334718192935447 l -34.056625288512265 33.765544770168326" fill="#38ff85" stroke="none" /><path d="M 114.91283532996326 85.21462403516908 l 8.989879597784972 -8.913043481728119 a33.65939490219997,33.65939490219997 0 0,0 0.40329276298431393,0.41381390297517895 l -9.141559161920098 8.757406886685198" fill="#ff6008" stroke="none" /><line stroke="#e1ed5e" stroke-width="0.3" x1="172.87174338648825" x2="177.1583165268699" y1="56.24261187166439" y2="53.66864786411523" /><path d="M 173.72905801456457 55.72781907015455 a86.0,86.0 0 0,1 12.242430191666344,42.057860355516425" fill="none" id="id87" stroke="none" /><text fill="#e1ed5e" style="font-size:6.75px; font-family:Arial;" text-anchor="middle"><textPath startOffset="22.145653131862474" xlink:href="#id87">March</textPath></text><line stroke="#e1ed5e" stroke-width="0.3" x1="184.99686870605535" x2="189.99668451229388" y1="99.2704041080226" y2="99.22748670261217" /><path d="M 185.99683186730306 99.26182062694052 a86.0,86.0 0 0,1 -10.086455211305974,41.156179273409016" fill="none" id="id88" stroke="none" /><text fill="#e1ed5e" style="font-size:6.75px; font-family:Arial;" text-anchor="middle"><textPath startOffset="21.40746469413373" xlink:href="#id88">April</textPath></text><line stroke="#e1ed5e" stroke-width="0.3" x1="174.33088141563837" x2="178.70328620479359" y1="141.23008692659167" y2="143.65538615756765" /><path d="M 175.20536237346943 141.71514677278685 a86.0,86.0 0 0,1 -30.301960400862466,31.631185727798858" fill="none" id="id89" stroke="none" /><text fill="#e1ed5e" style="font-size:6.75px; font-family:Arial;" text-anchor="middle"><textPath startOffset="22.145653131862474" xlink:href="#id89">May</textPath></text><line stroke="#e1ed5e" stroke-width="0.3" x1="143.1302829299769" x2="145.66735839644613" y1="173.24464959558577" y2="177.55315839532614" /><path d="M 143.63769802327073 174.10635135553383 a86.0,86.0 0 0,1 -40.68552437913181,11.842963189579606" fill="none" id="id90" stroke="none" /><text fill="#e1ed5e" style="font-size:6.75px; font-family:Arial;" text-anchor="middle"><textPath startOffset="21.407464694133747" xlink:href="#id90">June</textPath></text><line stroke="#e1ed5e" stroke-width="0.3" x1="101.45913802915013" x2="101.54496967792366" y1="184.9874750549273" y2="189.98673829345242" /><path d="M 101.47630435890484 185.9873277026323 a86.0,86.0 0 0,1 -42.54439059252881,-10.42667462771756" fill="none" id="id91" stroke="none" /><text fill="#e1ed5e" style="font-size:6.75px; font-family:Arial;" text-anchor="middle"><textPath startOffset="22.145653131862474" xlink:href="#id91">July</textPath></text><line stroke="#e1ed5e" stroke-width="0.3" x1="58.13341422392154" x2="55.67067388415222" y1="173.97424548756322" y2="178.32567169271397" /><path d="M 57.64086615596768 174.84453072859336 a86.0,86.0 0 0,1 -31.369924170532247,-30.572349798747897" fill="none" id="id92" stroke="none" /><text fill="#e1ed5e" style="font-size:6.75px; font-family:Arial;" text-anchor="middle"><textPath startOffset="22.145653131862474" xlink:href="#id92">August</textPath></text><line stroke="#e1ed5e" stroke-width="0.3" x1="26.387840678322732" x2="22.057713659400548" y1="142.50000000000003" y2="145.00000000000006" /><path d="M 25.521815274538298 143.00000000000003 a86.0,86.0 0 0,1 -11.493303480769221,-40.785679425670985" fill="none" id="id93" stroke="none" /><text fill="#e1ed5e" style="font-size:6.75px; font-family:Arial;" text-anchor="middle"><textPath startOffset="21.40746469413373" xlink:href="#id93">September</textPath></text><line stroke="#e1ed5e" stroke-width="0.3" x1="15.003131293944662" x2="10.003315487706104" y1="100.72959589197737" y2="100.7725132973878" /><path d="M 14.003168132696942 100.73817937305945 a86.0,86.0 0 0,1 10.791469493833604,-42.45332614584628" fill="none" id="id94" stroke="none" /><text fill="#e1ed5e" style="font-size:6.75px; font-family:Arial;" text-anchor="middle"><textPath startOffset="22.145653131862435" xlink:href="#id94">October</textPath></text><line stroke="#e1ed5e" stroke-width="0.3" x1="26.387840678322718" x2="22.05771365940052" y1="57.49999999999999" y2="54.99999999999999" /><path d="M 25.521815274538284 56.99999999999999 a86.0,86.0 0 0,1 29.574782752854787,-30.34633250058573" fill="none" id="id95" stroke="none" /><text fill="#e1ed5e" style="font-size:6.75px; font-family:Arial;" text-anchor="middle"><textPath startOffset="21.40746469413373" xlink:href="#id95">November</textPath></text><line stroke="#e1ed5e" stroke-width="0.3" x1="56.869717070023135" x2="54.33264160355391" y1="26.7553504044142" y2="22.446841604673864" /><path d="M 56.362301976729285 25.89364864446614 a86.0,86.0 0 0,1 42.16139366436587,-11.88097634709845" fill="none" id="id96" stroke="none" /><text fill="#e1ed5e" style="font-size:6.75px; font-family:Arial;" text-anchor="middle"><textPath startOffset="22.145653131862474" xlink:href="#id96">December</textPath></text></svg>