<?xml version="1.0" encoding="utf-8" ?>
<svg baseProfile="full" height="200mm" version="1.1" viewBox="0,0,200,200" width="200mm" xmlns="http://www.w3.org/2000/svg" xmlns:ev="http://www.w3.org/2001/xml-events" xmlns:xlink="http://www.w3.org/1999/xlink"><defs /><rect fill="#1a1a1a" height="200" width="200" x="0" y="0" /><text alignment-baseline="middle" fill="#e1ed5e" style="dominant-baseline: central; font-size:9.0px; font-family:Arial;" text-anchor="middle" x="100.0" y="100.0">2026</text><line stroke="#e1ed5e" stroke-width="0.3" x1="100.0" x2="100.0" y1="15.0" y2="10.0" /><path d="M 100.0 14.0 a86.0,86.0 0 0,1 42.46469731375804,11.215312516191453" fill="none" id="id109" stroke="none" /><text fill="#e1ed5e" style="font-size:6.75px; font-family:Arial;" text-anchor="middle"><textPath startOffset="22.20632615414155" xlink:href="#id109">January</textPath></text><path d="M 100.0 79.0 l 0.0 -6.67962560266777 a27.67962560266777,27.67962560266777 0 0,0 0.4764592537588806,0.004101035220657509 l -0.11497877448635221 6.678635944055671" fill="#ff0000" stroke="none" /><path d="M 100.36148047927253 79.00311137660856 l 0.7296108641140536 -42.380042438389616 a63.38632242944342,63.38632242944342 0 0,0 1.0907680294738566,0.028171320122162218 l -1.4590055287827781 42.3612043261251" fill="#31ff3e" stroke="none" /><path d="M 100.72285384407766 79.0124445844662 l 1.035278297152438 -30.058580735239047 a51.07640398999586,51.07640398999586 0 0,0 0.8784148356939586,0.03782639061967263 l -1.552533965235728 30.036306618095182" fill="#b1ff20" stroke="none" /><path d="M 101.08401301168833 79.027996857942 l 1.8946702595462106 -36.65549233074282 a57.704426073725145,57.704426073725145 0 0,0 0.9915212798728124,0.05981127132909203 l -2.525353588258635 36.617447790033424" fill="#62ff29" stroke="none" /><path d="M 101.44485096284872 79.0497635885617 l 2.27371405404493 -32.968692404324244 a54.047003713657745,54.047003713657745 0 0,0 0.9275747797129634,0.07199765516136475 l -2.8408790231202343 32.924669486974416" fill="#8dff24" stroke="none" /><path d="M 101.80526077348638 79.07773832637324 l 2.8217138681405016 -32.702552885655265 a53.82406182045019,53.82406182045019 0 0,0 0.9223774955772072,0.08759085736644147 l -3.384216490807953 32.649136483773646" fill="#8fff24" stroke="none" /><path d="M 102.16513564639614 79.11191278185805 l 4.006628771856463 -38.6538420244284 a59.86093896658874,59.86093896658874 0 0,0 1.024002020760515,0.11505855836861487 l -4.671397496126704 38.57914751258919" fill="#4aff2c" stroke="none" /><path d="M 102.52436894288641 79.15227682838746 l 4.974822436981955 -41.08500910153753 a62.38510397658705,62.38510397658705 0 0,0 1.0649590921958598,0.13826225469762118 l -5.681296257685661 40.99328852367577" fill="#2fff30" stroke="none" /><path d="M 102.88285421437855 79.19881850522331 l 3.676580724504248 -26.528300511753816 a47.78185904424325,47.78185904424325 0 0,0 0.8137273793812841,0.11992226327022436 l -4.132677084314188 26.46108376432262" fill="#daff1b" stroke="none" /><path d="M 103.2404852339499 79.25152402106235 l 6.019454141081725 -38.54191290367771 a60.00913839642276,60.00913839642276 0 0,0 1.019214620513058,0.16817914535251136 l -6.681997967733658 38.432587495385576" fill="#48ff2c" stroke="none" /><path d="M 103.59715602781102 79.31037775812273 l 7.976126065467677 -45.8759736781666 a67.56418739688333,67.56418739688333 0 0,0 1.144102603669029,0.20907743790071245 l -8.764623790239607 45.73188075891515" fill="#37ff73" stroke="none" /><path d="M 103.95276090670814 79.375362276772 l 5.891947905291122 -30.74288931175531 a52.3024007602213,52.3024007602213 0 0,0 0.8827489378540281,0.17707113246267364 l -6.420263252612276 30.636914223215427" fill="#a2ff22" stroke="none" /><path d="M 104.307194497241 79.44645832069477 l 8.016317502559138 -38.25314041632749 a60.084064502212456,60.084064502212456 0 0,0 1.0104345019707173,0.2208418456718028 l -8.673594728683385 38.10948507255982" fill="#47ff2c" stroke="none" /><path d="M 104.66035177308747 79.52364482259891 l 8.926515311533345 -39.22075133276319 a61.22374933684682,61.22374933684682 0 0,0 1.025574514859363,0.24272035268358477 l -9.600313513355232 39.06128506793874" fill="#3bff2e" stroke="none" /><path d="M 105.01212808612495 79.60689891045804 l 2.7831893266518914 -11.324104315464071 a32.661109783185346,32.661109783185346 0 0,0 0.5448045925110664,0.1388828212113395 l -2.9777028078479826 11.274518498083863" fill="#ff4e07" stroke="none" /><path d="M 105.36241919743992 79.69619591428918 l 15.325985330038419 -58.02899626163816 a81.01874901620134,81.01874901620134 0 0,0 1.3453051806858956,0.36772272507907 l -16.322588399948025 57.7565869957328" fill="#49f0ff" stroke="none" /><path d="M 105.71112130821622 79.79150937346287 l 17.13336392464865 -60.62547187961136 a84.0,84.0 0 0,0 1.3880391291062915,0.40520668432518603 l -18.174393271478365 60.321566866367476" fill="#4dd2ff" stroke="none" /><path d="M 106.0581310904928 79.89281104454417 l 11.297104700633307 -37.49556017724349 a60.16045974733135,60.16045974733135 0 0,0 0.9889652709155634,0.3072763237097291 l -11.940855344259589 37.295543718651246" fill="#47ff2c" stroke="none" /><line stroke="#e1ed5e" stroke-width="0.3" x1="143.23703022742887" x2="145.7803849466894" y1="26.81831364943548" y2="22.513508569990506" /><path d="M 143.74570117128098 25.957352633546492 a86.0,86.0 0 0,1 28.547481713284135,27.462654790039103" fill="none" id="id110" stroke="none" /><text fill="#e1ed5e" style="font-size:6.75px; font-family:Arial;" text-anchor="middle"><textPath startOffset="19.985693538727396" xlink:href="#id110">February</textPath></text><line stroke="#e1ed5e" stroke-width="0.3" x1="172.23445277983987" x2="176.4835382374775" y1="55.19839476539836" y2="52.563006222186495" /><path d="M 173.08426987136738 54.67131705675599 a86.0,86.0 0 0,1 12.851231095245387,41.99856678651699" fill="none" id="id111" stroke="none" /><text fill="#e1ed5e" style="font-size:6.75px; font-family:Arial;" text-anchor="middle"><textPath startOffset="22.20632615414155" xlink:href="#id111">March</textPath></text><line stroke="#e1ed5e" stroke-width="0.3" x1="184.98032266829074" x2="189.97916517819016" y1="98.17113171792111" y2="98.06355123074" /><path d="M 185.9800911702706 98.14961562048488 a86.0,86.0 0 0,1 -9.607161424134198,41.387399972396054" fill="none" id="id112" stroke="none" /><text fill="#e1ed5e" style="font-size:6.75px; font-family:Arial;" text-anchor="middle"><textPath startOffset="21.466115282336823" xlink:href="#id112">April</textPath></text><line stroke="#e1ed5e" stroke-width="0.3" x1="174.80103733775053" x2="179.2010983576182" y1="140.37084112569926" y2="142.7455964860345" /><path d="M 175.68104954172406 140.8457921977663 a86.0,86.0 0 0,1 -30.038265399797805,32.042727171017184" fill="none" id="id113" stroke="none" /><text fill="#e1ed5e" style="font-size:6.75px; font-family:Arial;" text-anchor="middle"><textPath startOffset="22.206326154141568" xlink:href="#id113">May</textPath></text><line stroke="#e1ed5e" stroke-width="0.3" x1="143.8653032363475" x2="146.44561519142675" y1="172.8068346515853" y2="177.08958963109032" /><path d="M 144.38136562736335 173.6633856474863 a86.0,86.0 0 0,1 -40.68145358897372,12.25698825130547" fill="none" id="id114" stroke="none" /><text fill="#e1ed5e" style="font-size:6.75px; font-family:Arial;" text-anchor="middle"><textPath startOffset="21.466115282336833" xlink:href="#id114">June</textPath></text><line stroke="#e1ed5e" stroke-width="0.3" x1="102.19456741930631" x2="102.32365962044197" y1="184.97166512339345" y2="189.96999836594603" /><path d="M 102.22038585953345 185.97133177190398 a86.0,86.0 0 0,1 -42.740103519485714,-10.115201625700543" fill="none" id="id115" stroke="none" /><text fill="#e1ed5e" style="font-size:6.75px; font-family:Arial;" text-anchor="middle"><textPath startOffset="22.20632615414155" xlink:href="#id115">July</textPath></text><line stroke="#e1ed5e" stroke-width="0.3" x1="58.666819895761336" x2="56.23545636021788" y1="174.27360380694188" y2="178.64263932499728" /><path d="M 58.180547188652646 175.14741091055294 a86.0,86.0 0 0,1 -31.652253787137756,-30.449443065178592" fill="none" id="id116" stroke="none" /><text fill="#e1ed5e" style="font-size:6.75px; font-family:Arial;" text-anchor="middle"><textPath startOffset="22.20632615414155" xlink:href="#id116">August</textPath></text><line stroke="#e1ed5e" stroke-width="0.3" x1="26.63291911575756" x2="22.317208475507996" y1="142.92168965132927" y2="145.44649492493687" /><path d="M 25.769776987707644 143.4266507060508 a86.0,86.0 0 0,1 -11.730757126820373,-40.83630448921669" fill="none" id="id117" stroke="none" /><text fill="#e1ed5e" style="font-size:6.75px; font-family:Arial;" text-anchor="middle"><textPath startOffset="21.46611528233685" xlink:href="#id117">September</textPath></text><line stroke="#e1ed5e" stroke-width="0.3" x1="15.007084014347285" x2="10.007500721073583" y1="101.09737516637583" y2="101.16192664675087" /><path d="M 14.007167355692545 101.11028546245083 a86.0,86.0 0 0,1 10.666146001902534,-42.60595125391555" fill="none" id="id118" stroke="none" /><text fill="#e1ed5e" style="font-size:6.75px; font-family:Arial;" text-anchor="middle"><textPath startOffset="22.20632615414155" xlink:href="#id118">October</textPath></text><line stroke="#e1ed5e" stroke-width="0.3" x1="26.266209847984243" x2="21.928928074336255" y1="57.711370442889674" y2="55.22380399835377" /><path d="M 25.398753493254645 57.213857153982495 a86.0,86.0 0 0,1 29.58750427330803,-30.492523968695096" fill="none" id="id119" stroke="none" /><text fill="#e1ed5e" style="font-size:6.75px; font-family:Arial;" text-anchor="middle"><textPath startOffset="21.46611528233685" xlink:href="#id119">November</textPath></text><line stroke="#e1ed5e" stroke-width="0.3" x1="56.762969772571076" x2="54.21961505331055" y1="26.818313649435495" y2="22.513508569990535" /><path d="M 56.25429882871897 25.957352633546506 a86.0,86.0 0 0,1 42.265352541879196,-11.944610805530505" fill="none" id="id120" stroke="none" /><text fill="#e1ed5e" style="font-size:6.75px; font-family:Arial;" text-anchor="middle"><textPath startOffset="22.20632615414155" xlink:href="#id120">December</textPath></text></svg>