<?xml version="1.0" encoding="utf-8" ?>
<svg baseProfile="full" height="200mm" version="1.1" viewBox="0,0,200,200" width="200mm" xmlns="http://www.w3.org/2000/svg" xmlns:ev="http://www.w3.org/2001/xml-events" xmlns:xlink="http://www.w3.org/1999/xlink"><defs /><rect fill="#1a1a1a" height="200" width="200" x="0" y="0" /><text alignment-baseline="middle" fill="#e1ed5e" style="dominant-baseline: central; font-size:9.0px; font-family:Arial;" text-anchor="middle" x="100.0" y="100.0">2026</text><line stroke="#e1ed5e" stroke-width="0.3" x1="100.0" x2="100.0" y1="15.0" y2="10.0" /><path d="M 100.0 14.0 a86.0,86.0 0 0,1 42.46469731375804,11.215312516191453" fill="none" id="id109" stroke="none" /><text fill="#e1ed5e" style="font-size:6.75px; font-family:Arial;" text-anchor="middle"><textPath startOffset="22.20632615414155" xlink:href="#id109">January</textPath></text><path d="M 100.0 79.0 l 0.0 -5.7113848899346 a26.7113848899346,26.7113848899346 0 0,0 0.4597925815260253,0.003957579910893111 l -0.09831210225349694 5.710538686632265" fill="#ff2503" stroke="none" /><path d="M 100.36148047927253 79.00311137660856 l 0.6238506037177955 -36.236871407992375 a57.24224108709524,57.24224108709524 0 0,0 0.9850391081252473,0.025440654014429572 l -1.2475163470379107 36.22076396183559" fill="#56ff2b" stroke="none" /><path d="M 100.72285384407766 79.0124445844662 l 0.8852102161043455 -25.701459039194944 a46.71669873584304,46.71669873584304 0 0,0 0.8034363823312114,0.03459766069650646 l -1.3274874308248885 25.682413651974244" fill="#ccff1d" stroke="none" /><path d="M 101.08401301168833 79.027996857942 l 1.6200295848106858 -31.342119676184332 a52.38396026080716,52.38396026080716 0 0,0 0.9001009949608021,0.05429655008523073 l -2.1592926286111 31.309589856718798" fill="#8bff24" stroke="none" /><path d="M 101.44485096284872 79.0497635885617 l 1.9441293366978027 -28.189737395424583 a49.256697140692296,49.256697140692296 0 0,0 0.8453617566244487,0.0656163422844322 l -2.4290812826845927 28.152095790951687" fill="#aeff20" stroke="none" /><path d="M 101.80526077348638 79.07773832637324 l 2.4126942000731386 -27.96217595471548 a49.066071642207696,49.066071642207696 0 0,0 0.8408402998295461,0.07984791815008112 l -2.8936596269929287 27.91650249205022" fill="#b1ff20" stroke="none" /><path d="M 102.16513564639614 79.11191278185805 l 3.4258505473748175 -33.05079991131051 a54.227877253150425,54.227877253150425 0 0,0 0.9276409098723434,0.10423126479222433 l -3.9942581607568863 32.986932693047684" fill="#76ff27" stroke="none" /><path d="M 102.52436894288641 79.15227682838746 l 4.253700339931997 -35.12955877222061 a56.38615359307705,56.38615359307705 0 0,0 0.9625526466291673,0.12496695897839734 l -4.857767715069009 35.05113349007807" fill="#5fff29" stroke="none" /><path d="M 102.88285421437855 79.19881850522331 l 3.1436443965020793 -22.682908251319088 a43.89971237438188,43.89971237438188 0 0,0 0.7476142331113784,0.11017890408937578 l -3.5336276100421133 22.625434863068744" fill="#efff19" stroke="none" /><path d="M 103.2404852339499 79.25152402106235 l 5.146908146064002 -32.95509540225183 a54.35459453262084,54.35459453262084 0 0,0 0.923176018188068,0.1523319530783896 l -5.7134133703909455 32.861617186233815" fill="#75ff27" stroke="none" /><path d="M 103.59715602781102 79.31037775812273 l 6.819951985382464 -39.2260522463822 a60.814506400542356,60.814506400542356 0 0,0 1.0298064373215108,0.18819054406341312 l -7.494153543806876 39.10284622096805" fill="#31ff2f" stroke="none" /><path d="M 103.95276090670814 79.375362276772 l 5.0378844923765795 -26.286574118460262 a47.764981954857234,47.764981954857234 0 0,0 0.8061673359999055,0.161709583573042 l -5.489618237843611 26.195960578810013" fill="#c0ff1e" stroke="none" /><path d="M 104.307194497241 79.44645832069477 l 6.854317499284509 -32.70818173987199 a54.418659774286176,54.418659774286176 0 0,0 0.9151593162429951,0.20001838029943395 l -7.416319539681032 32.58534986147668" fill="#74ff27" stroke="none" /><path d="M 104.66035177308747 79.52364482259891 l 7.632578186672533 -33.535533255690396 a55.393142347264316,55.393142347264316 0 0,0 0.9279045420228926,0.219605025703453 l -8.208706415657948 33.399182317846076" fill="#69ff28" stroke="none" /><path d="M 105.01212808612495 79.60689891045804 l 2.3797539580239695 -9.682626261800314 a30.97078132477269,30.97078132477269 0 0,0 0.5166090194546523,0.1316951418386373 l -2.546071866163647 9.64022812379281" fill="#ff6309" stroke="none" /><path d="M 105.36241919743992 79.69619591428918 l 13.104417259910676 -49.61744147672344 a72.3187709363535,72.3187709363535 0 0,0 1.2008432416311152,0.32823582005403584 l -13.956558390765501 49.38451911584311" fill="#3effb5" stroke="none" /><path d="M 105.71112130821622 79.79150937346287 l 14.6498084853598 -51.837546688257 a74.86787665496891,74.86787665496891 0 0,0 1.2371374084547655,0.3611543340693685 l -15.539936111537992 51.577694025268926" fill="#41ffd1" stroke="none" /><path d="M 106.0581310904928 79.89281104454417 l 18.174393271478365 -60.321566866367476 a84.0,84.0 0 0,0 1.380858509157127,0.4290394604699177 l -19.21003715334621 59.99978727101504" fill="#4dd2ff" stroke="none" /><path d="M 106.40334571778207 80.00007090966166 l 4.717379467844226 -14.73405607120361 a36.470813726272134,36.470813726272134 0 0,0 0.5962408018583929,0.1965712180434224 l -4.970303091945036 14.650671128900951" fill="#ffaf10" stroke="none" /><path d="M 106.74666289553966 80.11325718540242 l 6.5379316223044555 -19.271477873624146 a41.350292610464194,41.350292610464194 0 0,0 0.672076143104803,0.23447416976826904 l -6.868689769472532 19.15608285068367" fill="#ffef16" stroke="none" /><path d="M 107.08798089147638 80.2323363322302 l 12.589002829468045 -35.10945890737181 a58.29821841601532,58.29821841601532 0 0,0 0.9417040982230033,0.3468375667433378 l -13.191489253463626 34.887558072822145" fill="#4bff2c" stroke="none" /><path d="M 107.4271985657038 80.35727306442388 l 11.868919362116552 -31.389754829900046 a54.55872397910353,54.55872397910353 0 0,0 0.875581356052107,0.3397119631756936 l -12.407483883168325 31.180800162833805" fill="#73ff27" stroke="none" /><path d="M 107.76421540070413 80.48803036053334 l 12.611954043689936 -31.694646747243702 a55.11175775642048,55.11175775642048 0 0,0 0.8784187760195826,0.3583290745203287 l -13.155656689297906 31.472856786539797" fill="#6dff28" stroke="none" /><path d="M 108.09893153111575 80.62456947434976 l 20.898346336587657 -49.996034166959845 a75.18804584064443,75.18804584064443 0 0,0 1.1898194691834512,0.5094186025601053 l -21.755849563561423 49.62889603643695" fill="#42ffd4" stroke="none" /><path d="M 108.43124777332544 80.76684994638697 l 13.33851321457087 -30.427480373614653 a54.22269550566279,54.22269550566279 0 0,0 0.8516006934618352,0.3820884075919403 l -13.860296026499487 30.193371635506182" fill="#76ff27" stroke="none" /><path d="M 108.76106565485865 80.91482961587045 l 10.177126695923638 -22.16992825580073 a45.39425396793747,45.39425396793747 0 0,0 0.7073328085766106,0.3321022379241995 l -10.557237715799847 21.991461035236526" fill="#dcff1b" stroke="none" /><path d="M 109.08828744355905 81.06846463323043 l 7.623527764856554 -15.880338996343692 a38.61542909554953,38.61542909554953 0 0,0 0.596753156106057,0.29282418203073973 l -7.895752187973042 15.74675965417812" fill="#ffcc13" stroke="none" /><path d="M 109.41281617654863 81.2277094730956 l 7.707057618195214 -15.370439834659722 a38.19445136784176,38.19445136784176 0 0,0 0.5851744838049712,0.2997490989051671 l -7.970492589588941 15.235498210442055" fill="#ffc612" stroke="none" /><path d="M 109.73455568895987 81.39251694778311 l 15.579957232506459 -29.780895956752605 a54.61007038602648,54.61007038602648 0 0,0 0.8291757834296251,0.4429169873322321 l -16.090278062464396 29.50830024291862" fill="#72ff27" stroke="none" /><path d="M 110.05341064243156 81.56283822128135 l 5.056673914513025 -9.273540924570653 a31.56259969692136,31.56259969692136 0 0,0 0.47475547288189257,0.2642009066519289 l -5.215553476466953 9.185124620358545" fill="#ff6b09" stroke="none" /><path d="M 110.36928655335952 81.73862282372117 l 15.846542942071547 -27.90738746741571 a53.092603485404375,53.092603485404375 0 0,0 0.7908352310551041,0.4581028107092304 l -16.32457490559198 27.63048049931643" fill="#83ff25" stroke="none" /><line stroke="#e1ed5e" stroke-width="0.3" x1="143.23703022742887" x2="145.7803849466894" y1="26.81831364943548" y2="22.513508569990506" /><path d="M 143.74570117128098 25.957352633546492 a86.0,86.0 0 0,1 28.547481713284135,27.462654790039103" fill="none" id="id110" stroke="none" /><text fill="#e1ed5e" style="font-size:6.75px; font-family:Arial;" text-anchor="middle"><textPath startOffset="19.985693538727396" xlink:href="#id110">February</textPath></text><path d="M 110.68208982089419 81.91981866633111 l 8.753905728014546 -14.816595403529082 a38.20936851970011,38.20936851970011 0 0,0 0.563384281884228,0.33943272608549196 l -9.007652076116411 14.663716067984975" fill="#ffc612" stroke="none" /><path d="M 110.99172775467656 82.1063720568725 l 4.93892987289972 -8.040171259269524 a30.435962174988035,30.435962174988035 0 0,0 0.44404742331136043,0.27806245574058497 l -5.076596448583344 7.953964462205994" fill="#ff5b08" stroke="none" /><path d="M 111.2981086023043 82.29822771554956 l 12.057180562255327 -18.891079225598464 a43.4109008613814,43.4109008613814 0 0,0 0.6264254476861029,0.40744453633249267 l -12.38057303572571 18.680735765106444" fill="#f5ff19" stroke="none" /><path d="M 111.60114157652 82.49532879139004 l 9.205624507933631 -13.890135657635655 a37.66371480698676,37.66371480698676 0 0,0 0.5373272451135264,0.3628057544777912 l -9.4433564474537 13.729617990859193" fill="#ffbf11" stroke="none" /><path d="M 111.90073688211348 82.69761687909136 l 5.358410478372449 -7.790548764693497 a30.455432983729462,30.455432983729462 0 0,0 0.4293764446180605,0.30080563909584135 l -5.491718062574161 7.697158282833721" fill="#ff5c08" stroke="none" /><path d="M 112.19680574252982 82.90503203632743 l 29.510107290096595 -41.36118500023806 a71.8093894560536,71.8093894560536 0 0,0 1.0000472512475111,0.7265768580461747 l -30.217699857697898 40.84708890737521" fill="#3dffaf" stroke="none" /><path d="M 112.48926042617603 83.11751280151076 l 1.9212211483170116 -2.597030595498578 a24.23042700191418,24.23042700191418 0 0,0 0.33317280918473585,0.25093885248123343 l -1.9656401112601305 2.5635751535114975" fill="#ff0000" stroke="none" /><path d="M 112.77801427241765 83.33499621200491 l 19.153740702095337 -24.980185070203504 a52.478173851491476,52.478173851491476 0 0,0 0.7121224339218439,0.555822855174877 l -19.58089569117661 24.646783825805404" fill="#8aff24" stroke="none" /><line stroke="#e1ed5e" stroke-width="0.3" x1="172.23445277983987" x2="176.4835382374775" y1="55.19839476539836" y2="52.563006222186495" /><path d="M 173.08426987136738 54.67131705675599 a86.0,86.0 0 0,1 12.851231095245387,41.99856678651699" fill="none" id="id111" stroke="none" /><text fill="#e1ed5e" style="font-size:6.75px; font-family:Arial;" text-anchor="middle"><textPath startOffset="22.20632615414155" xlink:href="#id111">March</textPath></text><line stroke="#e1ed5e" stroke-width="0.3" x1="184.98032266829074" x2="189.97916517819016" y1="98.17113171792111" y2="98.06355123074" /><path d="M 185.9800911702706 98.14961562048488 a86.0,86.0 0 0,1 -9.607161424134198,41.387399972396054" fill="none" id="id112" stroke="none" /><text fill="#e1ed5e" style="font-size:6.75px; font-family:Arial;" text-anchor="middle"><textPath startOffset="21.466115282336823" xlink:href="#id112">April</textPath></text><line stroke="#e1ed5e" stroke-width="0.3" x1="174.80103733775053" x2="179.2010983576182" y1="140.37084112569926" y2="142.7455964860345" /><path d="M 175.68104954172406 140.8457921977663 a86.0,86.0 0 0,1 -30.038265399797805,32.042727171017184" fill="none" id="id113" stroke="none" /><text fill="#e1ed5e" style="font-size:6.75px; font-family:Arial;" text-anchor="middle"><textPath startOffset="22.206326154141568" xlink:href="#id113">May</textPath></text><line stroke="#e1ed5e" stroke-width="0.3" x1="143.8653032363475" x2="146.44561519142675" y1="172.8068346515853" y2="177.08958963109032" /><path d="M 144.38136562736335 173.6633856474863 a86.0,86.0 0 0,1 -40.68145358897372,12.25698825130547" fill="none" id="id114" stroke="none" /><text fill="#e1ed5e" style="font-size:6.75px; font-family:Arial;" text-anchor="middle"><textPath startOffset="21.466115282336833" xlink:href="#id114">June</textPath></text><line stroke="#e1ed5e" stroke-width="0.3" x1="102.19456741930631" x2="102.32365962044197" y1="184.97166512339345" y2="189.96999836594603" /><path d="M 102.22038585953345 185.97133177190398 a86.0,86.0 0 0,1 -42.740103519485714,-10.115201625700543" fill="none" id="id115" stroke="none" /><text fill="#e1ed5e" style="font-size:6.75px; font-family:Arial;" text-anchor="middle"><textPath startOffset="22.20632615414155" xlink:href="#id115">July</textPath></text><line stroke="#e1ed5e" stroke-width="0.3" x1="58.666819895761336" x2="56.23545636021788" y1="174.27360380694188" y2="178.64263932499728" /><path d="M 58.180547188652646 175.14741091055294 a86.0,86.0 0 0,1 -31.652253787137756,-30.449443065178592" fill="none" id="id116" stroke="none" /><text fill="#e1ed5e" style="font-size:6.75px; font-family:Arial;" text-anchor="middle"><textPath startOffset="22.20632615414155" xlink:href="#id116">August</textPath></text><line stroke="#e1ed5e" stroke-width="0.3" x1="26.63291911575756" x2="22.317208475507996" y1="142.92168965132927" y2="145.44649492493687" /><path d="M 25.769776987707644 143.4266507060508 a86.0,86.0 0 0,1 -11.730757126820373,-40.83630448921669" fill="none" id="id117" stroke="none" /><text fill="#e1ed5e" style="font-size:6.75px; font-family:Arial;" text-anchor="middle"><textPath startOffset="21.46611528233685" xlink:href="#id117">September</textPath></text><line stroke="#e1ed5e" stroke-width="0.3" x1="15.007084014347285" x2="10.007500721073583" y1="101.09737516637583" y2="101.16192664675087" /><path d="M 14.007167355692545 101.11028546245083 a86.0,86.0 0 0,1 10.666146001902534,-42.60595125391555" fill="none" id="id118" stroke="none" /><text fill="#e1ed5e" style="font-size:6.75px; font-family:Arial;" text-anchor="middle"><textPath startOffset="22.20632615414155" xlink:href="#id118">October</textPath></text><line stroke="#e1ed5e" stroke-width="0.3" x1="26.266209847984243" x2="21.928928074336255" y1="57.711370442889674" y2="55.22380399835377" /><path d="M 25.398753493254645 57.213857153982495 a86.0,86.0 0 0,1 29.58750427330803,-30.492523968695096" fill="none" id="id119" stroke="none" /><text fill="#e1ed5e" style="font-size:6.75px; font-family:Arial;" text-anchor="middle"><textPath startOffset="21.46611528233685" xlink:href="#id119">November</textPath></text><line stroke="#e1ed5e" stroke-width="0.3" x1="56.762969772571076" x2="54.21961505331055" y1="26.818313649435495" y2="22.513508569990535" /><path d="M 56.25429882871897 25.957352633546506 a86.0,86.0 0 0,1 42.265352541879196,-11.944610805530505" fill="none" id="id120" stroke="none" /><text fill="#e1ed5e" style="font-size:6.75px; font-family:Arial;" text-anchor="middle"><textPath startOffset="22.20632615414155" xlink:href="#id120">December</textPath></text></svg>