<?xml version="1.0" encoding="utf-8" ?>
<svg baseProfile="full" height="200mm" version="1.1" viewBox="0,0,200,200" width="200mm" xmlns="http://www.w3.org/2000/svg" xmlns:ev="http://www.w3.org/2001/xml-events" xmlns:xlink="http://www.w3.org/1999/xlink"><defs /><rect fill="#1a1a1a" height="200" width="200" x="0" y="0" /><text alignment-baseline="middle" fill="#e1ed5e" style="dominant-baseline: central; font-size:9.0px; font-family:Arial;" text-anchor="middle" x="100.0" y="100.0">2025</text><line stroke="#e1ed5e" stroke-width="0.3" x1="100.0" x2="100.0" y1="15.0" y2="10.0" /><path d="M 100.0 14.0 a86.0,86.0 0 0,1 42.46469731375804,11.215312516191453" fill="none" id="id97" stroke="none" /><text fill="#e1ed5e" style="font-size:6.75px; font-family:Arial;" text-anchor="middle"><textPath startOffset="22.20632615414155" xlink:href="#id97">January</textPath></text><path d="M 100.0 79.0 l 0.0 -27.75078832470892 a48.75078832470892,48.75078832470892 0 0,0 0.839164682310922,0.007222955354395435 l -0.4776842030383936 27.746676745963086" fill="#b7ff1f" stroke="none" /><path d="M 100.36148047927253 79.00311137660856 l 0.8440007196089886 -49.02447054224359 a70.0317351228978,70.0317351228978 0 0,0 1.2051239887858731,0.031124797168248473 l -1.6877513435897296 49.00267895293298" fill="#3bff9b" stroke="none" /><path d="M 100.72285384407766 79.0124445844662 l 1.9171603360742382 -55.66340847943063 a76.69641413324709,76.69641413324709 0 0,0 1.3190291946231727,0.05680017177208916 l -2.8750303630867426 55.622160581134345" fill="#44ffe3" stroke="none" /><path d="M 101.08401301168833 79.027996857942 l 1.9790443265014863 -38.28784653518018 a59.33895941138422,59.33895941138422 0 0,0 1.0196070732377767,0.061505483083841433 l -2.637813448578875 38.24810778271603" fill="#42ff2d" stroke="none" /><path d="M 101.44485096284872 79.0497635885617 l 3.8422369789257433 -55.712163487475976 a76.84449789780078,76.84449789780078 0 0,0 1.318833854090112,0.10236688956905075 l -4.800661022378197 55.637771335718455" fill="#44ffe5" stroke="none" /><path d="M 101.80526077348638 79.07773832637324 l 3.6623277102481047 -42.44493638467875 a63.60264391979302,63.60264391979302 0 0,0 1.0899520665409508,0.10350408206447322 l -4.392404903879299 42.375606758099096" fill="#33ff4e" stroke="none" /><path d="M 102.16513564639614 79.11191278185805 l 5.092842891130532 -49.133063175648054 a70.39630498059508,70.39630498059508 0 0,0 1.204223652329234,0.13530855855878643 l -5.937833246969491 49.03811866361867" fill="#3bff9f" stroke="none" /><path d="M 102.52436894288641 79.15227682838746 l 4.932828192090855 -40.73819593274236 a62.035757600258734,62.035757600258734 0 0,0 1.0589954955023906,0.13748800869043773 l -5.6333384161010915 40.64724960088778" fill="#31ff3b" stroke="none" /><path d="M 102.88285421437855 79.19881850522331 l 7.0599726478429305 -50.94110262790264 a72.42799967658473,72.42799967658473 0 0,0 1.2334523509452375,0.1817788135306463 l -7.9357939792168235 50.812029330211026" fill="#3effb5" stroke="none" /><path d="M 103.2404852339499 79.25152402106235 l 6.989177111603183 -44.75094405410313 a66.29343871280724,66.29343871280724 0 0,0 1.1259492101657516,0.18579126718246022 l -7.7584555279078105 44.624006523981045" fill="#36ff6f" stroke="none" /><path d="M 103.59715602781102 79.31037775812273 l 10.791468083433088 -62.06886672563182 a84.0,84.0 0 0,0 1.4224195155883965,0.2599380745970459 l -11.858282720124386 61.87391316968404" fill="#4dd2ff" stroke="none" /><path d="M 103.95276090670814 79.375362276772 l 9.457684493199372 -49.348119194812625 a71.24624029754204,71.24624029754204 0 0,0 1.2024790838393242,0.24120599188227712 l -10.30572998650582 49.178009246853144" fill="#3cffa8" stroke="none" /><path d="M 104.307194497241 79.44645832069477 l 10.01857041990451 -47.807709827002945 a69.846175614489,69.846175614489 0 0,0 1.1746040527765342,0.2567229508125674 l -10.840017196834571 47.62817337809451" fill="#3bff98" stroke="none" /><path d="M 104.66035177308747 79.52364482259891 l 8.953101182258688 -39.337562629029776 a61.34354786545925,61.34354786545925 0 0,0 1.0275812903213912,0.24319529159913209 l -9.628906159542602 39.17762142528977" fill="#30ff32" stroke="none" /><path d="M 105.01212808612495 79.60689891045804 l 9.35579681923704 -38.066407527790304 a60.19926423027167,60.19926423027167 0 0,0 1.0041555794078898,0.2559816156477098 l -10.009661287329955 37.899722915973726" fill="#39ff2e" stroke="none" /><path d="M 105.36241919743992 79.69619591428918 l 10.328429657312679 -39.10668012960233 a61.44760672703751,61.44760672703751 0 0,0 1.020329055612823,0.278894474052355 l -11.000056602149213 38.923099114723684" fill="#30ff33" stroke="none" /><path d="M 105.71112130821622 79.79150937346287 l 13.661758014151884 -48.34138409454261 a71.2347792690815,71.2347792690815 0 0,0 1.1771031068897,0.3436286751935835 l -14.491851338765011 48.09905709043032" fill="#3cffa8" stroke="none" /><path d="M 106.0581310904928 79.89281104454417 l 15.52200162731452 -51.518168726507085 a74.80570827943079,74.80570827943079 0 0,0 1.2297154620378303,0.3820785800032981 l -16.406502462063067 51.24335001162127" fill="#41ffcf" stroke="none" /><path d="M 106.40334571778207 80.00007090966166 l 1.1037739075415904 -3.4474789985638545 a24.61986578266494,24.61986578266494 0 0,0 0.402496325584524,0.13269671034177663 l -1.1629530553685319 3.4279685639628417" fill="#ff0000" stroke="none" /><path d="M 106.74666289553966 80.11325718540242 l 1.5727160401503584 -4.635802899169572 a25.89531452134541,25.89531452134541 0 0,0 0.4208827074560392,0.14683771238281704 l -1.6522807516696711 4.608044333614547" fill="#ff1302" stroke="none" /><path d="M 107.08798089147638 80.2323363322302 l 4.530401665602277 -12.63483321649814 a34.42250161707633,34.42250161707633 0 0,0 0.5560343304587789,0.20479213647471523 l -4.747218321833633 12.554977812217102" fill="#ff8f0d" stroke="none" /><path d="M 107.4271985657038 80.35727306442388 l 3.9513827057923177 -10.450229763108736 a32.17231969598965,32.17231969598965 0 0,0 0.5163149218362527,0.20032216823888152 l -4.130680792628238 10.380664890979306" fill="#ff6f0a" stroke="none" /><path d="M 107.76421540070413 80.48803036053334 l 12.777580656479554 -32.11087701307915 a55.559730756791716,55.559730756791716 0 0,0 0.8855589564583036,0.36124173340053684 l -13.328423482526246 31.886174393495033" fill="#6aff28" stroke="none" /><path d="M 108.09893153111575 80.62456947434976 l 20.49073831591498 -49.02089555072397 a74.1311448900388,74.1311448900388 0 0,0 1.1730944524075888,0.5022578232196889 l -21.331516526112885 48.66091819954149" fill="#40ffc8" stroke="none" /><path d="M 108.43124777332544 80.76684994638697 l 17.07238566358234 -38.94509615524224 a63.522780562742554,63.522780562742554 0 0,0 0.9976642340144447,0.4476228605878836 l -17.740232016063565 38.645452964137824" fill="#32ff4d" stroke="none" /><path d="M 108.76106565485865 80.91482961587045 l 15.719416771715252 -34.243294051900314 a58.67894970892626,58.67894970892626 0 0,0 0.9143348039436089,0.42929245034272767 l -16.30652978695846 33.96763661891759" fill="#48ff2c" stroke="none" /><path d="M 109.08828744355905 81.06846463323043 l 16.755375252639453 -34.9026129673798 a59.716081824062094,59.716081824062094 0 0,0 0.9228373511173454,0.4528322803546685 l -17.353683870767227 34.6090255268903" fill="#3eff2e" stroke="none" /><path d="M 109.41281617654863 81.2277094730956 l 15.830390876801479 -31.571071942758138 a56.317614003880976,56.317614003880976 0 0,0 0.8628381747511112,0.4419792259240466 l -16.371489539141344 31.29390019152159" fill="#61ff29" stroke="none" /><path d="M 109.73455568895987 81.39251694778311 l 21.29220422051809 -40.699785571822495 a66.93289133247089,66.93289133247089 0 0,0 1.0162801881686006,0.5428616805079117 l -21.989629455215002 40.32724516481283" fill="#37ff76" stroke="none" /><path d="M 110.05341064243156 81.56283822128135 l 28.407335662739072 -52.096811912341 a80.33847428848641,80.33847428848641 0 0,0 1.2084280356399302,0.6724888934963472 l -29.299887787451038 51.60010762128447" fill="#48f5ff" stroke="none" /><path d="M 110.36928655335952 81.73862282372117 l 13.074312620717965 -23.02520552970538 a47.47825032341526,47.47825032341526 0 0,0 0.7072072303806369,0.40966007490463724 l -13.46871658356393 22.796741297410694" fill="#c6ff1e" stroke="none" /><line stroke="#e1ed5e" stroke-width="0.3" x1="143.23703022742887" x2="145.7803849466894" y1="26.81831364943548" y2="22.513508569990506" /><path d="M 143.74570117128098 25.957352633546492 a86.0,86.0 0 0,1 28.547481713284135,27.462654790039103" fill="none" id="id98" stroke="none" /><text fill="#e1ed5e" style="font-size:6.75px; font-family:Arial;" text-anchor="middle"><textPath startOffset="19.985693538727396" xlink:href="#id98">February</textPath></text><line stroke="#e1ed5e" stroke-width="0.3" x1="172.23445277983987" x2="176.4835382374775" y1="55.19839476539836" y2="52.563006222186495" /><path d="M 173.08426987136738 54.67131705675599 a86.0,86.0 0 0,1 12.851231095245387,41.99856678651699" fill="none" id="id99" stroke="none" /><text fill="#e1ed5e" style="font-size:6.75px; font-family:Arial;" text-anchor="middle"><textPath startOffset="22.20632615414155" xlink:href="#id99">March</textPath></text><line stroke="#e1ed5e" stroke-width="0.3" x1="184.98032266829074" x2="189.97916517819016" y1="98.17113171792111" y2="98.06355123074" /><path d="M 185.9800911702706 98.14961562048488 a86.0,86.0 0 0,1 -9.607161424134198,41.387399972396054" fill="none" id="id100" stroke="none" /><text fill="#e1ed5e" style="font-size:6.75px; font-family:Arial;" text-anchor="middle"><textPath startOffset="21.466115282336823" xlink:href="#id100">April</textPath></text><line stroke="#e1ed5e" stroke-width="0.3" x1="174.80103733775053" x2="179.2010983576182" y1="140.37084112569926" y2="142.7455964860345" /><path d="M 175.68104954172406 140.8457921977663 a86.0,86.0 0 0,1 -30.038265399797805,32.042727171017184" fill="none" id="id101" stroke="none" /><text fill="#e1ed5e" style="font-size:6.75px; font-family:Arial;" text-anchor="middle"><textPath startOffset="22.206326154141568" xlink:href="#id101">May</textPath></text><line stroke="#e1ed5e" stroke-width="0.3" x1="143.8653032363475" x2="146.44561519142675" y1="172.8068346515853" y2="177.08958963109032" /><path d="M 144.38136562736335 173.6633856474863 a86.0,86.0 0 0,1 -40.68145358897372,12.25698825130547" fill="none" id="id102" stroke="none" /><text fill="#e1ed5e" style="font-size:6.75px; font-family:Arial;" text-anchor="middle"><textPath startOffset="21.466115282336833" xlink:href="#id102">June</textPath></text><line stroke="#e1ed5e" stroke-width="0.3" x1="102.19456741930631" x2="102.32365962044197" y1="184.97166512339345" y2="189.96999836594603" /><path d="M 102.22038585953345 185.97133177190398 a86.0,86.0 0 0,1 -42.740103519485714,-10.115201625700543" fill="none" id="id103" stroke="none" /><text fill="#e1ed5e" style="font-size:6.75px; font-family:Arial;" text-anchor="middle"><textPath startOffset="22.20632615414155" xlink:href="#id103">July</textPath></text><line stroke="#e1ed5e" stroke-width="0.3" x1="58.666819895761336" x2="56.23545636021788" y1="174.27360380694188" y2="178.64263932499728" /><path d="M 58.180547188652646 175.14741091055294 a86.0,86.0 0 0,1 -31.652253787137756,-30.449443065178592" fill="none" id="id104" stroke="none" /><text fill="#e1ed5e" style="font-size:6.75px; font-family:Arial;" text-anchor="middle"><textPath startOffset="22.20632615414155" xlink:href="#id104">August</textPath></text><line stroke="#e1ed5e" stroke-width="0.3" x1="26.63291911575756" x2="22.317208475507996" y1="142.92168965132927" y2="145.44649492493687" /><path d="M 25.769776987707644 143.4266507060508 a86.0,86.0 0 0,1 -11.730757126820373,-40.83630448921669" fill="none" id="id105" stroke="none" /><text fill="#e1ed5e" style="font-size:6.75px; font-family:Arial;" text-anchor="middle"><textPath startOffset="21.46611528233685" xlink:href="#id105">September</textPath></text><line stroke="#e1ed5e" stroke-width="0.3" x1="15.007084014347285" x2="10.007500721073583" y1="101.09737516637583" y2="101.16192664675087" /><path d="M 14.007167355692545 101.11028546245083 a86.0,86.0 0 0,1 10.666146001902534,-42.60595125391555" fill="none" id="id106" stroke="none" /><text fill="#e1ed5e" style="font-size:6.75px; font-family:Arial;" text-anchor="middle"><textPath startOffset="22.20632615414155" xlink:href="#id106">October</textPath></text><line stroke="#e1ed5e" stroke-width="0.3" x1="26.266209847984243" x2="21.928928074336255" y1="57.711370442889674" y2="55.22380399835377" /><path d="M 25.398753493254645 57.213857153982495 a86.0,86.0 0 0,1 29.58750427330803,-30.492523968695096" fill="none" id="id107" stroke="none" /><text fill="#e1ed5e" style="font-size:6.75px; font-family:Arial;" text-anchor="middle"><textPath startOffset="21.46611528233685" xlink:href="#id107">November</textPath></text><line stroke="#e1ed5e" stroke-width="0.3" x1="56.762969772571076" x2="54.21961505331055" y1="26.818313649435495" y2="22.513508569990535" /><path d="M 56.25429882871897 25.957352633546506 a86.0,86.0 0 0,1 42.265352541879196,-11.944610805530505" fill="none" id="id108" stroke="none" /><text fill="#e1ed5e" style="font-size:6.75px; font-family:Arial;" text-anchor="middle"><textPath startOffset="22.20632615414155" xlink:href="#id108">December</textPath></text></svg>