<?xml version="1.0" encoding="utf-8" ?>
<svg baseProfile="full" height="200mm" version="1.1" viewBox="0,0,200,200" width="200mm" xmlns="http://www.w3.org/2000/svg" xmlns:ev="http://www.w3.org/2001/xml-events" xmlns:xlink="http://www.w3.org/1999/xlink"><defs /><rect fill="#1a1a1a" height="200" width="200" x="0" y="0" /><text alignment-baseline="middle" fill="#e1ed5e" style="dominant-baseline: central; font-size:9.0px; font-family:Arial;" text-anchor="middle" x="100.0" y="100.0">2026</text><line stroke="#e1ed5e" stroke-width="0.3" x1="100.0" x2="100.0" y1="15.0" y2="10.0" /><path d="M 100.0 14.0 a86.0,86.0 0 0,1 42.46469731375804,11.215312516191453" fill="none" id="id109" stroke="none" /><text fill="#e1ed5e" style="font-size:6.75px; font-family:Arial;" text-anchor="middle"><textPath startOffset="22.20632615414155" xlink:href="#id109">January</textPath></text><path d="M 100.0 79.0 l 0.0 -9.037340421755886 a30.037340421755886,30.037340421755886 0 0,0 0.5170434386537337,0.004450356112931955 l -0.1555629593812053 9.036001442251512" fill="#ff0000" stroke="none" /><path d="M 100.36148047927253 79.00311137660856 l 0.9871424158528747 -57.33897277883675 a78.34746942526198,78.34746942526198 0 0,0 1.3482232690559113,0.034820629393623466 l -1.9739923201036538 57.31348535730076" fill="#45ffef" stroke="none" /><path d="M 100.72285384407766 79.0124445844662 l 1.4007016199958238 -40.66839114316446 a61.69250549181847,61.69250549181847 0 0,0 1.0609911395829406,0.04568851032458939 l -2.100533591968096 40.63825490631568" fill="#40ff2d" stroke="none" /><path d="M 101.08401301168833 79.027996857942 l 2.5634341115850905 -49.59382190338331 a70.66002784361825,70.66002784361825 0 0,0 1.2141342702870088,0.07323989484058341 l -3.416730430711711 49.54234873916242" fill="#3aff92" stroke="none" /><path d="M 101.44485096284872 79.0497635885617 l 3.07626941245448 -44.60568813902353 a65.711641077619,65.711641077619 0 0,0 1.1277676246416415,0.08753647287200554 l -3.8436272264584623 44.54612640396306" fill="#33ff52" stroke="none" /><path d="M 101.80526077348638 79.07773832637324 l 3.8176973255792315 -44.24560906079897 a65.41000713837806,65.41000713837806 0 0,0 1.1209246669500013,0.10644530367677983 l -4.578747119619477 44.173338212607014" fill="#32ff4e" stroke="none" /><path d="M 102.16513564639614 79.11191278185805 l 5.420852950262207 -52.297531293372984 a73.5777274717127,73.5777274717127 0 0,0 1.2586461708536383,0.14142356262836495 l -6.3202658246255705 52.19647177727402" fill="#3effb7" stroke="none" /><path d="M 102.52436894288641 79.15227682838746 l 6.730791001645203 -55.58683009617196 a76.9928497903841,76.9928497903841 0 0,0 1.3143239361933556,0.17063696826743915 l -7.686629666346405 55.46273480474038" fill="#43ffdf" stroke="none" /><path d="M 102.88285421437855 79.19881850522331 l 4.974307479470176 -35.89202401398191 a57.235081381453625,57.235081381453625 0 0,0 0.9747162147475296,0.14364783277611595 l -5.591392674646361 35.80108169704483" fill="#75ff27" stroke="none" /><path d="M 103.2404852339499 79.25152402106235 l 8.144147510958849 -52.14609442737143 a73.7782370178144,73.7782370178144 0 0,0 1.2530734460389568,0.20676785534402375 l -9.04055016313668 51.99818030908778" fill="#3effb9" stroke="none" /><path d="M 103.59715602781102 79.31037775812273 l 10.791468083433088 -62.06886672563182 a84.0,84.0 0 0,0 1.4224195155883965,0.2599380745970459 l -11.858282720124386 61.87391316968404" fill="#4dd2ff" stroke="none" /><path d="M 103.95276090670814 79.375362276772 l 7.971635258434375 -41.594240872980855 a63.35124369476137,63.35124369476137 0 0,0 1.0692289889265434,0.21447727639458256 l -8.686430656828044 41.45085964050906" fill="#30ff31" stroke="none" /><path d="M 104.307194497241 79.44645832069477 l 10.845845936420845 -51.7553935965376 a73.87960987383607,73.87960987383607 0 0,0 1.2424343696973366,0.27154803086681856 l -11.73512303027171 51.561032067574914" fill="#3fffba" stroke="none" /><line stroke="#e1ed5e" stroke-width="0.3" x1="143.23703022742887" x2="145.7803849466894" y1="26.81831364943548" y2="22.513508569990506" /><path d="M 143.74570117128098 25.957352633546492 a86.0,86.0 0 0,1 28.547481713284135,27.462654790039103" fill="none" id="id110" stroke="none" /><text fill="#e1ed5e" style="font-size:6.75px; font-family:Arial;" text-anchor="middle"><textPath startOffset="19.985693538727396" xlink:href="#id110">February</textPath></text><line stroke="#e1ed5e" stroke-width="0.3" x1="172.23445277983987" x2="176.4835382374775" y1="55.19839476539836" y2="52.563006222186495" /><path d="M 173.08426987136738 54.67131705675599 a86.0,86.0 0 0,1 12.851231095245387,41.99856678651699" fill="none" id="id111" stroke="none" /><text fill="#e1ed5e" style="font-size:6.75px; font-family:Arial;" text-anchor="middle"><textPath startOffset="22.20632615414155" xlink:href="#id111">March</textPath></text><line stroke="#e1ed5e" stroke-width="0.3" x1="184.98032266829074" x2="189.97916517819016" y1="98.17113171792111" y2="98.06355123074" /><path d="M 185.9800911702706 98.14961562048488 a86.0,86.0 0 0,1 -9.607161424134198,41.387399972396054" fill="none" id="id112" stroke="none" /><text fill="#e1ed5e" style="font-size:6.75px; font-family:Arial;" text-anchor="middle"><textPath startOffset="21.466115282336823" xlink:href="#id112">April</textPath></text><line stroke="#e1ed5e" stroke-width="0.3" x1="174.80103733775053" x2="179.2010983576182" y1="140.37084112569926" y2="142.7455964860345" /><path d="M 175.68104954172406 140.8457921977663 a86.0,86.0 0 0,1 -30.038265399797805,32.042727171017184" fill="none" id="id113" stroke="none" /><text fill="#e1ed5e" style="font-size:6.75px; font-family:Arial;" text-anchor="middle"><textPath startOffset="22.206326154141568" xlink:href="#id113">May</textPath></text><line stroke="#e1ed5e" stroke-width="0.3" x1="143.8653032363475" x2="146.44561519142675" y1="172.8068346515853" y2="177.08958963109032" /><path d="M 144.38136562736335 173.6633856474863 a86.0,86.0 0 0,1 -40.68145358897372,12.25698825130547" fill="none" id="id114" stroke="none" /><text fill="#e1ed5e" style="font-size:6.75px; font-family:Arial;" text-anchor="middle"><textPath startOffset="21.466115282336833" xlink:href="#id114">June</textPath></text><line stroke="#e1ed5e" stroke-width="0.3" x1="102.19456741930631" x2="102.32365962044197" y1="184.97166512339345" y2="189.96999836594603" /><path d="M 102.22038585953345 185.97133177190398 a86.0,86.0 0 0,1 -42.740103519485714,-10.115201625700543" fill="none" id="id115" stroke="none" /><text fill="#e1ed5e" style="font-size:6.75px; font-family:Arial;" text-anchor="middle"><textPath startOffset="22.20632615414155" xlink:href="#id115">July</textPath></text><line stroke="#e1ed5e" stroke-width="0.3" x1="58.666819895761336" x2="56.23545636021788" y1="174.27360380694188" y2="178.64263932499728" /><path d="M 58.180547188652646 175.14741091055294 a86.0,86.0 0 0,1 -31.652253787137756,-30.449443065178592" fill="none" id="id116" stroke="none" /><text fill="#e1ed5e" style="font-size:6.75px; font-family:Arial;" text-anchor="middle"><textPath startOffset="22.20632615414155" xlink:href="#id116">August</textPath></text><line stroke="#e1ed5e" stroke-width="0.3" x1="26.63291911575756" x2="22.317208475507996" y1="142.92168965132927" y2="145.44649492493687" /><path d="M 25.769776987707644 143.4266507060508 a86.0,86.0 0 0,1 -11.730757126820373,-40.83630448921669" fill="none" id="id117" stroke="none" /><text fill="#e1ed5e" style="font-size:6.75px; font-family:Arial;" text-anchor="middle"><textPath startOffset="21.46611528233685" xlink:href="#id117">September</textPath></text><line stroke="#e1ed5e" stroke-width="0.3" x1="15.007084014347285" x2="10.007500721073583" y1="101.09737516637583" y2="101.16192664675087" /><path d="M 14.007167355692545 101.11028546245083 a86.0,86.0 0 0,1 10.666146001902534,-42.60595125391555" fill="none" id="id118" stroke="none" /><text fill="#e1ed5e" style="font-size:6.75px; font-family:Arial;" text-anchor="middle"><textPath startOffset="22.20632615414155" xlink:href="#id118">October</textPath></text><line stroke="#e1ed5e" stroke-width="0.3" x1="26.266209847984243" x2="21.928928074336255" y1="57.711370442889674" y2="55.22380399835377" /><path d="M 25.398753493254645 57.213857153982495 a86.0,86.0 0 0,1 29.58750427330803,-30.492523968695096" fill="none" id="id119" stroke="none" /><text fill="#e1ed5e" style="font-size:6.75px; font-family:Arial;" text-anchor="middle"><textPath startOffset="21.46611528233685" xlink:href="#id119">November</textPath></text><line stroke="#e1ed5e" stroke-width="0.3" x1="56.762969772571076" x2="54.21961505331055" y1="26.818313649435495" y2="22.513508569990535" /><path d="M 56.25429882871897 25.957352633546506 a86.0,86.0 0 0,1 42.265352541879196,-11.944610805530505" fill="none" id="id120" stroke="none" /><text fill="#e1ed5e" style="font-size:6.75px; font-family:Arial;" text-anchor="middle"><textPath startOffset="22.20632615414155" xlink:href="#id120">December</textPath></text></svg>