<?xml version="1.0" encoding="utf-8" ?>
<svg baseProfile="full" height="200mm" version="1.1" viewBox="0,0,200,200" width="200mm" xmlns="http://www.w3.org/2000/svg" xmlns:ev="http://www.w3.org/2001/xml-events" xmlns:xlink="http://www.w3.org/1999/xlink"><defs /><rect fill="#1a1a1a" height="200" width="200" x="0" y="0" /><text alignment-baseline="middle" fill="#e1ed5e" style="dominant-baseline: central; font-size:9.0px; font-family:Arial;" text-anchor="middle" x="100.0" y="100.0">2024</text><line stroke="#e1ed5e" stroke-width="0.3" x1="100.0" x2="100.0" y1="15.0" y2="10.0" /><path d="M 100.0 14.0 a86.0,86.0 0 0,1 42.35913384403234,11.155469271406648" fill="none" id="id85" stroke="none" /><text fill="#e1ed5e" style="font-size:6.75px; font-family:Arial;" text-anchor="middle"><textPath startOffset="22.145653131862478" xlink:href="#id85">January</textPath></text><path d="M 100.0 79.0 l 0.0 -62.54690309380618 a83.54690309380618,83.54690309380618 0 0,0 1.4341936884928583,0.012310827908766777 l -1.0737007636440035 62.53768666409185" fill="#4cd9ff" stroke="none" /><path d="M 100.36049292484886 79.00309439819443 l 0.4393503330856785 -25.58995429324895 a46.593725587451175,46.593725587451175 0 0,0 0.7996075404551823,0.020595053838912268 l -0.8785711876116021 25.578641522059996" fill="#ff0a01" stroke="none" /><path d="M 100.72087961077811 79.0123766808444 l 1.5307283425937936 -44.565485523493884 a65.59176638353277,65.59176638353277 0 0,0 1.124974503239836,0.048311245636484604 l -2.2955286064344658 44.53264170943157" fill="#6fff28" stroke="none" /><path d="M 101.08105385017728 79.02784411241856 l 1.2967418215251894 -25.156444910226185 a46.18984437968876,46.18984437968876 0 0,0 0.791508398769221,0.047615179781216176 l -1.7283945724268728 25.130477752620276" fill="#ff0000" stroke="none" /><path d="M 101.44090949804482 79.04949213459386 l 3.1802031317130215 -46.23945557646026 a67.3486886973774,67.3486886973774 0 0,0 1.152724137098487,0.08922813854838241 l -3.9734962635867417 46.17804967091683" fill="#51ff2b" stroke="none" /><path d="M 101.80034050326958 79.07731436759882 l 5.143979900847916 -59.78084377337112 a81.0017484034968,81.0017484034968 0 0,0 1.384360136599635,0.13110034424979264 l -6.169439600832564 59.68373167361614" fill="#47fffe" stroke="none" /><path d="M 102.15924093988457 79.11130261209362 l 4.989481162978848 -48.268704159386694 a69.5258974517949,69.5258974517949 0 0,0 1.1861253793315605,0.13290782277488758 l -5.817342443911206 48.175940576104836" fill="#30ff31" stroke="none" /><path d="M 102.51750503828377 79.15144685158666 l 7.552515114851315 -62.54565944524002 a84.0,84.0 0 0,0 1.430088712436833,0.1851536151984119 l -8.62508164917894 62.40679423384121" fill="#4dd2ff" stroke="none" /><path d="M 102.87502721639298 79.19773525538626 l 5.713120609285642 -41.337294740942774 a62.730225060450124,62.730225060450124 0 0,0 1.0654426856496375,0.15658338425658783 l -6.421888400542962 41.233130283387304" fill="#a1ff22" stroke="none" /><path d="M 103.23170211078529 79.25015418208739 l 6.445210994981266 -41.38287807018159 a62.881778163556326,62.881778163556326 0 0,0 1.0651649114668171,0.17527248083907876 l -7.154653409501154 41.26613959084684" fill="#9fff22" stroke="none" /><path d="M 103.58742460773223 79.30868818359171 l 7.344422810909618 -42.360679068914884 a63.992646785293566,63.992646785293566 0 0,0 1.080760434422831,0.19695055317612511 l -8.070517978883503 42.228360341807395" fill="#8bff24" stroke="none" /><path d="M 103.94208987418118 79.37332000966035 l 7.920792375503048 -41.44493271690306 a63.195039990079984,63.195039990079984 0 0,0 1.0637937492145235,0.21278854312444284 l -8.631082610248528 41.30285477711576" fill="#99ff23" stroke="none" /><path d="M 104.29559338865022 79.4440306129975 l 12.494639815932139 -59.791374629764285 a82.08293136586273,82.08293136586273 0 0,0 1.376794922910903,0.3000660453841582 l -13.519197155462177 59.56807712624641" fill="#49efff" stroke="none" /><path d="M 104.64783097203109 79.52079915486377 l 10.07365277165777 -44.38637282560006 a66.51514663029326,66.51514663029326 0 0,0 1.111334582945083,0.2622719355678533 l -10.834119508342738 44.20690474638598" fill="#5fff29" stroke="none" /><path d="M 104.9986988182912 79.60360301121754 l 7.4520251153705654 -30.406805480517964 a52.306652613305225,52.306652613305225 0 0,0 0.8702698834374731,0.22121920120589972 l -7.972900292033433 30.274401047476797" fill="#ff8c0c" stroke="none" /><line stroke="#e1ed5e" stroke-width="0.3" x1="143.13028292997686" x2="145.6673583964461" y1="26.7553504044142" y2="22.446841604673864" /><path d="M 143.63769802327073 25.89364864446614 a86.0,86.0 0 0,1 29.32050498858742,28.57503671076993" fill="none" id="id86" stroke="none" /><text fill="#e1ed5e" style="font-size:6.75px; font-family:Arial;" text-anchor="middle"><textPath startOffset="20.669276256404974" xlink:href="#id86">February</textPath></text><line stroke="#e1ed5e" stroke-width="0.3" x1="172.87174338648825" x2="177.1583165268699" y1="56.24261187166439" y2="53.66864786411523" /><path d="M 173.72905801456457 55.72781907015455 a86.0,86.0 0 0,1 12.242430191666344,42.057860355516425" fill="none" id="id87" stroke="none" /><text fill="#e1ed5e" style="font-size:6.75px; font-family:Arial;" text-anchor="middle"><textPath startOffset="22.145653131862474" xlink:href="#id87">March</textPath></text><line stroke="#e1ed5e" stroke-width="0.3" x1="184.99686870605535" x2="189.99668451229388" y1="99.2704041080226" y2="99.22748670261217" /><path d="M 185.99683186730306 99.26182062694052 a86.0,86.0 0 0,1 -10.086455211305974,41.156179273409016" fill="none" id="id88" stroke="none" /><text fill="#e1ed5e" style="font-size:6.75px; font-family:Arial;" text-anchor="middle"><textPath startOffset="21.40746469413373" xlink:href="#id88">April</textPath></text><line stroke="#e1ed5e" stroke-width="0.3" x1="174.33088141563837" x2="178.70328620479359" y1="141.23008692659167" y2="143.65538615756765" /><path d="M 175.20536237346943 141.71514677278685 a86.0,86.0 0 0,1 -30.301960400862466,31.631185727798858" fill="none" id="id89" stroke="none" /><text fill="#e1ed5e" style="font-size:6.75px; font-family:Arial;" text-anchor="middle"><textPath startOffset="22.145653131862474" xlink:href="#id89">May</textPath></text><line stroke="#e1ed5e" stroke-width="0.3" x1="143.1302829299769" x2="145.66735839644613" y1="173.24464959558577" y2="177.55315839532614" /><path d="M 143.63769802327073 174.10635135553383 a86.0,86.0 0 0,1 -40.68552437913181,11.842963189579606" fill="none" id="id90" stroke="none" /><text fill="#e1ed5e" style="font-size:6.75px; font-family:Arial;" text-anchor="middle"><textPath startOffset="21.407464694133747" xlink:href="#id90">June</textPath></text><line stroke="#e1ed5e" stroke-width="0.3" x1="101.45913802915013" x2="101.54496967792366" y1="184.9874750549273" y2="189.98673829345242" /><path d="M 101.47630435890484 185.9873277026323 a86.0,86.0 0 0,1 -42.54439059252881,-10.42667462771756" fill="none" id="id91" stroke="none" /><text fill="#e1ed5e" style="font-size:6.75px; font-family:Arial;" text-anchor="middle"><textPath startOffset="22.145653131862474" xlink:href="#id91">July</textPath></text><line stroke="#e1ed5e" stroke-width="0.3" x1="58.13341422392154" x2="55.67067388415222" y1="173.97424548756322" y2="178.32567169271397" /><path d="M 57.64086615596768 174.84453072859336 a86.0,86.0 0 0,1 -31.369924170532247,-30.572349798747897" fill="none" id="id92" stroke="none" /><text fill="#e1ed5e" style="font-size:6.75px; font-family:Arial;" text-anchor="middle"><textPath startOffset="22.145653131862474" xlink:href="#id92">August</textPath></text><line stroke="#e1ed5e" stroke-width="0.3" x1="26.387840678322732" x2="22.057713659400548" y1="142.50000000000003" y2="145.00000000000006" /><path d="M 25.521815274538298 143.00000000000003 a86.0,86.0 0 0,1 -11.493303480769221,-40.785679425670985" fill="none" id="id93" stroke="none" /><text fill="#e1ed5e" style="font-size:6.75px; font-family:Arial;" text-anchor="middle"><textPath startOffset="21.40746469413373" xlink:href="#id93">September</textPath></text><line stroke="#e1ed5e" stroke-width="0.3" x1="15.003131293944662" x2="10.003315487706104" y1="100.72959589197737" y2="100.7725132973878" /><path d="M 14.003168132696942 100.73817937305945 a86.0,86.0 0 0,1 10.791469493833604,-42.45332614584628" fill="none" id="id94" stroke="none" /><text fill="#e1ed5e" style="font-size:6.75px; font-family:Arial;" text-anchor="middle"><textPath startOffset="22.145653131862435" xlink:href="#id94">October</textPath></text><line stroke="#e1ed5e" stroke-width="0.3" x1="26.387840678322718" x2="22.05771365940052" y1="57.49999999999999" y2="54.99999999999999" /><path d="M 25.521815274538284 56.99999999999999 a86.0,86.0 0 0,1 29.574782752854787,-30.34633250058573" fill="none" id="id95" stroke="none" /><text fill="#e1ed5e" style="font-size:6.75px; font-family:Arial;" text-anchor="middle"><textPath startOffset="21.40746469413373" xlink:href="#id95">November</textPath></text><line stroke="#e1ed5e" stroke-width="0.3" x1="56.869717070023135" x2="54.33264160355391" y1="26.7553504044142" y2="22.446841604673864" /><path d="M 56.362301976729285 25.89364864446614 a86.0,86.0 0 0,1 42.16139366436587,-11.88097634709845" fill="none" id="id96" stroke="none" /><text fill="#e1ed5e" style="font-size:6.75px; font-family:Arial;" text-anchor="middle"><textPath startOffset="22.145653131862474" xlink:href="#id96">December</textPath></text></svg>