<?xml version="1.0" encoding="utf-8" ?>
<svg baseProfile="full" height="200mm" version="1.1" viewBox="0,0,200,200" width="200mm" xmlns="http://www.w3.org/2000/svg" xmlns:ev="http://www.w3.org/2001/xml-events" xmlns:xlink="http://www.w3.org/1999/xlink"><defs /><rect fill="#1a1a1a" height="200" width="200" x="0" y="0" /><text alignment-baseline="middle" fill="#e1ed5e" style="dominant-baseline: central; font-size:9.0px; font-family:Arial;" text-anchor="middle" x="100.0" y="100.0">2024</text><line stroke="#e1ed5e" stroke-width="0.3" x1="100.0" x2="100.0" y1="15.0" y2="10.0" /><path d="M 100.0 14.0 a86.0,86.0 0 0,1 42.35913384403234,11.155469271406648" fill="none" id="id85" stroke="none" /><text fill="#e1ed5e" style="font-size:6.75px; font-family:Arial;" text-anchor="middle"><textPath startOffset="22.145653131862478" xlink:href="#id85">January</textPath></text><path d="M 100.0 79.0 l 0.0 -38.95415019152354 a59.95415019152354,59.95415019152354 0 0,0 1.0291927123509452,0.008834381623882377 l -0.6686997875020904 38.94841020809409" fill="#78ff26" stroke="none" /><path d="M 100.36049292484886 79.00309439819443 l 0.27362695857295294 -15.937398554144485 a36.93974731249227,36.93974731249227 0 0,0 0.633933005381587,0.01632786550345072 l -0.5471732780252814 15.93035297129099" fill="#ff1101" stroke="none" /><path d="M 100.72087961077811 79.0123766808444 l 0.9533361175435292 -27.755340881333908 a48.771708575312005,48.771708575312005 0 0,0 0.8364910971576511,0.03592252691161684 l -1.4296529753020166 27.73488578599646" fill="#ffdf14" stroke="none" /><path d="M 101.08105385017728 79.02784411241856 l 0.807609540628467 -15.667409333569067 a36.68821049054739,36.68821049054739 0 0,0 0.6286885597703106,0.0378203425843689 l -1.07644245253124 15.651237013160006" fill="#ff0c01" stroke="none" /><path d="M 101.44090949804482 79.04949213459386 l 1.9806274060684896 -28.797887796271763 a49.8659180773508,49.8659180773508 0 0,0 0.8534931933808597,0.06606577103588668 l -2.474689594224583 28.759644258240822" fill="#fff116" stroke="none" /><path d="M 101.80034050326958 79.07731436759882 l 3.2036656609406293 -37.231451146851555 a58.369030334857285,58.369030334857285 0 0,0 0.9975557367606526,0.09446956542602279 l -3.842320961086295 37.170969825920345" fill="#8eff24" stroke="none" /><path d="M 102.15924093988457 79.11130261209362 l 3.107443997810061 -30.061701832862816 a51.22188156431484,51.22188156431484 0 0,0 0.8738552960452396,0.09791730860959187 l -3.6230351954560978 30.003928763746252" fill="#f8ff18" stroke="none" /><path d="M 102.51750503828377 79.15144685158666 l 4.703699041124926 -38.95337564841053 a60.236338502409495,60.236338502409495 0 0,0 1.0255155687002386,0.13277352190519537 l -5.371692431715956 38.866890530304936" fill="#74ff27" stroke="none" /><path d="M 102.87502721639298 79.19773525538626 l 3.5581259385876742 -25.74482681316671 a46.98954343259608,46.98954343259608 0 0,0 0.7980947829221166,0.11729244918629692 l -3.9995458271174726 25.67995329068153" fill="#ffc212" stroke="none" /><path d="M 103.23170211078529 79.25015418208739 l 4.014071116167244 -25.773216066120366 a47.083930557271714,47.083930557271714 0 0,0 0.7975625401861203,0.13123861247948518 l -4.455911159406435 25.70051145514521" fill="#ffc312" stroke="none" /><path d="M 103.58742460773223 79.30868818359171 l 4.574099357359803 -26.38218957364884 a47.77577845051279,47.77577845051279 0 0,0 0.8068766282836641,0.14703980014795892 l -5.026310719194521 26.299781599569517" fill="#ffcf13" stroke="none" /><path d="M 103.94208987418118 79.37332000966035 l 4.933061759564155 -25.81186363952372 a47.27902971703942,47.27902971703942 0 0,0 0.7958715793171316,0.15919660554697473 l -5.375429824412244 25.723377637313888" fill="#ffc712" stroke="none" /><path d="M 104.29559338865022 79.4440306129975 l 7.781649480692013 -37.238009753933504 a59.042390028419625,59.042390028419625 0 0,0 0.9903308943162411,0.21583800908485895 l -8.419742791627389 37.09894028671492" fill="#85ff25" stroke="none" /><path d="M 104.64783097203109 79.52079915486377 l 6.273861112769839 -27.64378966792689 a49.346788891634745,49.346788891634745 0 0,0 0.8244857875362119,0.19457640090013623 l -6.747479054045936 27.532017123380523" fill="#ffe815" stroke="none" /><path d="M 104.9986988182912 79.60360301121754 l 4.641113967541853 -18.937328771595606 a40.49775268750773,40.49775268750773 0 0,0 0.6737952583467741,0.17127611981588878 l -4.965514519114021 18.85486741994445" fill="#ff5207" stroke="none" /><path d="M 105.3480935250658 79.69241777938227 l 3.8294246220271466 -14.540949032583981 a36.036744717657236,36.036744717657236 0 0,0 0.5968690505985548,0.16267931389940976 l -4.078475073560394 14.47306922454043" fill="#ff0000" stroke="none" /><path d="M 105.69591212413111 79.78721728523813 l 7.599666764099835 -26.968536322139993 a49.01886661312245,49.01886661312245 0 0,0 0.8079709467873327,0.23518856711504574 l -8.061497723268772 26.83410406072243" fill="#ffe315" stroke="none" /><path d="M 106.04205211174951 79.88797359093562 l 6.098931988836359 -20.301361020709084 a42.19769399481032,42.19769399481032 0 0,0 0.6919605332537855,0.21437114200273044 l -6.446533154961775 20.193673290899707" fill="#ff700a" stroke="none" /><path d="M 106.38641147887787 79.99465700312896 l 8.629408677355016 -27.0314997744234 a49.375494254293834,49.375494254293834 0 0,0 0.805237338071437,0.26469750706991324 l -9.092168753074196 26.879381345951465" fill="#ffe915" stroke="none" /><path d="M 106.72888874123014 80.10723608172694 l 20.186666223690402 -59.67829175481916 a84.0,84.0 0 0,0 1.3619769118199267,0.4737662697256382 l -21.208148907555344 59.32296705252493" fill="#4dd2ff" stroke="none" /><path d="M 107.06938296918511 80.22567764915836 l 8.794909026611787 -24.60092583703883 a47.12577227233412,47.12577227233412 0 0,0 0.7594225035064341,0.27887046238529883 l -9.215920681772346 24.44632452564481" fill="#ffc412" stroke="none" /><path d="M 107.40779381753099 80.34994680014964 l 17.578006855894177 -46.62775157810472 a70.83104998146547,70.83104998146547 0 0,0 1.1340649371655296,0.4386806801852192 l -18.37584405555323 46.31913100978146" fill="#38ff7f" stroke="none" /><line stroke="#e1ed5e" stroke-width="0.3" x1="143.13028292997686" x2="145.6673583964461" y1="26.7553504044142" y2="22.446841604673864" /><path d="M 143.63769802327073 25.89364864446614 a86.0,86.0 0 0,1 29.32050498858742,28.57503671076993" fill="none" id="id86" stroke="none" /><text fill="#e1ed5e" style="font-size:6.75px; font-family:Arial;" text-anchor="middle"><textPath startOffset="20.669276256404974" xlink:href="#id86">February</textPath></text><line stroke="#e1ed5e" stroke-width="0.3" x1="172.87174338648825" x2="177.1583165268699" y1="56.24261187166439" y2="53.66864786411523" /><path d="M 173.72905801456457 55.72781907015455 a86.0,86.0 0 0,1 12.242430191666344,42.057860355516425" fill="none" id="id87" stroke="none" /><text fill="#e1ed5e" style="font-size:6.75px; font-family:Arial;" text-anchor="middle"><textPath startOffset="22.145653131862474" xlink:href="#id87">March</textPath></text><line stroke="#e1ed5e" stroke-width="0.3" x1="184.99686870605535" x2="189.99668451229388" y1="99.2704041080226" y2="99.22748670261217" /><path d="M 185.99683186730306 99.26182062694052 a86.0,86.0 0 0,1 -10.086455211305974,41.156179273409016" fill="none" id="id88" stroke="none" /><text fill="#e1ed5e" style="font-size:6.75px; font-family:Arial;" text-anchor="middle"><textPath startOffset="21.40746469413373" xlink:href="#id88">April</textPath></text><line stroke="#e1ed5e" stroke-width="0.3" x1="174.33088141563837" x2="178.70328620479359" y1="141.23008692659167" y2="143.65538615756765" /><path d="M 175.20536237346943 141.71514677278685 a86.0,86.0 0 0,1 -30.301960400862466,31.631185727798858" fill="none" id="id89" stroke="none" /><text fill="#e1ed5e" style="font-size:6.75px; font-family:Arial;" text-anchor="middle"><textPath startOffset="22.145653131862474" xlink:href="#id89">May</textPath></text><line stroke="#e1ed5e" stroke-width="0.3" x1="143.1302829299769" x2="145.66735839644613" y1="173.24464959558577" y2="177.55315839532614" /><path d="M 143.63769802327073 174.10635135553383 a86.0,86.0 0 0,1 -40.68552437913181,11.842963189579606" fill="none" id="id90" stroke="none" /><text fill="#e1ed5e" style="font-size:6.75px; font-family:Arial;" text-anchor="middle"><textPath startOffset="21.407464694133747" xlink:href="#id90">June</textPath></text><line stroke="#e1ed5e" stroke-width="0.3" x1="101.45913802915013" x2="101.54496967792366" y1="184.9874750549273" y2="189.98673829345242" /><path d="M 101.47630435890484 185.9873277026323 a86.0,86.0 0 0,1 -42.54439059252881,-10.42667462771756" fill="none" id="id91" stroke="none" /><text fill="#e1ed5e" style="font-size:6.75px; font-family:Arial;" text-anchor="middle"><textPath startOffset="22.145653131862474" xlink:href="#id91">July</textPath></text><line stroke="#e1ed5e" stroke-width="0.3" x1="58.13341422392154" x2="55.67067388415222" y1="173.97424548756322" y2="178.32567169271397" /><path d="M 57.64086615596768 174.84453072859336 a86.0,86.0 0 0,1 -31.369924170532247,-30.572349798747897" fill="none" id="id92" stroke="none" /><text fill="#e1ed5e" style="font-size:6.75px; font-family:Arial;" text-anchor="middle"><textPath startOffset="22.145653131862474" xlink:href="#id92">August</textPath></text><line stroke="#e1ed5e" stroke-width="0.3" x1="26.387840678322732" x2="22.057713659400548" y1="142.50000000000003" y2="145.00000000000006" /><path d="M 25.521815274538298 143.00000000000003 a86.0,86.0 0 0,1 -11.493303480769221,-40.785679425670985" fill="none" id="id93" stroke="none" /><text fill="#e1ed5e" style="font-size:6.75px; font-family:Arial;" text-anchor="middle"><textPath startOffset="21.40746469413373" xlink:href="#id93">September</textPath></text><line stroke="#e1ed5e" stroke-width="0.3" x1="15.003131293944662" x2="10.003315487706104" y1="100.72959589197737" y2="100.7725132973878" /><path d="M 14.003168132696942 100.73817937305945 a86.0,86.0 0 0,1 10.791469493833604,-42.45332614584628" fill="none" id="id94" stroke="none" /><text fill="#e1ed5e" style="font-size:6.75px; font-family:Arial;" text-anchor="middle"><textPath startOffset="22.145653131862435" xlink:href="#id94">October</textPath></text><line stroke="#e1ed5e" stroke-width="0.3" x1="26.387840678322718" x2="22.05771365940052" y1="57.49999999999999" y2="54.99999999999999" /><path d="M 25.521815274538284 56.99999999999999 a86.0,86.0 0 0,1 29.574782752854787,-30.34633250058573" fill="none" id="id95" stroke="none" /><text fill="#e1ed5e" style="font-size:6.75px; font-family:Arial;" text-anchor="middle"><textPath startOffset="21.40746469413373" xlink:href="#id95">November</textPath></text><line stroke="#e1ed5e" stroke-width="0.3" x1="56.869717070023135" x2="54.33264160355391" y1="26.7553504044142" y2="22.446841604673864" /><path d="M 56.362301976729285 25.89364864446614 a86.0,86.0 0 0,1 42.16139366436587,-11.88097634709845" fill="none" id="id96" stroke="none" /><text fill="#e1ed5e" style="font-size:6.75px; font-family:Arial;" text-anchor="middle"><textPath startOffset="22.145653131862474" xlink:href="#id96">December</textPath></text></svg>