<?xml version="1.0" encoding="utf-8" ?>
<svg baseProfile="full" height="200mm" version="1.1" viewBox="0,0,200,200" width="200mm" xmlns="http://www.w3.org/2000/svg" xmlns:ev="http://www.w3.org/2001/xml-events" xmlns:xlink="http://www.w3.org/1999/xlink"><defs /><rect fill="#1a1a1a" height="200" width="200" x="0" y="0" /><text alignment-baseline="middle" fill="#e1ed5e" style="dominant-baseline: central; font-size:9.0px; font-family:Arial;" text-anchor="middle" x="100.0" y="100.0">2024</text><line stroke="#e1ed5e" stroke-width="0.3" x1="100.0" x2="100.0" y1="15.0" y2="10.0" /><path d="M 100.0 14.0 a86.0,86.0 0 0,1 42.35913384403234,11.155469271406648" fill="none" id="id85" stroke="none" /><text fill="#e1ed5e" style="font-size:6.75px; font-family:Arial;" text-anchor="middle"><textPath startOffset="22.145653131862478" xlink:href="#id85">January</textPath></text><path d="M 100.0 79.0 l 0.0 -11.921671555153239 a32.92167155515324,32.92167155515324 0 0,0 0.5651442699919303,0.004851083858002159 l -0.20465134514307554 11.919914869489672" fill="#ff840c" stroke="none" /><path d="M 100.36049292484886 79.00309439819443 l 0.08374180190566961 -4.877540135567607 a25.878258958220574,25.878258958220574 0 0,0 0.44410380874153627,0.011438538768520513 l -0.16745892471794724 4.875383879449041" fill="#ff1f03" stroke="none" /><path d="M 100.72087961077811 79.0123766808444 l 0.29176249562985024 -8.49434671945641 a29.499355948787887,29.499355948787887 0 0,0 0.5059480043628511,0.021727584267615913 l -0.4375362605935376 8.488086566762963" fill="#ff5407" stroke="none" /><path d="M 101.08105385017728 79.02784411241856 l 0.24716379746042663 -4.794911640392979 a25.80127770306521,25.80127770306521 0 0,0 0.4421302620784183,0.026597458660344863 l -0.32943841167130733 4.789962203907942" fill="#ff1e03" stroke="none" /><path d="M 101.44090949804482 79.04949213459386 l 0.606158504092376 -8.813411615998083 a29.83423185370938,29.83423185370938 0 0,0 0.5106356164422624,0.039526426197975945 l -0.7573631153098719 8.801707422805054" fill="#ff5808" stroke="none" /><path d="M 101.80034050326958 79.07731436759882 l 0.9804616348829482 -11.394450396483863 a32.436555637752505,32.436555637752505 0 0,0 0.5543568562226521,0.05249817064693544 l -1.1759180544906134 11.375940470331745" fill="#ff7d0b" stroke="none" /><path d="M 102.15924093988457 79.11130261209362 l 0.9510136028069504 -9.200193917163762 a30.249215911964697,30.249215911964697 0 0,0 0.5160575269515651,0.057825322287917084 l -1.1088070313593121 9.182512834368874" fill="#ff5e08" stroke="none" /><path d="M 102.51750503828377 79.15144685158666 l 1.4395373737297636 -11.921434511127032 a33.00803350484397,33.00803350484397 0 0,0 0.5619573349406448,0.07275662778585915 l -1.6439725305612003 11.894966287140777" fill="#ff850c" stroke="none" /><path d="M 102.87502721639298 79.19773525538626 l 1.0889419633891526 -7.87904159125161 a28.9539355665169,28.9539355665169 0 0,0 0.49176866240139977,0.07227305838905385 l -1.2240357313982344 7.859187459563675" fill="#ff4c07" stroke="none" /><path d="M 103.23170211078529 79.25015418208739 l 1.2284811043416477 -7.88772994275577 a28.98282214968932,28.98282214968932 0 0,0 0.490944850650298,0.08078478834808052 l -1.3637034580450162 7.865479155912021" fill="#ff4c07" stroke="none" /><path d="M 103.58742460773223 79.30868818359171 l 1.399874209319731 -8.074102437261471 a29.194557826344884,29.194557826344884 0 0,0 0.49306169668284666,0.08985226588490483 l -1.5382706395536312 8.048881997445202" fill="#ff4f07" stroke="none" /><path d="M 103.94208987418118 79.37332000966035 l 1.5097323846024333 -7.899557788421845 a29.042531014906537,29.042531014906537 0 0,0 0.48888746584979265,0.09779118526198413 l -1.6451163359831829 7.872477206497002" fill="#ff4d07" stroke="none" /><path d="M 104.29559338865022 79.4440306129975 l 2.381524659375725 -11.396457616744247 a32.6426331177042,32.6426331177042 0 0,0 0.5475220097413499,0.11932987367248254 l -2.576809085736209 11.353896284938045" fill="#ff800b" stroke="none" /><path d="M 104.64783097203109 79.52079915486377 l 1.920075555527474 -8.460207175369867 a29.675355646261075,29.675355646261075 0 0,0 0.495815624886027,0.1170111374371483 l -2.065023334153386 8.425999894286491" fill="#ff5608" stroke="none" /><path d="M 104.9986988182912 79.60360301121754 l 1.4203836073699765 -5.795649825164016 a26.967164023890163,26.967164023890163 0 0,0 0.4486754460318951,0.11405154384962453 l -1.519664346627266 5.770413049479124" fill="#ff2f04" stroke="none" /><path d="M 105.3480935250658 79.69241777938227 l 1.1719712114001812 -4.450165582213394 a25.601900719210214,25.601900719210214 0 0,0 0.4240389162649894,0.11557369224532678 l -1.2481915285998635 4.429391395823925" fill="#ff1b02" stroke="none" /><path d="M 105.69591212413111 79.78721728523813 l 2.325829998723146 -8.253550155118878 a29.574997104723906,29.574997104723906 0 0,0 0.4874804348401532,0.14189844996598894 l -2.4671704459449035 8.212408010850373" fill="#ff5507" stroke="none" /><path d="M 106.04205211174951 79.88797359093562 l 1.8665396023437377 -6.213103277097014 a27.487420320820224,27.487420320820224 0 0,0 0.4507405078890069,0.1396405615341914 l -1.9729207431043747 6.180146127756176" fill="#ff3705" stroke="none" /><path d="M 106.38641147887787 79.99465700312896 l 2.640976005401395 -8.27281972188932 a29.68414074114341,29.68414074114341 0 0,0 0.48410205982409094,0.15913396255288753 l -2.7826008028732283 8.22626483793441" fill="#ff5608" stroke="none" /><path d="M 106.72888874123014 80.10723608172694 l 6.178001659107173 -18.264164146196133 a40.28075196819687,40.28075196819687 0 0,0 0.6531125496598715,0.22718644763947962 l -6.490619980812063 18.155419265988062" fill="#ffe515" stroke="none" /><path d="M 107.06938296918511 80.22567764915836 l 2.6916263416659936 -7.5289579246341525 a28.99562754222967,28.99562754222967 0 0,0 0.4672588054708081,0.17158390557772385 l -2.8204742987909266 7.481643170047707" fill="#ff4c07" stroke="none" /><path d="M 107.40779381753099 80.34994680014964 l 5.379637941012057 -14.27012877797043 a36.250478015991376,36.250478015991376 0 0,0 0.5804007717545219,0.22451148694330592 l -5.623810975260105 14.175677402889086" fill="#ffb110" stroke="none" /><path d="M 107.74402155503746 80.48000691201159 l 4.94942148093624 -12.475775333369322 a34.421689281333386,34.421689281333386 0 0,0 0.5473795035138164,0.22261447878442903 l -5.162855445640496 12.388973598005599" fill="#ff980e" stroke="none" /><path d="M 108.07796709384702 80.6158196554323 l 8.339931169957744 -20.01279876256003 a42.68101856994632,42.68101856994632 0 0,0 0.6738823197044634,0.2876402907621543 l -8.682248564832639 19.866683822138477" fill="#faff18" stroke="none" /><path d="M 108.4095320186766 80.7573450057729 l 3.500733567120792 -8.010363491001526 a29.741913907488247,29.741913907488247 0 0,0 0.46607929716076535,0.20847134133068376 l -3.637726267137189 7.94908839876099" fill="#ff5708" stroke="none" /><path d="M 108.73861861582097 80.90454125486305 l 5.015923258449273 -10.960697549734258 a33.05389467812802,33.05389467812802 0 0,0 0.5139271268053045,0.24054384504677187 l -5.203339099126082 10.872977473116952" fill="#ff850c" stroke="none" /><path d="M 109.06512990194946 81.05736502329252 l 8.39779452248862 -17.548160695930687 a40.45407146723139,40.45407146723139 0 0,0 0.6238398295372731,0.30515132163919667 l -8.69779460128796 17.401415624194268" fill="#ffe815" stroke="none" /><path d="M 109.3889696526874 81.21577127319529 l 9.649178297266634 -19.3048203228239 a42.58200012762849,42.58200012762849 0 0,0 0.6510438612366867,0.332427634418622 l -9.9791493802169 19.136334736732447" fill="#fcff18" stroke="none" /><path d="M 109.71004243097381 81.37971332152246 l 3.6792790467893672 -7.055502703345331 a28.957211364608618,28.957211364608618 0 0,0 0.438786119992905,0.23362889416972513 l -3.799853982568832 6.991303341453032" fill="#ff4c07" stroke="none" /><path d="M 110.02825361518725 81.54914285379988 l 1.5539298079165287 -2.8590558238045407 a24.254058704381677,24.254058704381677 0 0,0 0.36410633177902135,0.20196364450231197 l -1.6027803278516504 2.8319592638690825" fill="#ff0701" stroke="none" /><path d="M 110.34350942703115 81.72400993836675 l 3.8754515459109022 -6.847551543029651 a28.868169216479203,28.868169216479203 0 0,0 0.42918380326025796,0.24778938434413736 l -3.9924278170315577 6.780015261409342" fill="#ff4b06" stroke="none" /><line stroke="#e1ed5e" stroke-width="0.3" x1="143.13028292997686" x2="145.6673583964461" y1="26.7553504044142" y2="22.446841604673864" /><path d="M 143.63769802327073 25.89364864446614 a86.0,86.0 0 0,1 29.32050498858742,28.57503671076993" fill="none" id="id86" stroke="none" /><text fill="#e1ed5e" style="font-size:6.75px; font-family:Arial;" text-anchor="middle"><textPath startOffset="20.669276256404974" xlink:href="#id86">February</textPath></text><path d="M 110.65571695917076 81.90426304109057 l 6.235703512794093 -10.589587819724784 a33.28915654107865,33.28915654107865 0 0,0 0.48993275469901115,0.2941905422853458 l -6.416569024050538 10.480983276903517" fill="#ff890c" stroke="none" /><path d="M 110.96478420261332 82.08984904055464 l 3.276583930289824 -5.352053605286357 a27.27538684433814,27.27538684433814 0 0,0 0.39722817610170325,0.24789976075634265 l -3.3679762351812395 5.295018047688468" fill="#ff3404" stroke="none" /><path d="M 111.27062007382361 82.28071324371311 l 10.430377463895013 -16.39828581289118 a40.434416678681075,40.434416678681075 0 0,0 0.582475809362282,0.3775537823555494 l -10.710338905514302 16.216818188831734" fill="#ffe715" stroke="none" /><path d="M 111.5731344415666 82.4767994020092 l 17.355721801509283 -26.27877488042046 a52.49277835420689,52.49277835420689 0 0,0 0.7476564216116515,0.5030566073062644 l -17.804274511217933 25.976968599057077" fill="#87ff25" stroke="none" /><path d="M 111.8722381534696 82.67804972795209 l 3.0487388357270584 -4.448201073989733 a26.3927081585335,26.3927081585335 0 0,0 0.37151495661337314,0.25934629302170076 l -3.1246488835141926 4.3952099651629055" fill="#ff2703" stroke="none" /><path d="M 112.16784306229584 82.88440491214696 l 11.167878346566834 -15.709019486168014 a40.27420037201343,40.27420037201343 0 0,0 0.5600395857443681,0.40542547105761273 l -11.43589894268517 15.514993243737328" fill="#ffe515" stroke="none" /><path d="M 112.45986205192187 83.09580414077388 l 3.0164961952585094 -4.092456423736653 a26.084038638345746,26.084038638345746 0 0,0 0.3581549799287181,0.26876617397372726 l -3.086304164097994 4.040071222498911" fill="#ff2203" stroke="none" /><path d="M 112.7482090630111 83.31218511350987 l 13.11715426069718 -17.170775993561154 a42.60775981262246,42.60775981262246 0 0,0 0.5774164154306295,0.4490024971108229 l -13.409980620763037 16.943072444829543" fill="#fbff18" stroke="none" /><path d="M 113.03279911837588 83.53348406188908 l 3.2534330309214967 -4.110606353297454 a26.242319246141008,26.242319246141008 0 0,0 0.3508338529735921,0.28260691773013663 l -3.3235176542503484 4.054151141773909" fill="#ff2403" stroke="none" /><path d="M 113.31354834802062 83.75963576809568 l 6.84027076276407 -8.344018118103767 a31.78943661472502,31.78943661472502 0 0,0 0.4190539027375982,0.3495896698322203 l -6.9824989996635605 8.225366264359677" fill="#ff740a" stroke="none" /><path d="M 113.59037401385872 83.9905735841838 l 18.650512018725706 -21.970256262013468 a49.818982611799015,49.818982611799015 0 0,0 0.6472209882779061,0.5590540746242155 l -19.02491248676647 21.646858054924532" fill="#a5ff21" stroke="none" /><path d="M 113.86319453409587 84.22622945171908 l 3.576226664945479 -4.069089465833777 a26.41727664422138,26.41727664422138 0 0,0 0.33805933954210954,0.30229474599588557 l -3.645551031310964 4.007099189954504" fill="#ff2703" stroke="none" /><path d="M 114.13192950727249 84.46653392183569 l 12.908529261960174 -14.188734900387255 a40.18203132570556,40.18203132570556 0 0,0 0.5062366293767308,0.46856506647706153 l -13.15019566265087 13.965052087777819" fill="#ffe415" stroke="none" /><path d="M 114.39649973595853 84.71141617570332 l 5.122579227159393 -5.44000162174232 a28.47224434712115,28.47224434712115 0 0,0 0.3529575520343557,0.3381253506260729 l -5.215209265059061 5.351264140810668" fill="#ff4506" stroke="none" /><path d="M 114.65682725009322 84.96080404539774 l 16.7321513761945 -17.168661334058953 a44.97348163449561,44.97348163449561 0 0,0 0.5482654608722675,0.5435794594499642 l -17.02440875719673 16.878901864380328" fill="#deff1b" stroke="none" /><path d="M 114.91283532996326 85.21462403516908 l 4.493909295302359 -4.455500044944001 a27.3282463135454,27.3282463135454 0 0,0 0.3274355939947473,0.33597776494003834 l -4.569731690447918 4.37769958793622" fill="#ff3405" stroke="none" /><path d="M 115.16444852881244 85.47280134310134 l 15.908795099378887 -15.240265833700693 a43.03078446619381,43.03078446619381 0 0,0 0.5064193976462935,0.5377998508781113 l -16.16807033076144 14.964924522878087" fill="#f6ff19" stroke="none" /><path d="M 115.41159269507618 85.73525988315684 l 46.23477808522854 -42.794220350529464 a84.0,84.0 0 0,0 0.9704091966324899,1.066649697769313 l -46.96258498270291 41.99423307720248" fill="#4dd2ff" stroke="none" /><path d="M 115.6541949942343 86.00192230759917 l 3.890285913970721 -3.4787176529659907 a26.218793059845947,26.218793059845947 0 0,0 0.29713250783822076,0.3380822500577446 l -3.949429485767532 3.411423125096948" fill="#ff2403" stroke="none" /><path d="M 115.8921839302757 86.27271002978787 l 18.153808590960608 -15.68082748634038 a44.98852052573487,44.98852052573487 0 0,0 0.4998126865917056,0.5887780880439089 l -18.420315841059427 15.366882615846919" fill="#deff1b" stroke="none" /><path d="M 116.1254893667686 86.54754324733833 l 7.395224284062459 -6.169359118030866 a30.63069748973654,30.63069748973654 0 0,0 0.3333687304866034,0.4066556461962942 l -7.50003983378769 6.041501190136077" fill="#ff6409" stroke="none" /><path d="M 116.35404254752997 86.82634096563983 l 14.93120068581515 -12.027518348253402 a40.172948430996705,40.172948430996705 0 0,0 0.42800176876759344,0.5407662531231852 l -15.135468885224302 11.769432151215538" fill="#ffe415" stroke="none" /><path d="M 116.57777611688842 87.10902102172516 l 2.2056004641231155 -1.7150882613572767 a23.79395797240861,23.79395797240861 0 0,0 0.24796479300839774,0.32459387382478355 l -2.23471723448582 1.6769734742916111" fill="#ff0000" stroke="none" /><path d="M 116.7966241395341 87.39550010848427 l 7.6840735434355745 -5.766272040145745 a30.60702240352822,30.60702240352822 0 0,0 0.3117514418412993,0.4229507044557182 l -7.781927004860699 5.633515026421152" fill="#ff6309" stroke="none" /><path d="M 117.01052211995028 87.68569379921539 l 27.198751537989956 -19.689798605596746 a54.5776749396719,54.5776749396719 0 0,0 0.5428786786779619,0.7636268481200763 l -27.53274531519788 19.219994530767163" fill="#70ff27" stroke="none" /><path d="M 117.21940702142032 87.97951657250589 l 4.143494724116406 -2.8924811174503673 a26.053216356300947,26.053216356300947 0 0,0 0.25285299439928455,0.36892007543184624 l -4.192537455331015 2.8209263069484725" fill="#ff2203" stroke="none" /><path d="M 117.42321728460499 88.27688183743584 l 15.939598231254513 -10.724873051655324 a40.21181130835754,40.21181130835754 0 0,0 0.38043353208104264,0.5760248557136634 l -16.12135620225628 10.449668317602601" fill="#ffe515" stroke="none" /><path d="M 117.62189284568427 88.57770195909679 l 10.07102152772145 -6.527914479638865 a33.00163080857379,33.00163080857379 0 0,0 0.304058652807286,0.47803070501291384 l -10.181597872154626 6.354070099947279" fill="#ff850c" stroke="none" /><path d="M 117.81537515405839 88.88188828441811 l 20.34652158089986 -12.697734288711302 a44.98360682859729,44.98360682859729 0 0,0 0.40320742283260624,0.6586090229828426 l -20.561496968187868 12.346588149603905" fill="#deff1b" stroke="none" /><line stroke="#e1ed5e" stroke-width="0.3" x1="172.87174338648825" x2="177.1583165268699" y1="56.24261187166439" y2="53.66864786411523" /><path d="M 173.72905801456457 55.72781907015455 a86.0,86.0 0 0,1 12.242430191666344,42.057860355516425" fill="none" id="id87" stroke="none" /><text fill="#e1ed5e" style="font-size:6.75px; font-family:Arial;" text-anchor="middle"><textPath startOffset="22.145653131862474" xlink:href="#id87">March</textPath></text><path d="M 118.00360718960297 89.18935116829356 l 3.3576851020304295 -2.016193429640356 a24.916514418474932,24.916514418474932 0 0,0 0.21704216852713182,0.368585052109333 l -3.391800980687329 1.9582572092374666" fill="#ff1101" stroke="none" /><path d="M 118.18653347947321 89.5 l 8.317346434031583 -4.80202220263151 a30.604044405263018,30.604044405263018 0 0,0 0.2587741515132828,0.45722913046367786 l -8.398553950566242 4.658536302068714" fill="#ff6309" stroke="none" /><path d="M 118.36410011445183 89.81374322990088 l 31.440930737450806 -17.43975428071966 a56.95381975547325,56.95381975547325 0 0,0 0.4668983299083031,0.8590403391764191 l -31.735674416974447 16.897459108068638" fill="#57ff2a" stroke="none" /><path d="M 118.53625476483649 90.13048839642627 l 4.358639504562288 -2.3207300348329984 a25.93796782343779,25.93796782343779 0 0,0 0.2058880925406952,0.39481756480935865 l -4.397835666077928 2.2455662269191414" fill="#ff2003" stroke="none" /><path d="M 118.70294669586156 90.45014215332178 l 19.216776785444214 -9.81222315160347 a42.57693753057766,42.57693753057766 0 0,0 0.32678830887414095,0.6537955245579681 l -19.38238500753009 9.480895770881752" fill="#fcff18" stroke="none" /><path d="M 118.8641267826498 90.77261029715802 l 10.798755450544421 -5.282212423397706 a33.02143449703736,33.02143449703736 0 0,0 0.24470572093605308,0.5113408410625074 l -10.887840429440388 5.096059080270095" fill="#ff850c" stroke="none" /><path d="M 119.0197475246899 91.09779779509293 l 21.70973481354733 -10.161252081513103 a44.97005693649064,44.97005693649064 0 0,0 0.3212479598488786,0.7019847682959333 l -21.880967238251255 9.787078331002485" fill="#deff1b" stroke="none" /><path d="M 119.16976305983485 91.42560881287824 l 5.205022700949762 -2.3281404489188735 a26.701973278374297,26.701973278374297 0 0,0 0.18356477260407092,0.4200321231275592 l -5.2442213555708035 2.2384462560154645" fill="#ff2b04" stroke="none" /><path d="M 119.31412917781788 91.75594674310238 l 11.043075199000327 -4.713632140611455 a33.00699120545116,33.00699120545116 0 0,0 0.2179626966575079,0.5230311254443711 l -11.122363740194318 4.523368505725807" fill="#ff850c" stroke="none" /><path d="M 119.4528033332814 92.08871423366111 l 35.53341286674843 -14.451129671433842 a59.359595654013326,59.359595654013326 0 0,0 0.37577825236760065,0.947206672489235 l -35.77624979408215 13.83902198173104" fill="#3eff2d" stroke="none" /><path d="M 119.58574465831526 92.42381321644754 l 4.487237727452768 -1.7357599498241334 a25.811253997253623,25.811253997253623 0 0,0 0.15630473908202522,0.41461689053518974 l -4.516373150349234 1.658474779094786" fill="#ff1e03" stroke="none" /><path d="M 119.71291397450082 92.76114493625339 l 17.9975625026389 -6.608954243185283 a40.172650631170185,40.172650631170185 0 0,0 0.23215933568966143,0.6493909808954466 l -18.108362008372506 6.299028305908919" fill="#ffe415" stroke="none" /><path d="M 119.83427380445688 93.10060997987247 l 11.325425986675002 -3.9395710574793137 a32.99105891473235,32.99105891473235 0 0,0 0.18147372678174178,0.5364948274621609 l -11.39138513502911 3.7445745555429912" fill="#ff850c" stroke="none" /><path d="M 119.94978838288452 93.4421083053983 l 18.230940760178765 -5.992872340366406 a40.19066752067463,40.19066752067463 0 0,0 0.2098245360348058,0.6572723706292131 l -18.331130011990826 5.679030936045806" fill="#ffe415" stroke="none" /><path d="M 120.05942366710727 93.78553927170692 l 4.617949064107124 -1.4306524245364816 a25.834482383722168,25.834482383722168 0 0,0 0.12760226588767262,0.42474644275224543 l -4.641827649998424 1.3511683781935124" fill="#ff1e03" stroke="none" /><path d="M 120.16314734710363 94.1308016681162 l 9.252059762524576 -2.6931397559071435 a30.636057886613898,30.636057886613898 0 0,0 0.14264952081159524,0.5062128252144583 l -9.296927775410753 2.5339190067896724" fill="#ff6409" stroke="none" /><path d="M 120.26092885502905 94.47779374421319 l 17.573729086583047 -4.789798009450263 a39.2147774891693,39.2147774891693 0 0,0 0.17144424197179092,0.6510017118765302 l -17.653362809359567 4.487415793200934" fill="#ffd814" stroke="none" /><path d="M 120.35273937422433 94.82641323984039 l 4.768741459795201 -1.2121954310615222 a25.920397633673126,25.920397633673126 0 0,0 0.10591873498222683,0.43218458358441736 l -4.7888477212937195 1.1301550228690098" fill="#ff2003" stroke="none" /><path d="M 120.43855184770803 95.1765574152323 l 23.32775326204785 -5.505286251664317 a44.968567937358046,44.968567937358046 0 0,0 0.1708572996527307,0.7528287875574013 l -23.418821423258244 5.1040231301678896" fill="#deff1b" stroke="none" /><path d="M 120.51834098615036 95.52812308129327 l 9.383764664443634 -2.045147833434772 a30.604044405263018,30.604044405263018 0 0,0 0.10746725202270593,0.5142697045118227 l -9.417489627290706 1.883761677637545" fill="#ff6309" stroke="none" /><path d="M 120.592083275326 95.88100663000786 l 25.871961116238822 -5.175116809777712 a47.38446902999978,47.38446902999978 0 0,0 0.15269917654768536,0.7989866162276794 l -25.956986585068663 4.730227628516718" fill="#c1ff1e" stroke="none" /><path d="M 120.65975698304385 96.23510406497455 l 4.73886834932488 -0.8635796732573865 a25.8169121939575,25.8169121939575 0 0,0 0.0757113928215159,0.43668319427481006 l -4.752994559638631 0.7821034460619838" fill="#ff1e03" stroke="none" /><path d="M 120.7213421655516 96.59031103205396 l 16.579943649815785 -2.728223418168677 a37.80290851163901,37.80290851163901 0 0,0 0.09986899795520983,0.6412306080576345 l -16.62433413990926 2.443204628179601" fill="#ffc512" stroke="none" /><path d="M 120.77682067341334 96.94652285012252 l 42.696284722670526 -6.27488352691833 a64.15491736054814,64.15491736054814 0 0,0 0.1507808076995353,1.090974813138526 l -42.797710046925275 5.541020405579719" fill="#34ff58" stroke="none" /><line stroke="#e1ed5e" stroke-width="0.3" x1="184.99686870605535" x2="189.99668451229388" y1="99.2704041080226" y2="99.22748670261217" /><path d="M 185.99683186730306 99.26182062694052 a86.0,86.0 0 0,1 -10.086455211305974,41.156179273409016" fill="none" id="id88" stroke="none" /><text fill="#e1ed5e" style="font-size:6.75px; font-family:Arial;" text-anchor="middle"><textPath startOffset="21.40746469413373" xlink:href="#id88">April</textPath></text><line stroke="#e1ed5e" stroke-width="0.3" x1="174.33088141563837" x2="178.70328620479359" y1="141.23008692659167" y2="143.65538615756765" /><path d="M 175.20536237346943 141.71514677278685 a86.0,86.0 0 0,1 -30.301960400862466,31.631185727798858" fill="none" id="id89" stroke="none" /><text fill="#e1ed5e" style="font-size:6.75px; font-family:Arial;" text-anchor="middle"><textPath startOffset="22.145653131862474" xlink:href="#id89">May</textPath></text><line stroke="#e1ed5e" stroke-width="0.3" x1="143.1302829299769" x2="145.66735839644613" y1="173.24464959558577" y2="177.55315839532614" /><path d="M 143.63769802327073 174.10635135553383 a86.0,86.0 0 0,1 -40.68552437913181,11.842963189579606" fill="none" id="id90" stroke="none" /><text fill="#e1ed5e" style="font-size:6.75px; font-family:Arial;" text-anchor="middle"><textPath startOffset="21.407464694133747" xlink:href="#id90">June</textPath></text><line stroke="#e1ed5e" stroke-width="0.3" x1="101.45913802915013" x2="101.54496967792366" y1="184.9874750549273" y2="189.98673829345242" /><path d="M 101.47630435890484 185.9873277026323 a86.0,86.0 0 0,1 -42.54439059252881,-10.42667462771756" fill="none" id="id91" stroke="none" /><text fill="#e1ed5e" style="font-size:6.75px; font-family:Arial;" text-anchor="middle"><textPath startOffset="22.145653131862474" xlink:href="#id91">July</textPath></text><line stroke="#e1ed5e" stroke-width="0.3" x1="58.13341422392154" x2="55.67067388415222" y1="173.97424548756322" y2="178.32567169271397" /><path d="M 57.64086615596768 174.84453072859336 a86.0,86.0 0 0,1 -31.369924170532247,-30.572349798747897" fill="none" id="id92" stroke="none" /><text fill="#e1ed5e" style="font-size:6.75px; font-family:Arial;" text-anchor="middle"><textPath startOffset="22.145653131862474" xlink:href="#id92">August</textPath></text><line stroke="#e1ed5e" stroke-width="0.3" x1="26.387840678322732" x2="22.057713659400548" y1="142.50000000000003" y2="145.00000000000006" /><path d="M 25.521815274538298 143.00000000000003 a86.0,86.0 0 0,1 -11.493303480769221,-40.785679425670985" fill="none" id="id93" stroke="none" /><text fill="#e1ed5e" style="font-size:6.75px; font-family:Arial;" text-anchor="middle"><textPath startOffset="21.40746469413373" xlink:href="#id93">September</textPath></text><line stroke="#e1ed5e" stroke-width="0.3" x1="15.003131293944662" x2="10.003315487706104" y1="100.72959589197737" y2="100.7725132973878" /><path d="M 14.003168132696942 100.73817937305945 a86.0,86.0 0 0,1 10.791469493833604,-42.45332614584628" fill="none" id="id94" stroke="none" /><text fill="#e1ed5e" style="font-size:6.75px; font-family:Arial;" text-anchor="middle"><textPath startOffset="22.145653131862435" xlink:href="#id94">October</textPath></text><line stroke="#e1ed5e" stroke-width="0.3" x1="26.387840678322718" x2="22.05771365940052" y1="57.49999999999999" y2="54.99999999999999" /><path d="M 25.521815274538284 56.99999999999999 a86.0,86.0 0 0,1 29.574782752854787,-30.34633250058573" fill="none" id="id95" stroke="none" /><text fill="#e1ed5e" style="font-size:6.75px; font-family:Arial;" text-anchor="middle"><textPath startOffset="21.40746469413373" xlink:href="#id95">November</textPath></text><line stroke="#e1ed5e" stroke-width="0.3" x1="56.869717070023135" x2="54.33264160355391" y1="26.7553504044142" y2="22.446841604673864" /><path d="M 56.362301976729285 25.89364864446614 a86.0,86.0 0 0,1 42.16139366436587,-11.88097634709845" fill="none" id="id96" stroke="none" /><text fill="#e1ed5e" style="font-size:6.75px; font-family:Arial;" text-anchor="middle"><textPath startOffset="22.145653131862474" xlink:href="#id96">December</textPath></text></svg>