<?xml version="1.0" encoding="utf-8" ?>
<svg baseProfile="full" height="200mm" version="1.1" viewBox="0,0,200,200" width="200mm" xmlns="http://www.w3.org/2000/svg" xmlns:ev="http://www.w3.org/2001/xml-events" xmlns:xlink="http://www.w3.org/1999/xlink"><defs /><rect fill="#1a1a1a" height="200" width="200" x="0" y="0" /><text alignment-baseline="middle" fill="#e1ed5e" style="dominant-baseline: central; font-size:9.0px; font-family:Arial;" text-anchor="middle" x="100.0" y="100.0">2025</text><line stroke="#e1ed5e" stroke-width="0.3" x1="100.0" x2="100.0" y1="15.0" y2="10.0" /><path d="M 100.0 14.0 a86.0,86.0 0 0,1 42.46469731375804,11.215312516191453" fill="none" id="id97" stroke="none" /><text fill="#e1ed5e" style="font-size:6.75px; font-family:Arial;" text-anchor="middle"><textPath startOffset="22.20632615414155" xlink:href="#id97">January</textPath></text><path d="M 100.0 79.0 l 0.0 -14.205085339517808 a35.20508533951781,35.20508533951781 0 0,0 0.6059976724456743,0.00521601328703307 l -0.24451719317314588 14.202980702839334" fill="#ffb210" stroke="none" /><path d="M 100.36148047927253 79.00311137660856 l 0.43202744759453154 -25.09466684797508 a46.09838544461246,46.09838544461246 0 0,0 0.7932727933430255,0.020487895869342423 l -0.8639268761324248 25.08351215996338" fill="#c6ff1e" stroke="none" /><path d="M 100.72285384407766 79.0124445844662 l 0.9813568488512063 -28.49300922506478 a49.5099041731889,49.5099041731889 0 0,0 0.8514740847463269,0.036666265212492596 l -1.4716717659868648 28.471895233328095" fill="#9fff22" stroke="none" /><path d="M 101.08401301168833 79.027996857942 l 1.0130340522114532 -19.598799181294986 a40.62496286212203,40.62496286212203 0 0,0 0.6980489697683319,0.04210822014547434 l -1.350245070819397 19.57845769176921" fill="#fff617" stroke="none" /><path d="M 101.44485096284872 79.0497635885617 l 1.9667659001850624 -28.517965959335143 a49.58570535361912,49.58570535361912 0 0,0 0.8510083179444101,0.06605462411750218 l -2.4573644074918137 28.479886073029174" fill="#9fff22" stroke="none" /><path d="M 101.80526077348638 79.07773832637324 l 1.8746738671576402 -21.72673210288307 a42.80745950308411,42.80745950308411 0 0,0 0.7335870975362816,0.06966293424792663 l -2.248386091784166 21.691243624119963" fill="#edff1a" stroke="none" /><path d="M 102.16513564639614 79.11191278185805 l 2.6069265868332634 -25.15025329138361 a46.285001618546325,46.285001618546325 0 0,0 0.7917673194994332,0.08896428375925333 l -3.039460609842422 25.101653054153754" fill="#c4ff1e" stroke="none" /><path d="M 102.52436894288641 79.15227682838746 l 2.5250181945800603 -20.85308507388762 a42.00540106691027,42.00540106691027 0 0,0 0.717062743124197,0.09309532389604595 l -2.8835956662121034 20.806531426827437" fill="#f7ff19" stroke="none" /><path d="M 102.88285421437855 79.19881850522331 l 3.6138618039897517 -26.075753295778917 a47.32498636430152,47.32498636430152 0 0,0 0.8059468154602436,0.11877561040026773 l -4.062177599878651 26.00968320121768" fill="#b8ff1f" stroke="none" /><path d="M 103.2404852339499 79.25152402106235 l 3.5776229547658867 -22.907132290238813 a44.1848246870441,44.1848246870441 0 0,0 0.7504493570353641,0.12383057400905115 l -3.971401517940126 22.842155453290136" fill="#ddff1b" stroke="none" /><path d="M 103.59715602781102 79.31037775812273 l 5.5239412758360835 -31.77183791855417 a53.248466815366,53.248466815366 0 0,0 0.9016864092064013,0.16477742784798727 l -6.070022806145386 31.672045009355443" fill="#77ff27" stroke="none" /><path d="M 103.95276090670814 79.375362276772 l 4.841203563954627 -25.26033625801017 a46.72006687035223,46.72006687035223 0 0,0 0.7885314786092831,0.15817199649001554 l -5.2753014520310355 25.173260305442945" fill="#bfff1e" stroke="none" /><path d="M 104.307194497241 79.44645832069477 l 5.128310090852349 -24.471830855154785 a46.00340116446648,46.00340116446648 0 0,0 0.7736398016626382,0.16908769578940588 l -5.548792616668515 24.37992966126951" fill="#c7ff1e" stroke="none" /><path d="M 104.66035177308747 79.52364482259891 l 4.582917243979101 -20.13612830221664 a41.65107245322845,41.65107245322845 0 0,0 0.6977076524596907,0.16512485930705367 l -4.928848583401316 20.05425753076872" fill="#fbff18" stroke="none" /><path d="M 105.01212808612495 79.60689891045804 l 4.789049258039246 -19.485448887938798 a41.065336058994916,41.065336058994916 0 0,0 0.6849915335537259,0.1746195938755618 l -5.123749680277997 19.40012629789437" fill="#fffc17" stroke="none" /><path d="M 105.36241919743992 79.69619591428918 l 5.286920969185555 -20.017944070136725 a41.70433814758482,41.70433814758482 0 0,0 0.6924947971709973,0.18928498720934625 l -5.630713655580263 19.923972542101087" fill="#faff18" stroke="none" /><path d="M 105.71112130821622 79.79150937346287 l 6.993186507284722 -24.74500826637649 a46.71420019422556,46.71420019422556 0 0,0 0.7719183066010691,0.22534412109053692 l -7.4180950316092185 24.62096581636725" fill="#bfff1e" stroke="none" /><path d="M 106.0581310904928 79.89281104454417 l 7.945408799785862 -26.3711421359554 a48.54208885597599,48.54208885597599 0 0,0 0.79797329105995,0.24793418586727076 l -8.39816746355653 26.230467815205607" fill="#aaff21" stroke="none" /><path d="M 106.40334571778207 80.00007090966166 l 0.5650002576035208 -1.7646970171723426 a22.852938437592844,22.852938437592844 0 0,0 0.373609825136293,0.12317328530876587 l -0.5952929049822312 1.7547100076043407" fill="#ff0701" stroke="none" /><path d="M 106.74666289553966 80.11325718540242 l 0.8050425560441692 -2.3729767612134514 a23.505815680831535,23.505815680831535 0 0,0 0.3820456143352141,0.13328821317927458 l -0.8457701744426569 2.3587676948619696" fill="#ff1101" stroke="none" /><path d="M 107.08798089147638 80.2323363322302 l 2.3190239329119655 -6.467523804760702 a27.870715840912418,27.870715840912418 0 0,0 0.4502018765051296,0.1658131505267666 l -2.430008135189672 6.426647386427611" fill="#ff4f07" stroke="none" /><path d="M 107.4271985657038 80.35727306442388 l 2.022635461310392 -5.349268059183526 a26.718891761377495,26.718891761377495 0 0,0 0.42879601600647216,0.16636619246470793 l -2.114414642316531 5.313659162828271" fill="#ff3f05" stroke="none" /><path d="M 107.76421540070413 80.48803036053334 l 6.540593425097516 -16.436929393152095 a38.69044968981558,38.69044968981558 0 0,0 0.6166817906695354,0.25155998637172516 l -6.822559085355438 16.32190852059679" fill="#ffde14" stroke="none" /><path d="M 108.09893153111575 80.62456947434976 l 10.488807850843378 -25.092836879794362 a48.196793061092364,48.196793061092364 0 0,0 0.7626941503152392,0.32654583178151947 l -10.919185758948933 24.908571520050053" fill="#aeff20" stroke="none" /><path d="M 108.43124777332544 80.76684994638697 l 8.739020040177229 -19.93523239656456 a42.76657901388403,42.76657901388403 0 0,0 0.6716753567039183,0.3013611536863433 l -9.080877515347927 19.781850912361687" fill="#edff19" stroke="none" /><path d="M 108.76106565485865 80.91482961587045 l 8.046461747929635 -17.528471934627415 a40.28711681470084,40.28711681470084 0 0,0 0.6277534488423072,0.29473866148622824 l -8.34699340807154 17.387368290501183" fill="#fff216" stroke="none" /><path d="M 109.08828744355905 81.06846463323043 l 8.576748616091237 -17.865964381716037 a40.81800444324224,40.81800444324224 0 0,0 0.6307912031013319,0.309526503865706 l -8.883011086203002 17.7156827177155" fill="#fff917" stroke="none" /><path d="M 109.41281617654863 81.2277094730956 l 8.103267220076273 -16.16061374399315 a39.078395288921605,39.078395288921605 0 0,0 0.5987173260034052,0.30668626868604976 l -8.380245033668432 16.0187349499946" fill="#ffe315" stroke="none" /><path d="M 109.73455568895987 81.39251694778311 l 10.89906255922815 -20.833423561990948 a44.5121479661746,44.5121479661746 0 0,0 0.6758532794609301,0.36101741560672446 l -11.25606088521739 20.64272741988247" fill="#d9ff1c" stroke="none" /><path d="M 110.05341064243156 81.56283822128135 l 14.541159070361969 -26.667338256214173 a51.37420347566194,51.37420347566194 0 0,0 0.7727558724320637,0.43003780636341227 l -14.998039031866067 26.41308505229058" fill="#8bff24" stroke="none" /><path d="M 110.36928655335952 81.73862282372117 l 6.6924847092530815 -11.786152007010884 a34.553698045771604,34.553698045771604 0 0,0 0.5146909359106551,0.2981422110806374 l -6.8943723776290655 11.669205638540197" fill="#ffa90f" stroke="none" /><line stroke="#e1ed5e" stroke-width="0.3" x1="143.23703022742887" x2="145.7803849466894" y1="26.81831364943548" y2="22.513508569990506" /><path d="M 143.74570117128098 25.957352633546492 a86.0,86.0 0 0,1 28.547481713284135,27.462654790039103" fill="none" id="id98" stroke="none" /><text fill="#e1ed5e" style="font-size:6.75px; font-family:Arial;" text-anchor="middle"><textPath startOffset="19.985693538727396" xlink:href="#id98">February</textPath></text><path d="M 110.68208982089419 81.91981866633111 l 5.738489268559174 -9.712792936258765 a32.281338826043964,32.281338826043964 0 0,0 0.4759774787535528,0.28677110520065563 l -5.904828813530365 9.612575221599496" fill="#ff8b0c" stroke="none" /><path d="M 110.99172775467656 82.1063720568725 l 0.7882950852791395 -1.2832795062067976 a22.50605957137346,22.50605957137346 0 0,0 0.32835360039227324,0.20561499444242431 l -0.810267838043676 1.269520170441429" fill="#ff0200" stroke="none" /><path d="M 111.2981086023043 82.29822771554956 l 0.8302076512843471 -1.3007616857963833 a22.543122064999046,22.543122064999046 0 0,0 0.3253004441649848,0.21158445770544734 l -0.8524751212336121 1.286278303931408" fill="#ff0200" stroke="none" /><path d="M 111.60114157652 82.49532879139004 l 1.6846299435783665 -2.5418958191323298 a24.049461001902348,24.049461001902348 0 0,0 0.34310026753442324,0.231662832205835 l -1.7281349055193316 2.512521074627825" fill="#ff1802" stroke="none" /><path d="M 111.90073688211348 82.69761687909136 l 1.0320681084447905 -1.5005153038903212 a22.821183889034238,22.821183889034238 0 0,0 0.3217448527323006,0.22540283069796077 l -1.057744100760742 1.4825276304284247" fill="#ff0701" stroke="none" /><path d="M 112.19680574252982 82.90503203632743 l 1.9458770392785185 -2.727329298335833 a24.35033767754123,24.35033767754123 0 0,0 0.3391128715316067,0.2463799229617292 l -1.992535227163914 2.693430140557429" fill="#ff1d02" stroke="none" /><path d="M 112.48926042617603 83.11751280151076 l 2.933420795408055 -3.9652819571656375 a25.93238467303147,25.93238467303147 0 0,0 0.3565750388835712,0.2685649267112941 l -3.001241988050009 3.914200440948496" fill="#ff3304" stroke="none" /><path d="M 112.77801427241765 83.33499621200491 l 7.56166565120286 -9.861875564880357 a33.427203107608946,33.427203107608946 0 0,0 0.45360307894009866,0.35404439804556337 l -7.730301285302389 9.73025277761157" fill="#ff9b0e" stroke="none" /><path d="M 113.06298171725822 83.55741782278167 l 3.3853194634408297 -4.261155276687139 a26.44222676499151,26.44222676499151 0 0,0 0.3539438132393411,0.28619794849722896 l -3.4581666752446623 4.20225123092578" fill="#ff3b05" stroke="none" /><path d="M 113.34407831869373 83.78471172551755 l 3.0889294818986657 -3.7535662495600346 a25.861146462921987,25.861146462921987 0 0,0 0.3412962775140576,0.2858258172625293 l -3.1530832963718405 3.699839274903686" fill="#ff3204" stroke="none" /><path d="M 113.6212207817346 84.01681056812373 l 7.849426970167927 -9.21054582450545 a33.10155602165748,33.10155602165748 0 0,0 0.43048762971220017,0.37331463039087476 l -8.006808398526891 9.074066200694904" fill="#ff960d" stroke="none" /><path d="M 113.89432698308785 84.25364557470407 l 1.7098122402351572 -1.9377195864343084 a23.584224272873605,23.584224272873605 0 0,0 0.30209034264166434,0.27121969234791293 l -1.7429135704728116 1.9080008853170982" fill="#ff1202" stroke="none" /><path d="M 114.16331599549186 84.49514656593476 l 9.285908876132261 -10.165462394000354 a34.76825077268958,34.76825077268958 0 0,0 0.4383980332786632,0.4074431935888449 l -9.45951479320577 10.004114614336869" fill="#ffac0f" stroke="none" /><path d="M 114.42810811169701 84.74124197986012 l 3.2454302099407233 -3.432274963658604 a25.723698622240157,25.723698622240157 0 0,0 0.31911688225512913,0.3069901878934598 l -3.3040303358082705 3.375901689002842" fill="#ff3104" stroke="none" /><path d="M 114.68862486808459 84.99185889309783 l 6.961091551640217 -7.1125136085461484 a30.952117635059935,30.952117635059935 0 0,0 0.37756306891009683,0.3759416931030487 l -7.082490420717636 6.9916360647929805" fill="#ff790b" stroke="none" /><path d="M 114.94478906791727 85.2469230424477 l 14.311571798941698 -14.12798261479557 a41.11022078745604,41.11022078745604 0 0,0 0.49280531901228564,0.5078792000526701 l -14.552641381657093 13.879539219192786" fill="#fffc17" stroke="none" /><path d="M 115.19652480421416 85.50635884689758 l 2.2142042384489846 -2.1117908262064344 a24.05979752650647,24.05979752650647 0 0,0 0.283255627396506,0.30215735387911835 l -2.250227187815953 2.073364055449261" fill="#ff1902" stroke="none" /><path d="M 115.4437574822437 85.77008943001954 l 11.043014920643689 -10.175057133886689 a36.01599035080329,36.01599035080329 0 0,0 0.41616709991113887,0.4595421061059314 l -11.216525661170865 9.983462240511209" fill="#ffbc11" stroke="none" /><path d="M 115.68641384162765 86.03803664274999 l 4.531030908602172 -4.032922257131178 a27.06586374944016,27.06586374944016 0 0,0 0.30675694246000607,0.35067621353110595 l -4.599779714640026 3.954330487397124" fill="#ff4406" stroke="none" /><path d="M 115.9244219780498 86.31012108654704 l 9.120894503473561 -7.84103445054671 a33.02798976546599,33.02798976546599 0 0,0 0.36690854619711105,0.4343039897845189 l -9.25451366315779 7.682871511133085" fill="#ff950d" stroke="none" /><path d="M 116.15771136456269 86.58626213691792 l 3.631617784605738 -3.0148805039584667 a25.71997374850894,25.71997374850894 0 0,0 0.27985965644235583,0.34307484782006803 l -3.682975933124503 2.951921486530298" fill="#ff3004" stroke="none" /><path d="M 116.38621287248628 86.86637796730983 l 2.0311373211267263 -1.6279655390636751 a23.603034885216243,23.603034885216243 0 0,0 0.2513677351274727,0.3192114968187232 l -2.058859136848163 1.5927616482919136" fill="#ff1202" stroke="none" /><path d="M 116.60985879189232 87.15038557335679 l 1.6200267132320436 -1.2532748704675925 a23.048214942951784,23.048214942951784 0 0,0 0.24005710204331746,0.315887007111799 l -1.6413597554994745 1.22520308747476" fill="#ff0a01" stroke="none" /><path d="M 116.82858285166822 87.43820079747576 l 1.7080738096670827 -1.2750022036467281 a23.131465870844437,23.131465870844437 0 0,0 0.23543138495069066,0.32112814448963006 l -1.7297678071313995 1.2454116154856043" fill="#ff0b01" stroke="none" /><path d="M 117.04232023915458 87.72973835380427 l 1.8966308119872743 -1.365550933367216 a23.337078900807498,23.337078900807498 0 0,0 0.2319120884399808,0.3280232024373533 l -1.9198555202311383 1.3327012305980694" fill="#ff0e01" stroke="none" /><path d="M 117.2510076193507 88.02491185347247 l 2.1480472968119866 -1.4911045366057232 a23.61486135931285,23.61486135931285 0 0,0 0.22892419139909023,0.33591800311663006 l -2.17339595387981 1.4539085102186866" fill="#ff1202" stroke="none" /><path d="M 117.45458315368197 88.32363383020206 l 2.1973125973893843 -1.4699077171153234 a23.643636008886485,23.643636008886485 0 0,0 0.22337985412074296,0.3402228430367857 l -2.2222890868680523 1.4318668101008638" fill="#ff1302" stroke="none" /><path d="M 117.65298651832404 88.62581576622439 l 3.9941554252828735 -2.573516929746961 a25.75144893153771,25.75144893153771 0 0,0 0.23687949001212646,0.37468646646661136 l -4.037862511540956 2.5043828155661436" fill="#ff3104" stroke="none" /><line stroke="#e1ed5e" stroke-width="0.3" x1="172.23445277983987" x2="176.4835382374775" y1="55.19839476539836" y2="52.563006222186495" /><path d="M 173.08426987136738 54.67131705675599 a86.0,86.0 0 0,1 12.851231095245387,41.99856678651699" fill="none" id="id99" stroke="none" /><text fill="#e1ed5e" style="font-size:6.75px; font-family:Arial;" text-anchor="middle"><textPath startOffset="22.20632615414155" xlink:href="#id99">March</textPath></text><path d="M 117.84615892207809 88.93136811851018 l 4.356228787880115 -2.7018415029881915 a26.126078107054646,26.126078107054646 0 0,0 0.233746539478844,0.384217851388924 l -4.402091125645183 2.626455878392186" fill="#ff3605" stroke="none" /><path d="M 118.03404312379186 89.2402003453031 l 3.042366610061316 -1.815192243674538 a24.542727405758477,24.542727405758477 0 0,0 0.21333511666824628,0.36465886798013897 l -3.0731614011998896 1.7625539633405036" fill="#ff2003" stroke="none" /><path d="M 118.21658344932153 89.55222093294921 l 4.246074437300785 -2.4352561909638912 a25.894856570189482,25.894856570189482 0 0,0 0.2184321891065478,0.38856649110190716 l -4.287364267699766 2.36180618992719" fill="#ff3304" stroke="none" /><path d="M 118.3937258080291 89.86733742301442 l 6.73242778365814 -3.708733062985698 a28.6863700662052,28.6863700662052 0 0,0 0.23453416205663352,0.4345561827248757 l -6.795270044933238 3.5922958969283636" fill="#ff5a08" stroke="none" /><path d="M 118.56541770881063 90.18545643968196 l 12.329799785434643 -6.5181058127617435 a34.946672224414776,34.946672224414776 0 0,0 0.2765622507687195,0.5342302404887569 l -12.440171469363479 6.304902850012641" fill="#ffae10" stroke="none" /><path d="M 118.73160827565052 90.50648371742162 l 13.4393356606792 -6.811297249235452 a36.06683487723437,36.06683487723437 0 0,0 0.2758940898804999,0.556185649913524 l -13.554589763513109 6.578952010822978" fill="#ffbd11" stroke="none" /><path d="M 118.89224826269711 90.83032412892265 l 4.625819903780065 -2.245220821038785 a26.141908820412308,26.141908820412308 0 0,0 0.19300422666384995,0.4065161235685283 l -4.6637823242856715 2.1652622818297167" fill="#ff3605" stroke="none" /><path d="M 119.04729006885535 91.15688171328212 l 25.051919313437953 -11.63089788611369 a48.62021808248822,48.62021808248822 0 0,0 0.34589275858383434,0.7621288437168708 l -25.248414388985132 11.197947033554756" fill="#a9ff21" stroke="none" /><path d="M 119.196687751892 91.48605970444005 l 22.080306722121136 -9.792856745365466 a45.1545024411226,45.1545024411226 0 0,0 0.3090057853914604,0.7132279564517476 l -22.245603217355278 9.411329644327115" fill="#d1ff1c" stroke="none" /><path d="M 119.34039704204932 91.81776055985345 l 3.1304186156411093 -1.3243696396397027 a24.399040401576862,24.399040401576862 0 0,0 0.16031135410500438,0.3882066597478134 l -3.152751656632311 1.2702884094385862" fill="#ff1d03" stroke="none" /><path d="M 119.47837535516314 92.15188598940014 l 11.226166010908146 -4.523181689902812 a33.103139092993246,33.103139092993246 0 0,0 0.20840230986937827,0.5303611470909924 l -11.302361870659224 4.329271537916036" fill="#ff960d" stroke="none" /><path d="M 119.61058180528143 92.48833698450437 l 7.267822788946884 -2.783876388216376 a28.78275117400038,28.78275117400038 0 0,0 0.17323846089014794,0.46419294644170117 l -7.314665838338657 2.6583603047453415" fill="#ff5c08" stroke="none" /><path d="M 119.7369772167798 92.82701384747503 l 11.351840455344567 -4.12558587353654 a33.07827556083739,33.07827556083739 0 0,0 0.18988020052300555,0.5368168964213281 l -11.42117373667738 3.9295713506885974" fill="#ff960d" stroke="none" /><path d="M 119.85752413597 93.16781622104841 l 3.268538733822609 -1.1245740992275493 a24.456589700724134,24.456589700724134 0 0,0 0.13353613143802312,0.39925603620006417 l -3.287412159032402 1.068144960105171" fill="#ff1e03" stroke="none" /><path d="M 119.97218684219823 93.5106431181261 l 5.708578505206269 -1.8548295938333195 a27.002354652322946,27.002354652322946 0 0,0 0.13982657113267552,0.4432884415468163 l -5.739660560107151 1.7562909858600841" fill="#ff4306" stroke="none" /><path d="M 120.08093135843002 93.85539295169968 l 23.137091125149503 -7.079767898567998 a45.196034783225656,45.196034783225656 0 0,0 0.2212326595071419,0.7458865472117944 l -23.255529681768348 6.6804519646096745" fill="#d1ff1d" stroke="none" /><path d="M 120.18372546131832 94.20196356495316 l 2.4597883334001955 -0.7066060429176072 a23.55926761887447,23.55926761887447 0 0,0 0.10861184672735935,0.3907346005419943 l -2.471586950693918 0.6641601389566609" fill="#ff1101" stroke="none" /><path d="M 120.28053869075195 94.5502522615342 l 14.773044732761697 -3.9697844495291874 a36.29712519566673,36.29712519566673 0 0,0 0.15694819572997126,0.6047854213459367 l -14.839189260361971 3.7149026026344" fill="#ffc011" stroke="none" /><path d="M 120.37134235888165 94.90015583598534 l 5.881294551562224 -1.472347043569217 a27.06279072861191,27.06279072861191 0 0,0 0.10923985653294713,0.45286973021643456 l -5.905767208355991 1.3708920816933763" fill="#ff4306" stroke="none" /><path d="M 120.45610955862082 95.25157060432595 l 16.56610063527831 -3.845450622114955 a38.006562872764526,38.006562872764526 0 0,0 0.14244427756412054,0.6385497658039602 l -16.62983929984447 3.5597226867610314" fill="#ffd614" stroke="none" /><path d="M 120.53481517161879 95.60439243477599 l 2.663112684122564 -0.5700561784238537 a23.723441428577765,23.723441428577765 0 0,0 0.08203871523155472,0.400049910925754 l -2.6725306952691152 0.524130611334688" fill="#ff1402" stroke="none" /><path d="M 120.6074358757038 95.95851677861258 l 10.305682630799597 -2.0211269217839054 a31.502002119630532,31.502002119630532 0 0,0 0.09977775554177634,0.5330167598535973 l -10.338946110251232 1.8434320844677454" fill="#ff810b" stroke="none" /><path d="M 120.67395015179393 96.31383870115 l 26.71649974984034 -4.763546719205545 a48.137846934295894,48.137846934295894 0 0,0 0.13842642698983657,0.8170006079647586 l -26.794538038350403 4.302960322924948" fill="#afff20" stroke="none" /><path d="M 120.73433829027371 96.67025291283417 l 3.5544553656526365 -0.570813364504365 a24.599997339375907,24.599997339375907 0 0,0 0.0635430893842879,0.41866956591644605 l -3.563754348476224 0.5095446861958368" fill="#ff2003" stroke="none" /><path d="M 120.78858239683441 97.02765380044208 l 10.723435379622991 -1.5332340507104922 a31.83249154143257,31.83249154143257 0 0,0 0.07288731206046024,0.543095135508429 l -10.748238690741289 1.3484205731373988" fill="#ff850c" stroke="none" /><path d="M 120.83666639777658 97.38593545837742 l 17.998213321253942 -2.2579663348005345 a39.13929697442697,39.13929697442697 0 0,0 0.07811019618504451,0.6692004598205309 l -18.034413870442574 1.9478221366551511" fill="#ffe415" stroke="none" /><path d="M 120.87857604477298 97.74499172005257 l 2.2406109629222115 -0.24199908378308693 a23.253641729228285,23.253641729228285 0 0,0 0.03955652004398594,0.39832875858265954 l -2.244444608648426 0.20339479449599243" fill="#ff0d01" stroke="none" /><path d="M 120.91429891909075 98.10471618934814 l 2.358795263681838 -0.2137574151155357 a23.368460961992987,23.368460961992987 0 0,0 0.032855517726039486,0.4009205362323633 l -2.3621252652273723 0.17312296167540364" fill="#ff0f01" stroke="none" /><path d="M 120.94382443527127 98.46500227214037 l 8.766350786745173 -0.6424962442204536 a29.78986390907761,29.78986390907761 0 0,0 0.03308009621040867,0.5117344467778757 l -8.776111473959999 0.49150273318954263" fill="#ff6909" stroke="none" /><path d="M 120.96714384426684 98.82574320788733 l 29.966398070581462 -1.6782565489554717 a51.01335633295051,51.01335633295051 0 0,0 0.04155497422646167,0.8771598278910326 l -29.99084665304142 1.1621856144414393" fill="#8fff24" stroke="none" /><path d="M 120.98425023603335 99.18683210126433 l 4.741464810040663 -0.18373813374991016 a25.745023524351364,25.745023524351364 0 0,0 0.013348556303797297,0.44297359783780044 l -4.743925060800105 0.10209438848711067" fill="#ff3104" stroke="none" /><line stroke="#e1ed5e" stroke-width="0.3" x1="184.98032266829074" x2="189.97916517819016" y1="98.17113171792111" y2="98.06355123074" /><path d="M 185.9800911702706 98.14961562048488 a86.0,86.0 0 0,1 -9.607161424134198,41.387399972396054" fill="none" id="id100" stroke="none" /><text fill="#e1ed5e" style="font-size:6.75px; font-family:Arial;" text-anchor="middle"><textPath startOffset="21.466115282336823" xlink:href="#id100">April</textPath></text><path d="M 120.99513854157772 99.54816195383933 l 9.42091101614019 -0.20274817516238278 a30.42309244338414,30.42309244338414 0 0,0 0.006761159804302646,0.5236592779027662 l -9.423005183062209 0.040552639199153806" fill="#ff720a" stroke="none" /><path d="M 120.99980553446 99.90962569577887 l 18.086143161592517 -0.07783513050111227 a39.08631064560044,39.08631064560044 0 0,0 -0.0028955561626041824,0.6728252776367132 l -18.08480330814041 -0.23349962533928562" fill="#ffe315" stroke="none" /><path d="M 120.99824983174949 100.27111621757518 l 9.045101962459244 0.116784677356109 a30.04585585625535,30.04585585625535 0 0,0 -0.011128323020250274,0.5170894428453764 l -9.041751576753985 -0.2724639359916002" fill="#ff6d0a" stroke="none" /><path d="M 120.9904718944345 100.63252640178507 l 4.964027726372934 0.14958589839785905 a25.966281023985527,25.966281023985527 0 0,0 -0.017308216767717755,0.44664816744247726 l -4.960717376754013 -0.2350113128543425" fill="#ff3404" stroke="none" /><path d="M 120.9764740272857 100.99374915477107 l 10.281040487106324 0.48705875357980843 a31.29257109409297,31.29257109409297 0 0,0 -0.030120811996335175,0.5378273322115581 l -10.271133324222461 -0.6639578021267899" fill="#ff7e0b" stroke="none" /><path d="M 120.95626037817324 101.35467743843564 l 24.783402412994988 1.6020757277631394 a45.83512999365885,45.83512999365885 0 0,0 -0.05767246992856673,0.7868950311846018 l -24.752153384402085 -2.0284438954445116" fill="#c9ff1d" stroke="none" /><path d="M 120.92983693683757 101.71520430193887 l 3.497571759092567 0.2866267016622973 a24.509296664020823,24.509296664020823 0 0,0 -0.03807741422041,0.4201810929824728 l -3.4921197485950812 -0.3467891831933407" fill="#ff1f03" stroke="none" /><path d="M 120.89721153311464 102.0752229133903 l 12.408446197044569 1.2322357854717871 a33.46948042445823,33.46948042445823 0 0,0 -0.0618670571444317,0.5728121128169172 l -12.385396838399084 -1.4456442201734958" fill="#ff9b0e" stroke="none" /><path d="M 120.8583938346157 102.4346265915055 l 11.934674021525044 1.3930350996409884 a33.01569768215298,33.01569768215298 0 0,0 -0.07074555080281994,0.5639116470668134 l -11.908926961475377 -1.5982645009951968" fill="#ff950d" stroke="none" /><path d="M 120.81339534386255 102.79330883721812 l 7.507039348320446 1.00749920935851 a28.57434448873891,28.57434448873891 0 0,0 -0.06962064058785113,0.4869265981184216 l -7.488584656715993 -1.136571279457341" fill="#ff5908" stroke="none" /><path d="M 120.76222939487914 103.15116336523771 l 1.8319587093281706 0.2780434153611124 a22.852938437592844,22.852938437592844 0 0,0 -0.06237573042534762,0.38841373290092396 l -1.8269012245415346 -0.30953637795524125" fill="#ff0701" stroke="none" /><path d="M 120.70491114924044 103.5080841355445 l 11.884590170284955 2.013635409169782 a33.05397075974121,33.05397075974121 0 0,0 -0.09987581140580996,0.560156590819256 l -11.848167916539957 -2.217910750722256" fill="#ff960d" stroke="none" /><path d="M 120.64145759157962 103.86396538481128 l 14.339758646483899 2.6843225964413024 a35.58884045567622,35.58884045567622 0 0,0 -0.11790085789618052,0.6011739343438154 l -14.291427855612055 -2.9307602578530627" fill="#ffb711" stroke="none" /><path d="M 120.5718875245553 104.21870165774334 l 6.015546820473279 1.2336154042001004 a27.14073371143758,27.14073371143758 0 0,0 -0.09779189076189705,0.45685115704280443 l -5.993420890986939 -1.3369803806590739" fill="#ff4506" stroke="none" /><path d="M 120.49622156327973 104.57218783832717 l 10.360039232381427 2.3110623212499566 a31.61467954999978,31.61467954999978 0 0,0 -0.12305552450970986,0.5301199789255376 l -10.318723141941163 -2.4890509575240594" fill="#ff820c" stroke="none" /><path d="M 120.41448212921028 104.9243191809786 l 4.92295438870261 1.1875000585336346 a26.0641520812732,26.0641520812732 0 0,0 -0.10895893596326801,0.43523678688642536 l -4.901784138444281 -1.272064684817456" fill="#ff3505" stroke="none" /><path d="M 120.32669344350535 105.2749913415812 l 9.079955260386214 2.3563441596442063 a30.38072200469157,30.38072200469157 0 0,0 -0.13571780825646734,0.5050564527862362 l -9.038049375787969 -2.5122915456059904" fill="#ff720a" stroke="none" /><path d="M 120.23288151984713 105.62410040840565 l 17.822998198753723 4.954229151705204 a39.4987472894892,39.4987472894892 0 0,0 -0.18772694348886884,0.6535021177460323 l -17.735078618378754 -5.260288744955818" fill="#ffe915" stroke="none" /><path d="M 120.13307415673323 105.97154293290107 l 7.227465703927252 2.1436925832132654 a28.538678822762527,28.538678822762527 0 0,0 -0.1437441984521178,0.46976435752518175 l -7.189494732969002 -2.267783913290504" fill="#ff5808" stroke="none" /><path d="M 120.02730092923936 106.31721596034902 l 28.66579567534062 9.04205826817041 a51.05805481772508,51.05805481772508 0 0,0 -0.2715990652941493,0.8358959719679959 l -28.505904359030225 -9.5341531401162" fill="#8eff24" stroke="none" /><path d="M 119.9155931802556 106.66101706037122 l 3.249836652935892 1.0869481613074337 a24.426790710874414,24.426790710874414 0 0,0 -0.13680069324902613,0.3976068495667423 l -3.2306451287436353 -1.1427277139634762" fill="#ff1e03" stroke="none" /><path d="M 119.79798401119884 107.00284435728193 l 11.36322513094931 4.019343431320106 a33.053132663151686,33.053132663151686 0 0,0 -0.19434571341309204,0.534755935150209 l -11.292355156530991 -4.214347163476446" fill="#ff960d" stroke="none" /><path d="M 119.67450827220406 107.3425965602758 l 16.854342161021034 6.29010052322698 a38.989836415961975,38.989836415961975 0 0,0 -0.24007661363320418,0.6267642812885543 l -16.743571267794323 -6.579288371348678" fill="#ffe215" stroke="none" /><path d="M 119.54520255179757 107.68017299344265 l 4.587481635337724 1.8026240695261848 a25.928939164830098,25.928939164830098 0 0,0 -0.1668062807736979,0.41399950919679823 l -4.555772740306634 -1.8813229465657964" fill="#ff3304" stroke="none" /><path d="M 119.41010516605496 108.01547362559984 l 7.046772530165207 2.9099903827373574 a28.623978431207348,28.623978431207348 0 0,0 -0.19198377506705083,0.45379293316815295 l -6.995637773905847 -3.030857841571674" fill="#ff5908" stroke="none" /><path d="M 119.26925614724726 108.34839909993367 l 18.113413514720197 7.847630646843568 a40.74034082594641,40.74034082594641 0 0,0 -0.2843266742442354,0.6410815903708982 l -17.97564575574469 -8.158260573707153" fill="#fff817" stroke="none" /><path d="M 119.12269723197855 108.67885076344098 l 23.22874636202925 10.54238430134973 a46.50914589532218,46.50914589532218 0 0,0 -0.3371367883032192,0.7261626489084423 l -23.043834956886197 -10.940667017537002" fill="#c1ff1e" stroke="none" /><path d="M 118.97047184881838 109.00673069616215 l 2.350288957009356 1.1158615274646229 a23.60173117941032,23.60173117941032 0 0,0 -0.17740268594880368,0.36550207799442574 l -2.3307330144458382 -1.156152561424324" fill="#ff1202" stroke="none" /><path d="M 118.81262510543309 109.33194174019688 l 10.74377907099218 5.329416803776649 a32.99297595239257,32.99297595239257 0 0,0 -0.2567502865642681,0.5065926732972986 l -10.650450114641641 -5.5135636887766415" fill="#ff950d" stroke="none" /><path d="M 118.64920377521936 109.65438752849418 l 12.026702489147542 6.226027015395743 a34.54270966826452,34.54270966826452 0 0,0 -0.27790019797947746,0.52568244515316 l -11.917749782943172 -6.432124475635037" fill="#ffa90f" stroke="none" /><line stroke="#e1ed5e" stroke-width="0.3" x1="174.80103733775053" x2="179.2010983576182" y1="140.37084112569926" y2="142.7455964860345" /><path d="M 175.68104954172406 140.8457921977663 a86.0,86.0 0 0,1 -30.038265399797805,32.042727171017184" fill="none" id="id101" stroke="none" /><text fill="#e1ed5e" style="font-size:6.75px; font-family:Arial;" text-anchor="middle"><textPath startOffset="22.206326154141568" xlink:href="#id101">May</textPath></text><path d="M 118.48025628344425 109.97397251340804 l 4.375058965906416 2.3612615107282084 a25.971588969052508,25.971588969052508 0 0,0 -0.21571703810627169,0.3915890834122086 l -4.333765518348635 -2.436221112538222" fill="#ff3404" stroke="none" /><path d="M 118.30583269289576 110.29060199501025 l 15.771552339954194 8.86595932000007 a39.09273605278678,39.09273605278678 0 0,0 -0.3347976449540766,0.5837479141549087 l -15.616602698847739 -9.136127080013292" fill="#ffe315" stroke="none" /><path d="M 118.12598468904814 110.60418214915192 l 7.003040508013791 4.096964574274251 a29.113426839488987,29.113426839488987 0 0,0 -0.2567792106968514,0.4303767270405266 l -6.931480421618713 -4.216903395200882" fill="#ff6008" stroke="none" /><path d="M 117.94076556474637 110.91462005526583 l 23.06377773950433 14.031305975060617 a47.99658109803957,47.99658109803957 0 0,0 -0.43547837496289576,0.7021297997734249 l -22.818834724873472 -14.426232106199317" fill="#b0ff20" stroke="none" /><path d="M 117.75023020441432 111.22182372390056 l 4.672451301242261 2.9539574561692534 a26.52789886080945,26.52789886080945 0 0,0 -0.24733493246533225,0.3838693077746803 l -4.620911505399878 -3.033948363865387" fill="#ff3c05" stroke="none" /><path d="M 117.55443506779139 111.5257021239791 l 10.06368857587526 6.607508378714413 a33.03897814297307,33.03897814297307 0 0,0 -0.31622533367336425,0.47271396782498043 l -9.948460136791173 -6.7797592607452" fill="#ff950d" stroke="none" /><path d="M 117.35343817320211 111.8261652097733 l 13.63444303117939 9.291713504875823 a37.4995144361029,37.4995144361029 0 0,0 -0.36810075655803,0.5302765940735598 l -13.472481367459224 -9.525031361136403" fill="#ffcf13" stroke="none" /><path d="M 117.14729908036423 112.12312394758627 l 4.189135555403095 2.9617148061264014 a26.130361711845545,26.130361711845545 0 0,0 -0.2628219250512674,0.3650366668410445 l -4.137533837976226 -3.033385078418577" fill="#ff3605" stroke="none" /><path d="M 116.93607887273984 112.41649034213515 l 4.9681497827971075 3.6423415514243915 a27.160289298526457,27.160289298526457 0 0,0 -0.27967174067181944,0.37466599993257604 l -4.904716775430196 -3.7273204308662824" fill="#ff4506" stroke="none" /><path d="M 116.71984013943494 112.70617746262583 l 15.694826770119523 11.927222540600729 a40.71259051664886,40.71259051664886 0 0,0 -0.4288260702702402,0.5543155021602861 l -15.487193882631214 -12.195616036874268" fill="#fff817" stroke="none" /><path d="M 116.498646956653 112.99209946851258 l 20.346704630021833 16.022308441668454 a46.897929591017736,46.897929591017736 0 0,0 -0.5048943734400828,0.6299333619253835 l -20.067892344526893 -16.37016963717209" fill="#bdff1f" stroke="none" /><path d="M 116.27256486870786 113.27417163493432 l 3.7688452585133834 3.074395415268523 a25.86375387453384,25.86375387453384 0 0,0 -0.2843830584475585,0.34255771376103283 l -3.7153662001722814 -3.1388143861433266" fill="#ff3304" stroke="none" /><path d="M 116.0416608686014 113.55231037782055 l 8.291675864267308 7.004970731227733 a31.854561418290018,31.854561418290018 0 0,0 -0.3574650477408438,0.4158126086151872 l -8.169868306955685 -7.146660439004448" fill="#ff860c" stroke="none" /><path d="M 115.80600337817218 113.82643327865902 l 11.955764660002632 10.458404848575453 a36.88453778307932,36.88453778307932 0 0,0 -0.4221367733797435,0.4742751399333511 l -11.77396903697455 -10.662654158249671" fill="#ffc812" stroke="none" /><path d="M 115.56566222782051 114.09645910891815 l 3.6377697602016084 3.294409959679634 a25.907800506405454,25.907800506405454 0 0,0 -0.3022004188082985,0.3279788693088206 l -3.580522933397588 -3.3565400837897896" fill="#ff3304" stroke="none" /><path d="M 115.32070863581623 114.36230785411682 l 12.068257069236045 11.313316336151013 a37.54188487479547,37.54188487479547 0 0,0 -0.44602163453079113,0.4676519006345386 l -11.871728883326291 -11.519375353368059" fill="#ffd013" stroke="none" /><path d="M 115.07121518719521 114.62390073753431 l 4.331409676234455 4.202853212039929 a27.035319784844198,27.035319784844198 0 0,0 -0.32694632923727357,0.33119490537732293 l -4.2584227219416455 -4.276788611397917" fill="#ff4306" stroke="none" /><path d="M 114.81725581225074 114.88116024355365 l 44.45176743675221 44.643480730660954 a84.0,84.0 0 0,0 -1.033400190496823,1.011399588309712 l -43.67671729387959 -45.40203042189324" fill="#4dd2ff" stroke="none" /><path d="M 114.55890576462653 115.13401014063108 l 2.3959368311826035 2.4905808778245886 a24.455937847821172,24.455937847821172 0 0,0 -0.30589040518991506,0.2892384708234892 l -2.3527105916018805 -2.5314539853939992" fill="#ff1e03" stroke="none" /><path d="M 114.29624159901734 115.38237550388516 l 8.758445710388578 9.423854501511064 a33.86543450208637,33.86543450208637 0 0,0 -0.4304142726717744,0.39317323306175994 l -8.59493188824994 -9.573220501159408" fill="#ffa00e" stroke="none" /><path d="M 114.0293411484842 115.62618273729858 l 6.0802251648349905 6.772285918779466 a30.10126335300717,30.10126335300717 0 0,0 -0.3885322675716801,0.34283455225986637 l -5.962750544356722 -6.8759436128116205" fill="#ff6e0a" stroke="none" /><path d="M 113.75828350139079 115.86535959552629 l 3.1378948048078934 3.61846224830143 a25.789535765439382,25.789535765439382 0 0,0 -0.33788531581539805,0.2879531964032629 l -3.075144012415448 -3.67193983492764" fill="#ff3104" stroke="none" /><path d="M 113.48314897796784 116.09983520530334 l 3.9231359150477703 4.684502249695952 a27.110282868684898,27.110282868684898 0 0,0 -0.3603471320120513,0.29654115733807324 l -3.8419186544910278 -4.751338525891204" fill="#ff4406" stroke="none" /><path d="M 113.20401910651253 116.32954008644616 l 10.475516770203065 12.955174454488558 a37.66052210313466,37.66052210313466 0 0,0 -0.5075966000783263,0.40326543818358723 l -10.250962677407387 -13.133573806677271" fill="#ffd113" stroke="none" /><path d="M 112.92097659922987 116.55440617244103 l 14.847970337829324 19.02327814938024 a45.131873833205475,45.131873833205475 0 0,0 -0.6165256205715653,0.4727255558531385 l -14.518315988764265 -19.27604304706075" fill="#d1ff1c" stroke="none" /><path d="M 112.63410532772338 116.77436683061366 l 2.744576476978241 3.6439883494150282 a25.56194598046215,25.56194598046215 0 0,0 -0.3537469374890985,0.2616935274595625 l -2.681444569070578 -3.6906918256143597" fill="#ff2e04" stroke="none" /><path d="M 112.34349029814194 116.9893568818739 l 6.199304546905728 8.532610697855782 a31.546886848091667,31.546886848091667 0 0,0 -0.44206603289699115,0.31540237689085604 l -6.0515111861598525 -8.638057336590858" fill="#ff810b" stroke="none" /><path d="M 112.04921762599082 117.19931262002967 l 7.214431050954431 10.298034185502644 a33.573683767088966,33.573683767088966 0 0,0 -0.47617574132742424,0.3275180168872285 l -7.036098425004123 -10.420692991754965" fill="#ff9c0e" stroke="none" /><path d="M 111.7513745106137 117.40417183066458 l 1.9777823173851068 2.9291606070703593 a24.534346439863246,24.534346439863246 0 0,0 -0.35203901581951813,0.23331226358437412 l -1.9270686028256245 -2.962770891746052" fill="#ff1f03" stroke="none" /><path d="M 111.45004920935366 117.60387380957326 l 4.174722945184395 6.418426207017545 a28.65666419819876,28.65666419819876 0 0,0 -0.41581938446768435,0.2653956049805235 l -4.06362175866978 -6.489336240821877" fill="#ff5a08" stroke="none" /><path d="M 111.1453310114006 117.79835938074945 l 1.89921014986454 3.032913491064471 a24.57848619357814,24.57848619357814 0 0,0 -0.36050880865707824,0.2214539550344981 l -1.8467221412751529 -3.0651559129273473" fill="#ff2003" stroke="none" /><line stroke="#e1ed5e" stroke-width="0.3" x1="143.8653032363475" x2="146.44561519142675" y1="172.8068346515853" y2="177.08958963109032" /><path d="M 144.38136562736335 173.6633856474863 a86.0,86.0 0 0,1 -40.68145358897372,12.25698825130547" fill="none" id="id102" stroke="none" /><text fill="#e1ed5e" style="font-size:6.75px; font-family:Arial;" text-anchor="middle"><textPath startOffset="21.466115282336833" xlink:href="#id102">June</textPath></text><path d="M 110.8373102113329 117.98757091392108 l 9.337268967506466 15.497829666234125 a39.09329478384647,39.09329478384647 0 0,0 -0.5793852078138848,0.3423109932664287 l -9.069115888664198 -15.656259231794303" fill="#ffe315" stroke="none" /><path d="M 110.5260780823613 118.17145234162733 l 0.9775005529699674 1.6874855547550218 a22.950157641977555,22.950157641977555 0 0,0 -0.34354335019564336,0.19507288017177182 l -0.948308435853125 -1.7040616007214222" fill="#ff0801" stroke="none" /><path d="M 110.21172684928248 118.3499491758327 l 4.400518837158379 7.907506556036051 a30.049487608143284,30.049487608143284 0 0,0 -0.45414389913620956,0.24763546382943474 l -4.263752126153521 -7.982082671625256" fill="#ff6d0a" stroke="none" /><path d="M 109.89434966115114 118.52300852407294 l 4.993529023572835 9.348282993476097 a31.598383227425714,31.598383227425714 0 0,0 -0.4819642672951738,0.2521409256108211 l -4.831873853751166 -9.432853338031634" fill="#ff820c" stroke="none" /><path d="M 109.57404056367764 118.69057910512821 l 1.5757550166575427 3.0762115110391006 a24.456310335194292,24.456310335194292 0 0,0 -0.37633148177694065,0.18870041747636576 l -1.5225696271978415 -3.1028797694247685" fill="#ff1e03" stroke="none" /><path d="M 109.2508944713604 118.85261126421891 l 3.3049721032660124 6.735278895987605 a28.502454425726462,28.502454425726462 0 0,0 -0.4423137537259503,0.21233748115100443 l -3.1885456815398294 -6.7911706536381695" fill="#ff5808" stroke="none" /><path d="M 108.92500713936063 119.00905698771935 l 1.8221165650285949 3.8808616152409376 a25.287329664628334,25.287329664628334 0 0,0 -0.3956046236385874,0.1816026795309842 l -1.755043945622588 -3.911651365105996" fill="#ff2a04" stroke="none" /><path d="M 108.59647513512805 119.15986991738527 l 16.18967047866529 36.08362445079521 a60.549126206703896,60.549126206703896 0 0,0 -0.9545982787894307,0.41846783236382945 l -15.566151525218105 -36.3569568364535" fill="#30ff33" stroke="none" /><path d="M 108.2653958097858 119.30500536409082 l 1.047290020747633 2.446094528752615 a23.660863549893353,23.660863549893353 0 0,0 -0.3757892041345548,0.15707991780565078 l -1.005029357115617 -2.4637594895782393" fill="#ff1302" stroke="none" /><path d="M 107.93186726928326 119.44442032107085 l 0.5196790351852476 1.273956969920856 a22.3758752344675,22.3758752344675 0 0,0 -0.3578849950654475,0.14240982544107972 l -0.4976729640779339 -1.2827136397680046" fill="#ff0000" stroke="none" /><path d="M 107.59598834532513 119.57807347666477 l 1.7163064779442982 4.423647431522086 a25.744930402508082,25.744930402508082 0 0,0 -0.41452988731153084,0.15673973346874562 l -1.6399063698724927 -4.452535415097462" fill="#ff3104" stroke="none" /><path d="M 107.2578585660854 119.70592522655815 l 1.6329546138593747 4.433660593696573 a25.724816084359524,25.724816084359524 0 0,0 -0.4168405580907202,0.1494641936546424 l -1.5563944951389197 -4.4611123283911756" fill="#ff3104" stroke="none" /><path d="M 106.91757812671514 119.82793768551818 l 1.8182373626249417 5.211635700127291 a26.51970413860078,26.51970413860078 0 0,0 -0.4323094000091872,0.14666282033345615 l -1.7282582296785276 -5.24216150735887" fill="#ff3c05" stroke="none" /><path d="M 106.57524785965236 119.94407469862006 l 1.4985585580955836 4.545435314509169 a25.78609025723801,25.78609025723801 0 0,0 -0.4227428794821671,0.13534892023005812 l -1.420094333522476 -4.570557081398934" fill="#ff3104" stroke="none" /><path d="M 106.2309692047433 120.05430185196036 l 0.7582622926853704 2.4404583622233424 a23.555542745143253,23.555542745143253 0 0,0 -0.38824584927317096,0.11697528955674133 l -0.7161414689719536 -2.4531490208858093" fill="#ff1101" stroke="none" /><path d="M 105.88484417918355 120.15858648285463 l 1.3481246375600375 4.618013029478623 a25.810767545707307,25.810767545707307 0 0,0 -0.4275600741166073,0.1208327477274989 l -1.2684333953388245 -4.640534570544641" fill="#ff3204" stroke="none" /><path d="M 105.53697534728816 120.25689768951611 l 1.308381153497131 4.786682530248791 a25.962276784724473,25.962276784724473 0 0,0 -0.43209827917306626,0.1141210828097525 l -1.2257924315125672 -4.808494962362128" fill="#ff3404" stroke="none" /><path d="M 105.18746579009965 120.34920634021253 l 0.7132360030678323 2.797856830862485 a23.88733587275122,23.88733587275122 0 0,0 -0.39931289496976075,0.0981413943491004 l -0.6649698233548604 -2.809719483525615" fill="#ff1602" stroke="none" /><path d="M 104.83641907484287 120.43548508189849 l 0.4721873379605221 1.995149128194008 a23.05026362350395,23.05026362350395 0 0,0 -0.38689302278418186,0.08805559237014128 l -0.43777416578347816 -2.0029814541418336" fill="#ff0a01" stroke="none" /><path d="M 104.48393922423573 120.51570834832081 l 0.7389290694922747 3.380878402156198 a24.46068706182847,24.46068706182847 0 0,0 -0.4121142829418501,0.08636255490258356 l -0.6806233251210465 -3.3930969377853226" fill="#ff1e03" stroke="none" /><path d="M 104.13013068566511 120.58985236759428 l 0.9067346609105261 4.52032495473491 a25.610369338967942,25.610369338967942 0 0,0 -0.43297669133873673,0.08298101338827948 l -0.828790355000085 -4.535263166471658" fill="#ff2f04" stroke="none" /><path d="M 103.7750983002368 120.6578951692458 l 0.8190810414227551 4.482132369312486 a25.55635866986533,25.55635866986533 0 0,0 -0.43342492503341573,0.0753564788888128 l -0.7418071449172894 -4.495567426722306" fill="#ff2e04" stroke="none" /><path d="M 103.41894727170886 120.7198165907248 l 0.790867782186646 4.792889182590469 a25.857700954720613,25.857700954720613 0 0,0 -0.43978302050295287,0.06868506320793691 l -0.708248898075176 -4.805792553145512" fill="#ff3204" stroke="none" /><path d="M 103.06178313531738 120.77559828337769 l 0.7072034621477957 4.798698792451709 a25.850530572788024,25.850530572788024 0 0,0 -0.4407779000364818,0.06108780056768414 l -0.6244969709244834 -4.810161158511995" fill="#ff3204" stroke="none" /><path d="M 102.70371172650421 120.8252237178851 l 0.6195693819394973 4.772206615505 a25.81225749519979,25.81225749519979 0 0,0 -0.4411100649601749,0.053412285802809746 l -0.537331893927942 -4.78216443003316" fill="#ff3204" stroke="none" /><path d="M 102.34483914955558 120.86867818915974 l 0.5623388255396206 5.004721959576861 a26.036215528289087,26.036215528289087 0 0,0 -0.4457987815106569,0.04620886646482496 l -0.476107447423361 -5.013660194497444" fill="#ff3505" stroke="none" /><path d="M 101.98527174616119 120.90594882070398 l 0.47790334844910626 5.032571970683187 a26.05521238431828,26.05521238431828 0 0,0 -0.4468539425077706,0.038556438422900935 l -0.39120508819979394 -5.040052661384752" fill="#ff3505" stroke="none" /><path d="M 101.62511606390274 120.93702456842531 l 0.8274716179593513 10.660650017380249 a31.69271565466873,31.69271565466873 0 0,0 -0.5442654036722908,0.03753572881458365 l -0.6438434535081302 -10.673314090711118" fill="#ff830c" stroke="none" /><path d="M 101.26447882468166 120.96189622390904 l 0.3659520400018125 6.066569511258534 a27.077597101693488,27.077597101693488 0 0,0 -0.4654921729716158,0.024060628301563924 l -0.26147179861671704 -6.0719699463223" fill="#ff4406" stroke="none" /><path d="M 100.90346689309514 120.98055641714683 l 0.1479369897452064 3.435433421250245 a24.438617184971022,24.438617184971022 0 0,0 -0.42043690581638715,0.014480697134291566 l -0.08877973225416695 -3.4374709168106308" fill="#ff1e03" stroke="none" /><line stroke="#e1ed5e" stroke-width="0.3" x1="102.19456741930631" x2="102.32365962044197" y1="184.97166512339345" y2="189.96999836594603" /><path d="M 102.22038585953345 185.97133177190398 a86.0,86.0 0 0,1 -42.740103519485714,-10.115201625700543" fill="none" id="id103" stroke="none" /><text fill="#e1ed5e" style="font-size:6.75px; font-family:Arial;" text-anchor="middle"><textPath startOffset="22.20632615414155" xlink:href="#id103">July</textPath></text><path d="M 100.54218724476979 120.99299961872073 l 0.07946322186893982 3.076744063031689 a24.07777004225958,24.07777004225958 0 0,0 -0.4144131747984444,0.00713449862643472 l -0.026490357177827488 -3.0776560389372833" fill="#ff1902" stroke="none" /><path d="M 100.18074693466247 120.99922214144158 l 0.04167396210284531 4.841690894210283 a25.84187024136295,25.84187024136295 0 0,0 -0.44484179353059816,0.0 l 0.04167396210284198 -4.841690894210283" fill="#ff3204" stroke="none" /><path d="M 99.81925306533755 120.99922214144158 l -0.040566289910782594 4.71300127375065 a25.713175853949476,25.713175853949476 0 0,0 -0.4425608692617077,-0.007619086713150658 l 0.12168684906515821 -4.71160470975834" fill="#ff3004" stroke="none" /><path d="M 99.45781275523022 120.99299961872073 l -0.05724785258906767 2.216585062020742 a23.21732421034894,23.21732421034894 0 0,0 -0.3994260345605077,-0.0137570402455288 l 0.09539423882421841 -2.2152712233491196" fill="#ff0c01" stroke="none" /><path d="M 99.09653310690486 120.98055641714683 l -0.15093771566513067 3.505117103006091 a24.50836544558802,24.50836544558802 0 0,0 -0.42132439759713497,-0.02177765881701173 l 0.21125018167575457 -3.5019996374268776" fill="#ff1f03" stroke="none" /><path d="M 98.73552117531835 120.96189622390904 l -0.2857750964641411 4.737436324382174 a25.74604786462745,25.74604786462745 0 0,0 -0.4421420772739413,-0.030492706312202193 l 0.36727993451701246 -4.7318152735536865" fill="#ff3104" stroke="none" /><path d="M 98.37488393609728 120.93702456842531 l -0.3728144278990525 4.803118380136293 a25.817565440266772,25.817565440266772 0 0,0 -0.44277823311388925,-0.03820476906670611 l 0.45543697875448347 -4.795989358790923" fill="#ff3204" stroke="none" /><path d="M 98.01472825383883 120.90594882070398 l -0.4777977072122943 5.031459513260496 a26.054094922198917,26.054094922198917 0 0,0 -0.446104917093641,-0.046240598669710045 l 0.5643352209115285 -5.022489546135026" fill="#ff3505" stroke="none" /><path d="M 97.65516085044442 120.86867818915974 l -0.46341327570448143 4.124301029814386 a25.150254311319628,25.150254311319628 0 0,0 -0.4297969797912467,-0.05204242873911507 l 0.5343376785471174 -4.115713072349922" fill="#ff2803" stroke="none" /><path d="M 97.2962882734958 120.8252237178851 l -0.6553333672003548 5.04767717947062 a26.09003995370514,26.09003995370514 0 0,0 -0.4448617791530983,-0.06165378900085313 l 0.7421237375402843 -5.035648824977162" fill="#ff3605" stroke="none" /><path d="M 96.93821686468263 120.77559828337769 l -0.7534062993020112 5.112206164412876 a26.167424205471132,26.167424205471132 0 0,0 -0.44505073656841343,-0.06950777212130932 l 0.8412928994789417 -5.098480084944461" fill="#ff3705" stroke="none" /><path d="M 96.58105272829116 120.7198165907248 l -1.1699658152275132 7.090333714569282 a28.18621264594632,28.18621264594632 0 0,0 -0.47802612496006164,-0.0831109691974375 l 1.2918409116596248 -7.069144166850839" fill="#ff5307" stroke="none" /><path d="M 96.22490169976321 120.6578951692458 l -0.8682135161632076 4.750992523902445 a25.82967127989322,25.82967127989322 0 0,0 -0.4366842766347366,-0.08369158093438303 l 0.9498654073696393 -4.735343744619594" fill="#ff3204" stroke="none" /><path d="M 95.86986931433489 120.58985236759428 l -1.1000995955667154 5.48430303694403 a26.593549760322112,26.593549760322112 0 0,0 -0.4480488083859261,-0.09389298409423852 l 1.1943398653820283 -5.46455407212325" fill="#ff3d05" stroke="none" /><path d="M 95.51606077576429 120.51570834832081 l -1.1136726631935576 5.095471283393932 a26.215754442133644,26.215754442133644 0 0,0 -0.4400250099674602,-0.10014825967015378 l 1.2012178225538805 -5.075546290146092" fill="#ff3805" stroke="none" /><path d="M 95.16358092515715 120.4354850818985 l -1.0997759318079445 4.646920438469764 a25.775288123417482,25.775288123417482 0 0,0 -0.43087286812014497,-0.1058980678991328 l 1.1796020846713 -4.6273011122566015" fill="#ff3104" stroke="none" /><path d="M 94.81253420990036 120.34920634021253 l -0.633231009883611 2.4840160884984366 a23.563458101822086,23.563458101822086 0 0,0 -0.39217399080942206,-0.103576715386704 l 0.6758954435045224 -2.472748023808151" fill="#ff1101" stroke="none" /><path d="M 94.46302465271185 120.25689768951611 l -1.3242424022803283 4.844710546209994 a26.02243349548359,26.02243349548359 0 0,0 -0.43106635919758307,-0.12182365891471766 l 1.4074399295825253 -4.821198093956754" fill="#ff3505" stroke="none" /><path d="M 94.11515582081647 120.15858648285463 l -2.5639445982375184 8.782815202422206 a30.149407345983125,30.149407345983125 0 0,0 -0.496926875630469,-0.1497199912741417 l 2.7147464483082335 -8.737379842042339" fill="#ff6e0a" stroke="none" /><path d="M 93.76903079525671 120.05430185196036 l -2.6678023228382615 8.586290720684707 a29.991193334249772,29.991193334249772 0 0,0 -0.4916822714396698,-0.15742113650060646 l 2.8152059393688713 -8.539096737524394" fill="#ff6c0a" stroke="none" /><path d="M 93.42475214034765 119.94407469862007 l -1.566494612270277 4.751499293861773 a26.003064152081276,26.003064152081276 0 0,0 -0.4238874236015444,-0.14380562867234334 l 1.648051768809047 -4.723830678291306" fill="#ff3405" stroke="none" /><path d="M 93.08242187328487 119.8279376855182 l -1.664462960714509 4.770870275746652 a26.052884338236275,26.052884338236275 0 0,0 -0.4221565204513311,-0.15137030862427522 l 1.7463390417955666 -4.741512426082418" fill="#ff3505" stroke="none" /><path d="M 92.7421414339146 119.70592522655815 l -1.7366194569994458 4.7151226294941315 a26.0247615415656,26.0247615415656 0 0,0 -0.41903556546742166,-0.15844339541175026 l 1.8175252432271503 -4.684530983975748" fill="#ff3505" stroke="none" /><path d="M 92.40401165467489 119.57807347666478 l -1.8654567916456215 4.808070849247484 a26.15727392455357,26.15727392455357 0 0,0 -0.41836557235511507,-0.16647629532149982 l 1.9479434400425946 -4.775247709519918" fill="#ff3705" stroke="none" /><path d="M 92.06813273071674 119.44442032107085 l -1.9317990964114584 4.735670975225928 a26.11453099848788,26.11453099848788 0 0,0 -0.4147591147539972,-0.17336934360513165 l 2.013029670662918 -4.701716588600823" fill="#ff3605" stroke="none" /><path d="M 91.7346041902142 119.30500536409082 l -2.071709285810148 4.838771160607995 a26.263619069579754,26.263619069579754 0 0,0 -0.4140638706001187,-0.18151343265560957 l 2.15469383106801 -4.802393174657933" fill="#ff3805" stroke="none" /><path d="M 91.40352486487194 119.15986991738527 l -4.294978309150675 9.572670706048926 a31.49203808239953,31.49203808239953 0 0,0 -0.4926734470752129,-0.22616221544559867 l 4.459119751993308 -9.497321420269254" fill="#ff810b" stroke="none" /><path d="M 91.07499286063937 119.00905698771935 l -2.117517912582319 4.510026495696157 a25.98239110287303,25.98239110287303 0 0,0 -0.40320629121378765,-0.19356352258858592 l 2.1948368717963485 -4.472908696608009" fill="#ff3405" stroke="none" /><path d="M 90.7491055286396 118.85261126421891 l -2.217357906534242 4.518804832867689 a26.033514994833958,26.033514994833958 0 0,0 -0.400601363802993,-0.20086984015871454 l 2.2948131780199956 -4.479967151799672" fill="#ff3505" stroke="none" /><path d="M 90.42595943632237 118.69057910512821 l -2.2299421341183683 4.353324970830067 a25.891224818301545,25.891224818301545 0 0,0 -0.39491404066827457,-0.20660036128741713 l 2.3045470773131385 -4.3142951905979325" fill="#ff3304" stroke="none" /><path d="M 90.10565033884886 118.52300852407294 l -2.376019846260177 4.448097891511482 a26.042920301005275,26.042920301005275 0 0,0 -0.39359184837438815,-0.2146176577887779 l 2.452234506503206 -4.406539581962939" fill="#ff3505" stroke="none" /><line stroke="#e1ed5e" stroke-width="0.3" x1="58.666819895761336" x2="56.23545636021788" y1="174.27360380694188" y2="178.64263932499728" /><path d="M 58.180547188652646 175.14741091055294 a86.0,86.0 0 0,1 -31.652253787137756,-30.449443065178592" fill="none" id="id104" stroke="none" /><text fill="#e1ed5e" style="font-size:6.75px; font-family:Arial;" text-anchor="middle"><textPath startOffset="22.20632615414155" xlink:href="#id104">August</textPath></text><path d="M 89.7882731507175 118.34994917583269 l -2.4832078123060684 4.462197023224206 a26.10661564180905,26.10661564180905 0 0,0 -0.39079270564365587,-0.22190229732758227 l 2.559649284870931 -4.41879156010199" fill="#ff3605" stroke="none" /><path d="M 89.4739219176387 118.17145234162733 l -2.6825953481181326 4.631036663302483 a26.35189857700955,26.35189857700955 0 0,0 -0.39055035697937285,-0.23074403491003936 l 2.7619135761258873 -4.5841740560986945" fill="#ff3905" stroke="none" /><path d="M 89.1626897886671 117.98757091392108 l -2.677958554245807 4.444827033618103 a26.189214716798737,26.189214716798737 0 0,0 -0.3841344223910906,-0.2359667366250615 l 2.754072176569206 -4.398071830164664" fill="#ff3705" stroke="none" /><path d="M 88.8546689885994 117.79835938074946 l -1.5381783463681193 2.456369485333601 a23.898231128415024,23.898231128415024 0 0,0 -0.3467726630341307,-0.22132672052907326 l 1.5802328114491735 -2.429528335980723" fill="#ff1602" stroke="none" /><path d="M 88.54995079064634 117.60387380957326 l -1.4083635164983184 2.165287953713758 a23.583013688910963,23.583013688910963 0 0,0 -0.3383885097347953,-0.2242654524907641 l 1.4454267249730754 -2.1407244801316754" fill="#ff1202" stroke="none" /><path d="M 88.24862548938628 117.40417183066458 l -3.078553610857284 4.559439066883665 a26.501452257317826,26.501452257317826 0 0,0 -0.37587024296844185,-0.2585269804815518 l 3.156580738448616 -4.505771297037012" fill="#ff3c05" stroke="none" /><path d="M 87.95078237400918 117.19931262002967 l -3.210011469659026 4.582039472957608 a26.594574100598198,26.594574100598198 0 0,0 -0.37266935168113413,-0.26588968743950964 l 3.2884081491890473 -4.52610552367388" fill="#ff3d05" stroke="none" /><path d="M 87.65650970185807 116.9893568818739 l -3.905224145613883 5.375079909410436 a27.64396415252471,27.64396415252471 0 0,0 -0.382559593330196,-0.2830084414374923 l 3.9971687093626436 -5.307061519233177" fill="#ff4c07" stroke="none" /><path d="M 87.36589467227662 116.77436683061367 l -3.8664639201081137 5.133524096154829 a27.426710892151604,27.426710892151604 0 0,0 -0.37466359175586034,-0.2872760656832474 l 3.954256240357461 -5.066208688644216" fill="#ff4906" stroke="none" /><path d="M 87.07902340077011 116.55440617244103 l -5.880218643107273 7.533759314025827 a30.55690853217803,30.55690853217803 0 0,0 -0.41185257170257256,-0.3272005915111477 l 6.009028707527205 -7.431424808509549" fill="#ff740a" stroke="none" /><path d="M 86.79598089348748 116.32954008644616 l -6.634359285891692 8.204777275232882 a31.551449818412408,31.551449818412408 0 0,0 -0.41937867295438847,-0.34512009668676424 l 6.77460808739077 -8.089362059688936" fill="#ff810b" stroke="none" /><path d="M 86.51685102203217 116.09983520530335 l -3.1413307878659156 3.750971534367007 a25.892621645950754,25.892621645950754 0 0,0 -0.3392359103204405,-0.2891042023409861 l 3.2054321747634122 -3.6963429418030693" fill="#ff3304" stroke="none" /><path d="M 86.24171649860922 115.8653595955263 l -7.889365364433872 9.097618789043048 a33.04195804195804,33.04195804195804 0 0,0 -0.42648930486725706,-0.3763272244841609 l 8.044797022207717 -8.9604684227866" fill="#ff950d" stroke="none" /><path d="M 85.97065885151581 115.62618273729859 l -2.8982396250490363 3.2281217997460403 a25.338267312902698,25.338267312902698 0 0,0 -0.3220378553115715,-0.2941739453832667 l 2.9533770298274624 -3.1777550877761978" fill="#ff2b04" stroke="none" /><path d="M 85.70375840098266 115.38237550388516 l -3.376411029012614 3.632928412968431 a25.95966937311262,25.95966937311262 0 0,0 -0.3246988045418519,-0.30702298637184056 l 3.438445667945283 -3.57427078985066" fill="#ff3404" stroke="none" /><path d="M 85.44109423537348 115.13401014063109 l -3.4303757147253577 3.5658820581809003 a25.948029142702573,25.948029142702573 0 0,0 -0.31922259832245187,-0.3124264999092623 l 3.4912482654236037 -3.5063054553490685" fill="#ff3404" stroke="none" /><path d="M 85.18274418774928 114.88116024355367 l -9.646515744578272 9.688119609053798 a34.67168342120784,34.67168342120784 0 0,0 -0.4192951928534463,-0.4247438166570813 l 9.811851562487252 -9.520635298416053" fill="#ffab0f" stroke="none" /><path d="M 84.9287848128048 114.62390073753433 l -4.021512487968585 3.902153788420035 a26.603513797553113,26.603513797553113 0 0,0 -0.3160667810851911,-0.33139475634948384 l 4.088085820432734 -3.8323519154880508" fill="#ff3d05" stroke="none" /><path d="M 84.67929136418377 114.36230785411682 l -11.467279783904367 10.749933728306967 a36.71812904913729,36.71812904913729 0 0,0 -0.4282970286791689,-0.4648318349407364 l 11.650623220579265 -10.550950638564887" fill="#ffc512" stroke="none" /><path d="M 84.43433777217949 114.09645910891817 l -3.515528327165212 3.1837065834279494 a25.742881721955914,25.742881721955914 0 0,0 -0.2946225622105548,-0.33101157191589897 l 3.5698097390241053 -3.1227208417711863" fill="#ff3104" stroke="none" /><path d="M 84.19399662182784 113.82643327865904 l -3.6272132216334834 3.1729350169343586 a25.819148511602542,25.819148511602542 0 0,0 -0.28973694015541035,-0.33702951843713075 l 3.6812926713596723 -3.1100283993356976" fill="#ff3204" stroke="none" /><path d="M 83.95833913139862 113.55231037782056 l -2.3251093168453196 1.9642980475872256 a24.043780569462243,24.043780569462243 0 0,0 -0.2643716719605189,-0.31845270961060973 l 2.3585769886993746 -1.9239840808628546" fill="#ff1802" stroke="none" /><path d="M 83.72743513129214 113.27417163493432 l -14.128154694622063 11.524891854138804 a39.2326050613939,39.2326050613939 0 0,0 -0.4223709175146173,-0.5269726620969483 l 14.32444352419154 -11.279991358463596" fill="#ffe515" stroke="none" /><path d="M 83.50135304334701 112.99209946851258 l -4.317898660086219 3.4001920905505476 a26.495958068564285,26.495958068564285 0 0,0 -0.27908215695439686,-0.360751308516907 l 4.375787634258684 -3.3253627879203878" fill="#ff3b05" stroke="none" /><path d="M 83.28015986056508 112.70617746262583 l -3.87784985571819 2.9469569104288444 a25.870551769093304,25.870551769093304 0 0,0 -0.2663912068784744,-0.35687455464257223 l 3.9280023292917496 -2.879769476276964" fill="#ff3304" stroke="none" /><path d="M 83.06392112726016 112.41649034213515 l -4.273766869070716 3.1332627494884284 a26.29928473555614,26.29928473555614 0 0,0 -0.2645209705817707,-0.3673964924801915 l 4.327067632028094 -3.0592326515570987" fill="#ff3905" stroke="none" /><path d="M 82.85270091963577 112.12312394758628 l -4.620724566937551 3.266847821928292 a26.658921294304935,26.658921294304935 0 0,0 -0.2616878976973377,-0.37698093423869367 l 4.676273371797023 -3.1868256255025855" fill="#ff3e05" stroke="none" /><path d="M 82.6465618267979 111.8261652097733 l -5.91365552089436 4.03008709200823 a28.156320534253318,28.156320534253318 0 0,0 -0.2694920471640477,-0.40285404534913155 l 5.982150673469138 -3.9276961324532778" fill="#ff5307" stroke="none" /><path d="M 82.44556493220864 111.52570212397912 l -4.601606460870728 3.0212732654145538 a26.504804643675918,26.504804643675918 0 0,0 -0.2471196117320591,-0.3835351252149908 l 4.652930935979833 -2.941616540278115" fill="#ff3c05" stroke="none" /><path d="M 82.24976979558568 111.22182372390057 l -7.0355961652494745 4.447954705361832 a29.323695961616064,29.323695961616064 0 0,0 -0.26605718934827727,-0.4289689036827639 l 7.111117994265707 -4.326189470313804" fill="#ff6309" stroke="none" /><path d="M 82.05923443525364 110.91462005526583 l -4.6921365797818115 2.8545542179296066 a26.49223319483307,26.49223319483307 0 0,0 -0.23366039205453398,-0.39162825720403993 l 4.740577847534578 -2.7733638668394556" fill="#ff3b05" stroke="none" /><line stroke="#e1ed5e" stroke-width="0.3" x1="26.63291911575756" x2="22.317208475507996" y1="142.92168965132927" y2="145.44649492493687" /><path d="M 25.769776987707644 143.4266507060508 a86.0,86.0 0 0,1 -11.730757126820373,-40.83630448921669" fill="none" id="id105" stroke="none" /><text fill="#e1ed5e" style="font-size:6.75px; font-family:Arial;" text-anchor="middle"><textPath startOffset="21.46611528233685" xlink:href="#id105">September</textPath></text><path d="M 81.87401531095188 110.60418214915194 l -17.02738657751517 9.961473094539931 a40.72721064604387,40.72721064604387 0 0,0 -0.3487955969986972,-0.6081545234356018 l 17.196334170666244 -9.666898725246021" fill="#fff817" stroke="none" /><line stroke="#e1ed5e" stroke-width="0.3" x1="15.007084014347285" x2="10.007500721073583" y1="101.09737516637583" y2="101.16192664675087" /><path d="M 14.007167355692545 101.11028546245083 a86.0,86.0 0 0,1 10.666146001902534,-42.60595125391555" fill="none" id="id106" stroke="none" /><text fill="#e1ed5e" style="font-size:6.75px; font-family:Arial;" text-anchor="middle"><textPath startOffset="22.20632615414155" xlink:href="#id106">October</textPath></text><line stroke="#e1ed5e" stroke-width="0.3" x1="26.266209847984243" x2="21.928928074336255" y1="57.711370442889674" y2="55.22380399835377" /><path d="M 25.398753493254645 57.213857153982495 a86.0,86.0 0 0,1 29.58750427330803,-30.492523968695096" fill="none" id="id107" stroke="none" /><text fill="#e1ed5e" style="font-size:6.75px; font-family:Arial;" text-anchor="middle"><textPath startOffset="21.46611528233685" xlink:href="#id107">November</textPath></text><line stroke="#e1ed5e" stroke-width="0.3" x1="56.762969772571076" x2="54.21961505331055" y1="26.818313649435495" y2="22.513508569990535" /><path d="M 56.25429882871897 25.957352633546506 a86.0,86.0 0 0,1 42.265352541879196,-11.944610805530505" fill="none" id="id108" stroke="none" /><text fill="#e1ed5e" style="font-size:6.75px; font-family:Arial;" text-anchor="middle"><textPath startOffset="22.20632615414155" xlink:href="#id108">December</textPath></text></svg>