<?xml version="1.0" encoding="utf-8" ?>
<svg baseProfile="full" height="200mm" version="1.1" viewBox="0,0,200,200" width="200mm" xmlns="http://www.w3.org/2000/svg" xmlns:ev="http://www.w3.org/2001/xml-events" xmlns:xlink="http://www.w3.org/1999/xlink"><defs /><rect fill="#1a1a1a" height="200" width="200" x="0" y="0" /><text alignment-baseline="middle" fill="#e1ed5e" style="dominant-baseline: central; font-size:9.0px; font-family:Arial;" text-anchor="middle" x="100.0" y="100.0">2026</text><line stroke="#e1ed5e" stroke-width="0.3" x1="100.0" x2="100.0" y1="15.0" y2="10.0" /><path d="M 100.0 14.0 a86.0,86.0 0 0,1 42.46469731375804,11.215312516191453" fill="none" id="id109" stroke="none" /><text fill="#e1ed5e" style="font-size:6.75px; font-family:Arial;" text-anchor="middle"><textPath startOffset="22.20632615414155" xlink:href="#id109">January</textPath></text><path d="M 100.0 79.0 l 0.0 -5.397998629004334 a26.397998629004334,26.397998629004334 0 0,0 0.4543981522022873,0.00391114835462158 l -0.09291767292975894 5.397198857258272" fill="#ff3605" stroke="none" /><path d="M 100.36148047927253 79.00311137660856 l 0.5896196401518908 -34.248537955211944 a55.25361299760429,55.25361299760429 0 0,0 0.9508182879326119,0.024556831190107608 l -1.1790645632793706 34.23331433187948" fill="#63ff29" stroke="none" /><path d="M 100.72285384407766 79.0124445844662 l 0.836638332908186 -24.29120840752408 a45.30561189515417,45.30561189515417 0 0,0 0.7791684323878991,0.033552631722958685 l -1.2546475976854166 24.273208049276928" fill="#d2ff1c" stroke="none" /><path d="M 101.08401301168833 79.027996857942 l 1.5311378319409104 -29.62236345519169 a50.661908228094106,50.661908228094106 0 0,0 0.8705113889000516,0.052511624241937165 l -2.040811269680574 29.591618561569447" fill="#94ff23" stroke="none" /><path d="M 101.44485096284872 79.0497635885617 l 1.8374540844894816 -26.64295380979594 a47.7062394436867,47.7062394436867 0 0,0 0.8187522249587588,0.06355093049578417 l -2.2957964988105815 26.607377617111695" fill="#b6ff1f" stroke="none" /><path d="M 101.80526077348638 79.07773832637324 l 2.2803085828016467 -26.42787876781676 a47.526073652148725,47.526073652148725 0 0,0 0.8144495102603198,0.07734179468541515 l -2.734883220152211 26.384711428616168" fill="#b8ff1f" stroke="none" /><path d="M 102.16513564639614 79.11191278185805 l 3.2378725850701273 -31.237287636343066 a52.40464866469262,52.40464866469262 0 0,0 0.8964521281539145,0.10072684176468902 l -3.7750914167337672 31.176924841107777" fill="#81ff25" stroke="none" /><path d="M 102.52436894288641 79.15227682838746 l 4.020297886702416 -33.20198406242333 a54.444499409906506,54.444499409906506 0 0,0 0.9294071977245117,0.12066372842981994 l -4.591219812934773 33.12786201082937" fill="#6cff28" stroke="none" /><path d="M 102.88285421437855 79.19881850522331 l 2.9711512127822455 -21.43828686072908 a42.64319484392557,42.64319484392557 0 0,0 0.7262156785625044,0.10702531339397173 l -3.3397358717734056 21.383967063174136" fill="#f1ff19" stroke="none" /><path d="M 103.2404852339499 79.25152402106235 l 4.864494978271874 -31.146834476795245 a52.52441290997365,52.52441290997365 0 0,0 0.8920916214138007,0.1472027612692463 l -5.399915805824549 31.058485452586375" fill="#80ff25" stroke="none" /><path d="M 103.59715602781102 79.31037775812273 l 6.445738148701702 -37.073701094875446 a58.62986650459708,58.62986650459708 0 0,0 0.9928126941962064,0.18143017396531902 l -7.0829459640008094 36.95725543955939" fill="#41ff2d" stroke="none" /><path d="M 103.95276090670814 79.375362276772 l 4.761453501559123 -24.844217958894045 a46.29637534186554,46.29637534186554 0 0,0 0.7813805019559545,0.15673757784625342 l -5.188400412982203 24.758576424970585" fill="#c6ff1e" stroke="none" /><path d="M 104.307194497241 79.44645832069477 l 6.478218011380049 -30.913469078263304 a52.58496286297817,52.58496286297817 0 0,0 0.8843220111989177,0.19327853981675436 l -7.009382746732495 30.797377040350682" fill="#7fff26" stroke="none" /><path d="M 104.66035177308747 79.52364482259891 l 7.213775184375377 -31.695423443825877 a53.50597513833629,53.50597513833629 0 0,0 0.8962921266494677,0.21212338834074035 l -7.758290997987368 31.56655414334427" fill="#76ff27" stroke="none" /><path d="M 105.01212808612495 79.60689891045804 l 2.2491757866677617 -9.151336198418583 a30.423680063320212,30.423680063320212 0 0,0 0.5074830809367469,0.12936873691292589 l -2.4063677562895336 9.11126446533679" fill="#ff6f0a" stroke="none" /><path d="M 105.36241919743992 79.69619591428918 l 12.385371983520537 -46.89491011857243 a69.50288686458944,69.50288686458944 0 0,0 1.1540858740346647,0.31545526522013234 l -13.190755746778912 46.67476831252601" fill="#3bff9a" stroke="none" /><path d="M 105.71112130821622 79.79150937346287 l 13.845966896490102 -48.99319715736467 a71.91212200448048,71.91212200448048 0 0,0 1.1882957047533864,0.34689610143123556 l -14.687252818966916 48.74760272701473" fill="#3effb4" stroke="none" /><path d="M 106.0581310904928 79.89281104454417 l 17.17715612816092 -57.011695327676186 a80.54316162908206,80.54316162908206 0 0,0 1.324032262975426,0.4113832691652708 l -18.15597376384706 56.70757192362839" fill="#49f2ff" stroke="none" /><path d="M 106.40334571778207 80.00007090966166 l 4.458534732056537 -13.925591779359277 a35.62192321010862,35.62192321010862 0 0,0 0.5823627687043722,0.1919958487083651 l -4.6975803230033275 13.846782206391675" fill="#ffb410" stroke="none" /><path d="M 106.74666289553966 80.11325718540242 l 6.179192369948584 -18.21404320413462 a40.23366289053942,40.23366289053942 0 0,0 0.6539272946187025,0.22814239289345006 l -6.4918016686305595 18.10497995806896" fill="#ffef16" stroke="none" /><path d="M 107.08798089147638 80.2323363322302 l 11.898238574983925 -33.18298708621039 a56.251648374946114,56.251648374946114 0 0,0 0.908645396819431,0.33466176802254444 l -12.467666297575931 32.97326205038152" fill="#59ff2a" stroke="none" /><path d="M 107.4271985657038 80.35727306442388 l 11.217666411762655 -29.667384846571387 a52.7173416818018,52.7173416818018 0 0,0 0.8460300782491416,0.32824652649478936 l -11.726679655011464 29.469895616186054" fill="#7eff26" stroke="none" /><path d="M 107.76421540070413 80.48803036053334 l 11.919930445745791 -29.955547207107806 a53.24003024670854,53.24003024670854 0 0,0 0.8485855670083567,0.3461593594973818 l -12.433799882342536 29.745926961426843" fill="#78ff26" stroke="none" /><path d="M 108.09893153111575 80.62456947434976 l 19.751644661904347 -47.25272925740316 a72.21472336275555,72.21472336275555 0 0,0 1.1427678809582311,0.48927356800425414 l -20.562096300652893 46.90573616143612" fill="#3effb7" stroke="none" /><path d="M 108.43124777332544 80.76684994638697 l 12.606622987727626 -28.757910823045393 a52.39975124202314,52.39975124202314 0 0,0 0.8229702355957988,0.36924275570526505 l -13.099775341790204 28.536647736823596" fill="#81ff25" stroke="none" /><path d="M 108.76106565485865 80.91482961587045 l 9.618703171032177 -20.95345430857613 a44.05573026720282,44.05573026720282 0 0,0 0.6864759457398356,0.3223096611623359 l -9.97795732807161 20.784779664773794" fill="#e0ff1b" stroke="none" /><path d="M 109.08828744355905 81.06846463323043 l 7.205221363280135 -15.008977644189004 a37.64886256828477,37.64886256828477 0 0,0 0.581816079418278,0.2854946233710584 l -7.462508709708844 14.882727860683113" fill="#ffce13" stroke="none" /><path d="M 109.41281617654863 81.2277094730956 l 7.284167895949935 -14.52705687913056 a37.25098407807608,37.25098407807608 0 0,0 0.5707196882913917,0.29234479121580803 l -7.533148071830082 14.399519562602253" fill="#ffc912" stroke="none" /><path d="M 109.73455568895987 81.39251694778311 l 14.725077963005049 -28.146804784314238 a52.765870688253955,52.765870688253955 0 0,0 0.8011742496760174,0.4279595377555799 l -15.207397259209378 27.889166520056904" fill="#7eff26" stroke="none" /><path d="M 110.05341064243156 81.56283822128135 l 4.779211939641463 -8.764697557866945 a30.983025094874314,30.983025094874314 0 0,0 0.4660376797689248,0.25934946422311667 l -4.929373708482423 8.681132696083647" fill="#ff760a" stroke="none" /><path d="M 110.36928655335952 81.73862282372117 l 14.977035994634218 -26.37609654948814 a51.331667879832935,51.331667879832935 0 0,0 0.7646054019436331,0.44290880066954563 l -15.428838129043179 26.114383591428542" fill="#8dff24" stroke="none" /><line stroke="#e1ed5e" stroke-width="0.3" x1="143.23703022742887" x2="145.7803849466894" y1="26.81831364943548" y2="22.513508569990506" /><path d="M 143.74570117128098 25.957352633546492 a86.0,86.0 0 0,1 28.547481713284135,27.462654790039103" fill="none" id="id110" stroke="none" /><text fill="#e1ed5e" style="font-size:6.75px; font-family:Arial;" text-anchor="middle"><textPath startOffset="19.985693538727396" xlink:href="#id110">February</textPath></text><path d="M 110.68208982089419 81.91981866633111 l 8.273574978554247 -14.00360214134995 a37.265082719094295,37.265082719094295 0 0,0 0.5494611054937705,0.3310441680977253 l -8.513398150265656 13.85911136379361" fill="#ffca12" stroke="none" /><path d="M 110.99172775467656 82.1063720568725 l 4.667928566615395 -7.599003441526756 a29.918206681130435,29.918206681130435 0 0,0 0.43649359630793144,0.27333224996402716 l -4.79804131529559 7.5175268502397845" fill="#ff6809" stroke="none" /><path d="M 111.2981086023043 82.29822771554956 l 11.39559763506977 -17.854517201231808 a42.18120463877091,42.18120463877091 0 0,0 0.6086807570327937,0.3959028959308978 l -11.701245417886843 17.65571538114138" fill="#f7ff18" stroke="none" /><path d="M 111.60114157652 82.49532879139004 l 8.700507745595731 -13.127977658928184 a36.74936927132286,36.74936927132286 0 0,0 0.524282786533753,0.35399807781551984 l -8.925195226536026 12.976267668813994" fill="#ffc312" stroke="none" /><path d="M 111.90073688211348 82.69761687909136 l 5.064392082360282 -7.363077845641121 a29.936609117827892,29.936609117827892 0 0,0 0.42206179744023753,0.2956812612994701 l -5.190385019384171 7.274811741577715" fill="#ff6809" stroke="none" /><path d="M 112.19680574252982 82.90503203632743 l 27.890874413742456 -39.091678153008566 a69.0214553755044,69.0214553755044 0 0,0 0.96122132841163,0.6983681739168527 l -28.559641058507875 38.60579074427503" fill="#3aff94" stroke="none" /><path d="M 112.48926042617603 83.11751280151076 l 1.8158028787214373 -2.454530357197511 a24.0531720175544,24.0531720175544 0 0,0 0.33073552068476514,0.2491031373133452 l -1.8577845531645854 2.4229106303783183" fill="#ff1402" stroke="none" /><path d="M 112.77801427241765 83.33499621200491 l 18.102766324228416 -23.609511066023966 a50.75095227663018,50.75095227663018 0 0,0 0.6886842473093807,0.5375289787534937 l -18.506483126697226 23.294403698047248" fill="#93ff23" stroke="none" /><path d="M 113.06298171725822 83.55741782278167 l 2.564905931551292 -3.228487757940355 a25.123333074210443,25.123333074210443 0 0,0 0.3362896925663271,0.27192287734145065 l -2.6200990226821106 3.1838587833347747" fill="#ff2403" stroke="none" /><path d="M 113.34407831869373 83.78471172551755 l 15.605450855546483 -18.963234345039886 a45.558793806491735,45.558793806491735 0 0,0 0.6012512537477538,0.5035306339533506 l -15.929559646253354 18.691802553692717" fill="#cfff1d" stroke="none" /><path d="M 113.6212207817346 84.01681056812373 l 6.5081101872914005 -7.636639889611686 a31.033631795792314,31.033631795792314 0 0,0 0.4035941568544684,0.349992875741332 l -6.638598142792633 7.523482020450683" fill="#ff770a" stroke="none" /><path d="M 113.89432698308785 84.25364557470407 l 5.8040724788189815 -6.577719271529528 a29.772322848278833,29.772322848278833 0 0,0 0.3813537009491364,0.342383118052373 l -5.916437167364108 6.476837144707857" fill="#ff6609" stroke="none" /><path d="M 114.16331599549186 84.49514656593476 l 17.168077351679816 -18.794223271387683 a46.45517056175487,46.45517056175487 0 0,0 0.5857601391294479,0.544400210874678 l -17.48904537460411 18.495918474438362" fill="#c4ff1e" stroke="none" /><path d="M 114.42810811169701 84.74124197986012 l 23.62284960260887 -24.98285589779727 a55.38287527472916,55.38287527472916 0 0,0 0.6870555726662115,0.6609469165514786 l -24.0493884188875 24.572525894483487" fill="#62ff29" stroke="none" /><path d="M 114.68862486808459 84.99185889309783 l 4.288364702870685 -4.38164791847765 a27.130979555203776,27.130979555203776 0 0,0 0.3309516984969289,0.32953048672747964 l -4.363152201534937 4.307181581100051" fill="#ff4106" stroke="none" /><path d="M 114.94478906791727 85.2469230424477 l 2.8188548668417766 -2.7826945294239054 a24.960976092379667,24.960976092379667 0 0,0 0.2992176045382994,0.3083700434467087 l -2.866336735083185 2.733760290427082" fill="#ff2103" stroke="none" /><path d="M 115.19652480421416 85.50635884689758 l 1.2105413142696766 -1.15455024330064 a22.6728408584977,22.6728408584977 0 0,0 0.2669270078087569,0.28473912098298393 l -1.2302356440488964 1.1335417054396013" fill="#ff0000" stroke="none" /><path d="M 115.4437574822437 85.77008943001954 l 2.7541693113532553 -2.5376973861575873 a24.74504427467969,24.74504427467969 0 0,0 0.2859305884042278,0.31573169725200123 l -2.7974435403735187 2.4899129016360373" fill="#ff1e03" stroke="none" /><path d="M 115.68641384162765 86.03803664274999 l 3.9686339903060026 -3.5323511741062075 a26.312961562652383,26.312961562652383 0 0,0 0.2982237592987907,0.3409213100679756 l -4.028849613182642 3.4635143078352844" fill="#ff3505" stroke="none" /><path d="M 115.9244219780498 86.31012108654704 l 6.584130599688927 -5.6602337456483545 a29.68268517275252,29.68268517275252 0 0,0 0.32974549590507035,0.39031466006821075 l -6.680586709081115 5.546060135951037" fill="#ff6409" stroke="none" /><path d="M 116.15771136456269 86.58626213691792 l 24.157949743504165 -20.055340626988972 a52.397821954304845,52.397821954304845 0 0,0 0.570141968022405,0.6989266384503326 l -24.499590203602978 19.636529818930537" fill="#81ff25" stroke="none" /><path d="M 116.38621287248628 86.86637796730983 l 4.049682694810129 -3.245838576604085 a26.18993236892504,26.18993236892504 0 0,0 0.2789176906585782,0.3541971426014396 l -4.104954466062671 3.175649040049607" fill="#ff3304" stroke="none" /><path d="M 116.60985879189232 87.15038557335679 l 3.210623503924571 -2.4837823494734734 a25.059221359264466,25.059221359264466 0 0,0 0.2610026014533777,0.3434488291315949 l -3.2529020456020623 2.428148744460845" fill="#ff2303" stroke="none" /><path d="M 116.82858285166822 87.43820079747576 l 18.875323280331976 -14.089601187467613 a44.5540801255097,44.5540801255097 0 0,0 0.453470127994524,0.6185327449645508 l -19.115056020840125 13.76260599883157" fill="#daff1b" stroke="none" /><path d="M 117.04232023915458 87.72973835380427 l 14.168552169032624 -10.201183865937535 a38.45886659646792,38.45886659646792 0 0,0 0.38218476739661184,0.5405732498358159 l -14.34204955623312 9.955784115769927" fill="#ffd914" stroke="none" /><path d="M 117.2510076193507 88.02491185347247 l 12.95102606601177 -8.990180872362513 a36.765545606806924,36.765545606806924 0 0,0 0.35640788532791773,0.5229845932955899 l -13.103858417008421 8.765918255796517" fill="#ffc312" stroke="none" /><path d="M 117.45458315368197 88.32363383020206 l 27.927604418815662 -18.682367408503293 a54.60032649484463,54.60032649484463 0 0,0 0.5158518327206196,0.7856777317934882 l -28.245052886894204 18.19887161273213" fill="#6aff28" stroke="none" /><path d="M 117.65298651832404 88.62581576622439 l 4.871122955658045 -3.1385652430832027 a26.794689865232538,26.794689865232538 0 0,0 0.2464759356719571,0.3898657389090534 l -4.924426487575958 3.054251856459943" fill="#ff3c05" stroke="none" /><line stroke="#e1ed5e" stroke-width="0.3" x1="172.23445277983987" x2="176.4835382374775" y1="55.19839476539836" y2="52.563006222186495" /><path d="M 173.08426987136738 54.67131705675599 a86.0,86.0 0 0,1 12.851231095245387,41.99856678651699" fill="none" id="id111" stroke="none" /><text fill="#e1ed5e" style="font-size:6.75px; font-family:Arial;" text-anchor="middle"><textPath startOffset="22.20632615414155" xlink:href="#id111">March</textPath></text><path d="M 117.84615892207809 88.93136811851018 l 22.463360523014305 -13.932335217682985 a47.433171028176076,47.433171028176076 0 0,0 0.42437826063723205,0.6975662777371889 l -22.69985458193776 13.543601166738714" fill="#b9ff1f" stroke="none" /><path d="M 118.03404312379186 89.2402003453031 l 4.186868014832265 -2.4980455414804092 a25.87545847084514,25.87545847084514 0 0,0 0.2249197434522666,0.3844607503659751 l -4.229247432754859 2.425605378760539" fill="#ff2f04" stroke="none" /><path d="M 118.21658344932153 89.55222093294921 l 19.105379390991434 -10.957531274982207 a43.02460018515509,43.02460018515509 0 0,0 0.36292757901182837,0.6456076665145184 l -19.291164611295695 10.627040098532895" fill="#edff1a" stroke="none" /><path d="M 118.3937258080291 89.86733742301442 l 13.56609259329589 -7.473235176529993 a36.48832180236461,36.48832180236461 0 0,0 0.2983213965036339,0.5527442405531923 l -13.69272208901799 7.2386099526443415" fill="#ffbf11" stroke="none" /><path d="M 118.56541770881063 90.18545643968196 l 19.07513586177367 -10.084004290704224 a42.57656021427107,42.57656021427107 0 0,0 0.3369439369572451,0.6508684391002834 l -19.245889231891034 9.754163129343596" fill="#f2ff19" stroke="none" /><path d="M 118.73160827565052 90.50648371742162 l 13.321134339109328 -6.7513906915906094 a35.934319413722676,35.934319413722676 0 0,0 0.2748804097689765,0.5541421326642917 l -13.435374761831712 6.521088970427368" fill="#ffb811" stroke="none" /><path d="M 118.89224826269711 90.83032412892265 l 25.99598354260867 -12.617595307926115 a49.89627781743143,49.89627781743143 0 0,0 0.36838138254228975,0.7759051405994715 l -26.209323118992714 12.168247751686103" fill="#9dff22" stroke="none" /><path d="M 119.04729006885535 91.15688171328212 l 13.093219967050596 -6.078811867939537 a35.435524335173106,35.435524335173106 0 0,0 0.252094534898276,0.5554568912514515 l -13.195916818912218 5.852532967846023" fill="#ffb210" stroke="none" /><path d="M 119.196687751892 91.48605970444005 l 3.8719508782622967 -1.7172524255710224 a25.235676982113453,25.235676982113453 0 0,0 0.17269529646375834,0.3986045543763434 l -3.9009368845687358 1.650348726608076" fill="#ff2503" stroke="none" /><path d="M 119.34039704204932 91.81776055985345 l 7.244362765593244 -3.0648342229216876 a28.86600284092917,28.86600284092917 0 0,0 0.18966106563474477,0.45927931421531576 l -7.296045518114186 2.9396803382530687" fill="#ff5908" stroke="none" /><path d="M 119.47837535516314 92.15188598940014 l 14.833948138191019 -5.976808337097245 a36.99275633732147,36.99275633732147 0 0,0 0.23288957121183337,0.592678556254266 l -14.934631259284554 5.7205807759471945" fill="#ffc612" stroke="none" /><path d="M 119.61058180528143 92.48833698450437 l 7.226380833429605 -2.7680024071361653 a28.73837303802746,28.73837303802746 0 0,0 0.17297135647310852,0.4634772393999967 l -7.272956778404339 2.643202030706836" fill="#ff5708" stroke="none" /><path d="M 119.7369772167798 92.82701384747503 l 32.72488821879155 -11.893167198711373 a55.81904270580836,55.81904270580836 0 0,0 0.3204196966824224,0.9058696307016026 l -32.92476099628378 11.328099941583156" fill="#5dff2a" stroke="none" /><path d="M 119.85752413597 93.16781622104841 l 29.696823990173794 -10.217495281021582 a52.40539069843042,52.40539069843042 0 0,0 0.28614018659189244,0.8555227372993681 l -29.868301470537457 9.704799440799901" fill="#81ff25" stroke="none" /><path d="M 119.97218684219823 93.5106431181261 l 8.055042671068831 -2.6172420178267832 a29.469573083256186,29.469573083256186 0 0,0 0.15260259373791366,0.4837919245684309 l -8.09890074857495 2.4781999268319335" fill="#ff6109" stroke="none" /><path d="M 120.08093135843002 93.85539295169968 l 8.47695351875549 -2.593881100917796 a29.864928658756348,29.864928658756348 0 0,0 0.14618754996666053,0.4928717447636344 l -8.520346965833854 2.447579969407632" fill="#ff6709" stroke="none" /><path d="M 120.18372546131832 94.20196356495316 l 23.695761872621112 -6.8069143606295075 a45.654070938425335,45.654070938425335 0 0,0 0.2104722878257765,0.7571808028934699 l -23.809420931013253 6.398022254317086" fill="#cdff1d" stroke="none" /><path d="M 120.28053869075195 94.5502522615342 l 14.196649395940325 -3.8148965921993954 a35.70028197282036,35.70028197282036 0 0,0 0.15436745506650457,0.5948407748192278 l -14.260213182877132 3.5699593918313175" fill="#ffb510" stroke="none" /><path d="M 120.37134235888165 94.90015583598534 l 30.468259712861173 -7.627547254713553 a52.40850724012918,52.40850724012918 0 0,0 0.21154868577411054,0.8770058776603016 l -30.5950411988961 7.101956145393846" fill="#81ff25" stroke="none" /><path d="M 120.45610955862082 95.25157060432595 l 14.326490388743997 -3.325575075935423 a35.70740549670325,35.70740549670325 0 0,0 0.13382729705642105,0.5999215318080249 l -14.381612072802456 3.0784753745774345" fill="#ffb510" stroke="none" /><path d="M 120.53481517161879 95.60439243477599 l 46.83231742736288 -10.024754888722034 a68.89323194561246,68.89323194561246 0 0,0 0.2382416671705621,1.1617509789296137 l -46.99793839044844 9.217128253629008" fill="#3aff93" stroke="none" /><path d="M 120.6074358757038 95.95851677861258 l 8.76008623700794 -1.7180080898136199 a29.926962679236482,29.926962679236482 0 0,0 0.0947890599136225,0.5063669483282114 l -8.788361020831422 1.5669630640228456" fill="#ff6809" stroke="none" /><path d="M 120.67395015179393 96.31383870115 l 26.801053093185864 -4.778622563910607 a48.22373377242885,48.22373377242885 0 0,0 0.1386734053838729,0.8184582884270064 l -26.87933836008996 4.316578487167762" fill="#b0ff20" stroke="none" /><path d="M 120.73433829027371 96.67025291283417 l 10.427026372132588 -1.6744860725406563 a31.56062415637831,31.56062415637831 0 0,0 0.08152275523146624,0.5371330993785477 l -10.454305020803353 1.4947538607700264" fill="#ff7e0b" stroke="none" /><path d="M 120.78858239683441 97.02765380044208 l 12.240322251521548 -1.750118148085671 a33.36480498646672,33.36480498646672 0 0,0 0.07639587211449417,0.5692379832019263 l -12.268634122693879 1.5391618228190802" fill="#ff960d" stroke="none" /><path d="M 120.83666639777658 97.38593545837742 l 22.09420249974623 -2.7718287670132526 a43.26739362416345,43.26739362416345 0 0,0 0.08634862824968846,0.7397823146247252 l -22.13864148099951 2.391102714063675" fill="#eaff1a" stroke="none" /><path d="M 120.87857604477298 97.74499172005257 l 10.596943750560737 -1.1445318803546525 a31.65857260976799,31.65857260976799 0 0,0 0.053854057638989504,0.5423030109859001 l -10.615074933881955 0.9619533386643173" fill="#ff7f0b" stroke="none" /><path d="M 120.91429891909075 98.10471618934814 l 53.636871044706595 -4.860650301419411 a74.85666028282085,74.85666028282085 0 0,0 0.10524673973328628,1.2842768049622058 l -53.71259226825937 3.9366595792494365" fill="#42ffd3" stroke="none" /><path d="M 120.94382443527127 98.46500227214037 l 9.645499747692686 -0.7069301140552257 a30.671370924998058,30.671370924998058 0 0,0 0.03405896395501468,0.5268770975298118 l -9.656239302652116 0.5407939522723786" fill="#ff720a" stroke="none" /><path d="M 120.96714384426684 98.82574320788733 l 23.25332903025721 -1.302293710379464 a44.28976770810513,44.28976770810513 0 0,0 0.036078005602965875,0.7615496766497182 l -23.27230064409367 0.9018329271067462" fill="#deff1b" stroke="none" /><path d="M 120.98425023603335 99.18683210126433 l 12.15829858096059 -0.47115041033505456 a33.167424012211754,33.167424012211754 0 0,0 0.017197002226863635,0.570684782315477 l -12.164607277643098 0.2617954805945784" fill="#ff940d" stroke="none" /><line stroke="#e1ed5e" stroke-width="0.3" x1="184.98032266829074" x2="189.97916517819016" y1="98.17113171792111" y2="98.06355123074" /><path d="M 185.9800911702706 98.14961562048488 a86.0,86.0 0 0,1 -9.607161424134198,41.387399972396054" fill="none" id="id112" stroke="none" /><text fill="#e1ed5e" style="font-size:6.75px; font-family:Arial;" text-anchor="middle"><textPath startOffset="21.466115282336823" xlink:href="#id112">April</textPath></text><path d="M 120.99513854157772 99.54816195383933 l 12.064159168467693 -0.259633728849027 a33.066952644113556,33.066952644113556 0 0,0 0.007348725363281661,0.5691668779656553 l -12.06684090094869 0.05193059282290897" fill="#ff920d" stroke="none" /><path d="M 120.99980553446 99.90962569577887 l 14.704301194782904 -0.06328110931102528 a35.70443736175205,35.70443736175205 0 0,0 -0.002645023332402264,0.6146102710639811 l -14.703211874161 -0.18983863995664052" fill="#ffb510" stroke="none" /><path d="M 120.99824983174949 100.27111621757518 l 8.95070376671614 0.11556586712283445 a29.9514497925839,29.9514497925839 0 0,0 -0.01109335709427924,0.5154647136614702 l -8.947388346936854 -0.2696203965744195" fill="#ff6809" stroke="none" /><path d="M 120.9904718944345 100.63252640178507 l 8.57238631200381 0.2583200937984171 a29.57627753475191,29.57627753475191 0 0,0 -0.019714514461304795,0.5087440187705184 l -8.5666696646913 -0.4058413595829417" fill="#ff6309" stroke="none" /><path d="M 120.9764740272857 100.99374915477107 l 52.85692552184084 2.504068366914342 a73.91620672353235,73.91620672353235 0 0,0 -0.07114839363973002,1.2704023632247894 l -52.80599077731358 -3.4135424464745547" fill="#40ffc9" stroke="none" /><path d="M 120.95626037817324 101.35467743843564 l 4.1018603400229265 0.26515692962235393 a25.11042168717271,25.11042168717271 0 0,0 -0.03159541687451196,0.43109436057713596 l -4.096688364484077 -0.3357244266962602" fill="#ff2403" stroke="none" /><path d="M 120.92983693683757 101.71520430193887 l 4.936526488957507 0.4045493281217346 a25.953075199819086,25.953075199819086 0 0,0 -0.04032045505931054,0.4449328617301618 l -4.928831437621121 -0.48946357840046695" fill="#ff3004" stroke="none" /><path d="M 120.89721153311464 102.0752229133903 l 11.888858308741593 1.1806374806157658 a32.94733680558009,32.94733680558009 0 0,0 -0.06090189459344307,0.5638759062869558 l -11.866774112647098 -1.385109708787513" fill="#ff910d" stroke="none" /><path d="M 120.8583938346157 102.4346265915055 l 8.786872762283783 1.0256184753654933 a29.8465262220589,29.8465262220589 0 0,0 -0.06395469686747725,0.5097818596213448 l -8.767916556169459 -1.176718089274233" fill="#ff6709" stroke="none" /><path d="M 120.81339534386255 102.79330883721812 l 4.796393071298941 0.6437107896853459 a25.839395631188033,25.839395631188033 0 0,0 -0.0629570094584391,0.44032117751953653 l -4.7846020108239005 -0.7261774391852918" fill="#ff2e04" stroke="none" /><path d="M 120.76222939487914 103.15116336523771 l 26.971251544961486 4.093530524427007 a48.2801283365017,48.2801283365017 0 0,0 -0.13177772645048208,0.8205800283988147 l -26.896792064149714 -4.557189782519027" fill="#afff20" stroke="none" /><path d="M 120.70491114924044 103.5080841355445 l 6.101015351467668 1.0337100705685636 a27.187967746266864,27.187967746266864 0 0,0 -0.08215110852704867,0.46074704412221035 l -6.08231780060143 -1.1385758654239924" fill="#ff4106" stroke="none" /><path d="M 120.64145759157962 103.86396538481128 l 18.79456039104685 3.5182365611319555 a40.12102216914129,40.12102216914129 0 0,0 -0.13291534292342977,0.6777324700240732 l -18.731215115147755 -3.8412327582239736" fill="#ffee16" stroke="none" /><path d="M 120.5718875245553 104.21870165774334 l 8.160978256227159 1.6735816029159964 a29.330812774287473,29.330812774287473 0 0,0 -0.10568305445523077,0.49371604671439606 l -8.130961163047484 -1.8138114690465614" fill="#ff5f08" stroke="none" /><path d="M 120.49622156327973 104.57218783832717 l 8.934569830235288 1.9930762063810286 a30.15417340975103,30.15417340975103 0 0,0 -0.11737071758785816,0.5056299794914206 l -8.898938546716877 -2.146574843221014" fill="#ff6b09" stroke="none" /><path d="M 120.41448212921028 104.9243191809786 l 15.895547380595389 3.8342755090720506 a37.351455446174285,37.351455446174285 0 0,0 -0.15614453251363009,0.6237197896648494 l -15.827191533786698 -4.107323138134296" fill="#ffcb12" stroke="none" /><path d="M 120.32669344350535 105.2749913415812 l 9.408832984856552 2.441691397936633 a30.720493558440456,30.720493558440456 0 0,0 -0.13723564744987335,0.5107048970749395 l -9.365409261064901 -2.6032872281871207" fill="#ff730a" stroke="none" /><path d="M 120.23288151984713 105.62410040840565 l 5.178363971949593 1.4394212164464304 a26.37469876963739,26.37469876963739 0 0,0 -0.125351863672426,0.4363662820632862 l -5.1528194713910676 -1.5283449740142985" fill="#ff3605" stroke="none" /><path d="M 120.13307415673323 105.97154293290107 l 3.100854527266869 0.9197247173533141 a24.234376656325306,24.234376656325306 0 0,0 -0.12206420167816971,0.39891287367170114 l -3.084563553082566 -0.9729645635770723" fill="#ff1702" stroke="none" /><path d="M 120.02730092923936 106.31721596034902 l 60.08190278771807 18.951647881047055 a84.0,84.0 0 0,0 -0.4468309959350121,1.375204400088819 l -59.746779540766816 -19.98305118111367" fill="#4dd2ff" stroke="none" /><path d="M 119.9155931802556 106.66101706037122 l 3.048780446143875 1.019702420173151 a24.21478696564737,24.21478696564737 0 0,0 -0.13561337971030824,0.39415596065408015 l -3.030776235490336 -1.0720310839165315" fill="#ff1702" stroke="none" /><path d="M 119.79798401119884 107.00284435728193 l 4.0518548508817345 1.4332019291950306 a25.297859409341143,25.297859409341143 0 0,0 -0.14874628026448933,0.4092858793025156 l -4.026584309612018 -1.5027356055036774" fill="#ff2603" stroke="none" /><line stroke="#e1ed5e" stroke-width="0.3" x1="174.80103733775053" x2="179.2010983576182" y1="140.37084112569926" y2="142.7455964860345" /><path d="M 175.68104954172406 140.8457921977663 a86.0,86.0 0 0,1 -30.038265399797805,32.042727171017184" fill="none" id="id113" stroke="none" /><text fill="#e1ed5e" style="font-size:6.75px; font-family:Arial;" text-anchor="middle"><textPath startOffset="22.206326154141568" xlink:href="#id113">May</textPath></text><line stroke="#e1ed5e" stroke-width="0.3" x1="143.8653032363475" x2="146.44561519142675" y1="172.8068346515853" y2="177.08958963109032" /><path d="M 144.38136562736335 173.6633856474863 a86.0,86.0 0 0,1 -40.68145358897372,12.25698825130547" fill="none" id="id114" stroke="none" /><text fill="#e1ed5e" style="font-size:6.75px; font-family:Arial;" text-anchor="middle"><textPath startOffset="21.466115282336833" xlink:href="#id114">June</textPath></text><line stroke="#e1ed5e" stroke-width="0.3" x1="102.19456741930631" x2="102.32365962044197" y1="184.97166512339345" y2="189.96999836594603" /><path d="M 102.22038585953345 185.97133177190398 a86.0,86.0 0 0,1 -42.740103519485714,-10.115201625700543" fill="none" id="id115" stroke="none" /><text fill="#e1ed5e" style="font-size:6.75px; font-family:Arial;" text-anchor="middle"><textPath startOffset="22.20632615414155" xlink:href="#id115">July</textPath></text><line stroke="#e1ed5e" stroke-width="0.3" x1="58.666819895761336" x2="56.23545636021788" y1="174.27360380694188" y2="178.64263932499728" /><path d="M 58.180547188652646 175.14741091055294 a86.0,86.0 0 0,1 -31.652253787137756,-30.449443065178592" fill="none" id="id116" stroke="none" /><text fill="#e1ed5e" style="font-size:6.75px; font-family:Arial;" text-anchor="middle"><textPath startOffset="22.20632615414155" xlink:href="#id116">August</textPath></text><line stroke="#e1ed5e" stroke-width="0.3" x1="26.63291911575756" x2="22.317208475507996" y1="142.92168965132927" y2="145.44649492493687" /><path d="M 25.769776987707644 143.4266507060508 a86.0,86.0 0 0,1 -11.730757126820373,-40.83630448921669" fill="none" id="id117" stroke="none" /><text fill="#e1ed5e" style="font-size:6.75px; font-family:Arial;" text-anchor="middle"><textPath startOffset="21.46611528233685" xlink:href="#id117">September</textPath></text><line stroke="#e1ed5e" stroke-width="0.3" x1="15.007084014347285" x2="10.007500721073583" y1="101.09737516637583" y2="101.16192664675087" /><path d="M 14.007167355692545 101.11028546245083 a86.0,86.0 0 0,1 10.666146001902534,-42.60595125391555" fill="none" id="id118" stroke="none" /><text fill="#e1ed5e" style="font-size:6.75px; font-family:Arial;" text-anchor="middle"><textPath startOffset="22.20632615414155" xlink:href="#id118">October</textPath></text><line stroke="#e1ed5e" stroke-width="0.3" x1="26.266209847984243" x2="21.928928074336255" y1="57.711370442889674" y2="55.22380399835377" /><path d="M 25.398753493254645 57.213857153982495 a86.0,86.0 0 0,1 29.58750427330803,-30.492523968695096" fill="none" id="id119" stroke="none" /><text fill="#e1ed5e" style="font-size:6.75px; font-family:Arial;" text-anchor="middle"><textPath startOffset="21.46611528233685" xlink:href="#id119">November</textPath></text><line stroke="#e1ed5e" stroke-width="0.3" x1="56.762969772571076" x2="54.21961505331055" y1="26.818313649435495" y2="22.513508569990535" /><path d="M 56.25429882871897 25.957352633546506 a86.0,86.0 0 0,1 42.265352541879196,-11.944610805530505" fill="none" id="id120" stroke="none" /><text fill="#e1ed5e" style="font-size:6.75px; font-family:Arial;" text-anchor="middle"><textPath startOffset="22.20632615414155" xlink:href="#id120">December</textPath></text></svg>